<svg width="1263" height="175" viewBox="0 0 1263 175" fill="none" xmlns="http://www.w3.org/2000/svg">
<g opacity="0.14">
<mask id="path-1-outside-1_254_281" maskUnits="userSpaceOnUse" x="-36" y="-2" width="1301" height="178" fill="black">
<rect fill="white" x="-36" y="-2" width="1301" height="178"/>
<path d="M-34.5214 66.3925C-34.5214 54.5221 -32.0674 43.9643 -27.1594 34.7191C-22.1373 25.3597 -15.0608 18.112 -5.92968 12.9757C3.20139 7.72536 13.7021 5.10018 25.5725 5.10018C40.6388 5.10018 53.3082 9.15209 63.5806 17.2559C73.8531 25.2456 80.4731 36.1458 83.4407 49.9566H47.3159C45.1473 45.391 42.1226 41.9098 38.2419 39.5129C34.4753 37.116 30.081 35.9176 25.0589 35.9176C17.2975 35.9176 11.0769 38.7139 6.39727 44.3067C1.83173 49.7854 -0.451041 57.1473 -0.451041 66.3925C-0.451041 75.7519 1.83173 83.2279 6.39727 88.8207C11.0769 94.2993 17.2975 97.0387 25.0589 97.0387C30.081 97.0387 34.4753 95.8402 38.2419 93.4433C42.1226 91.0464 45.1473 87.5652 47.3159 82.9996H83.4407C80.4731 96.8104 73.8531 107.768 63.5806 115.872C53.3082 123.861 40.6388 127.856 25.5725 127.856C13.7021 127.856 3.20139 125.288 -5.92968 120.152C-15.0608 114.901 -22.1373 107.654 -27.1594 98.4083C-32.0674 89.049 -34.5214 78.377 -34.5214 66.3925ZM162.507 30.0965C173.464 30.0965 182.138 33.806 188.53 41.225C195.036 48.5298 198.289 58.4599 198.289 71.0151V127H164.732V75.4665C164.732 69.9879 163.305 65.7077 160.452 62.6259C157.599 59.4301 153.775 57.8321 148.981 57.8321C143.959 57.8321 140.021 59.4301 137.168 62.6259C134.314 65.7077 132.888 69.9879 132.888 75.4665V127H99.3309V0.306366H132.888V44.6491C135.855 40.3119 139.85 36.8306 144.872 34.2055C150.008 31.4661 155.886 30.0965 162.507 30.0965ZM261.387 128.198C251.799 128.198 243.182 126.201 235.535 122.206C228.001 118.211 222.066 112.504 217.729 105.085C213.392 97.6664 211.223 88.9348 211.223 78.8907C211.223 68.9606 213.392 60.2861 217.729 52.8671C222.18 45.4481 228.173 39.7412 235.706 35.7463C243.353 31.7515 251.971 29.7541 261.558 29.7541C271.146 29.7541 279.706 31.7515 287.239 35.7463C294.887 39.7412 300.879 45.4481 305.216 52.8671C309.667 60.2861 311.893 68.9606 311.893 78.8907C311.893 88.8207 309.667 97.5523 305.216 105.085C300.879 112.504 294.887 118.211 287.239 122.206C279.592 126.201 270.975 128.198 261.387 128.198ZM261.387 99.0932C266.067 99.0932 269.947 97.3811 273.029 93.9569C276.225 90.4186 277.823 85.3965 277.823 78.8907C277.823 72.3848 276.225 67.4197 273.029 63.9956C269.947 60.5714 266.124 58.8594 261.558 58.8594C256.993 58.8594 253.169 60.5714 250.087 63.9956C247.005 67.4197 245.465 72.3848 245.465 78.8907C245.465 85.5107 246.948 90.5328 249.916 93.9569C252.884 97.3811 256.707 99.0932 261.387 99.0932ZM359.102 47.9021C362.869 42.4234 367.434 38.0862 372.799 34.8903C378.163 31.6944 383.927 30.0965 390.091 30.0965V65.8789H380.674C373.37 65.8789 367.948 67.3056 364.41 70.1591C360.871 73.0125 359.102 77.9776 359.102 85.0541V127H325.546V30.9525H359.102V47.9021ZM493.888 77.8634C493.888 80.4886 493.717 83.1138 493.375 85.739H429.857C430.199 90.9893 431.626 94.9271 434.137 97.5523C436.762 100.063 440.072 101.319 444.067 101.319C449.66 101.319 453.654 98.8078 456.051 93.7857H491.834C490.35 100.406 487.439 106.341 483.102 111.591C478.879 116.728 473.514 120.779 467.009 123.747C460.503 126.715 453.312 128.198 445.436 128.198C435.963 128.198 427.517 126.201 420.098 122.206C412.793 118.211 407.029 112.504 402.806 105.085C398.697 97.6664 396.642 88.9348 396.642 78.8907C396.642 68.8465 398.697 60.172 402.806 52.8671C406.915 45.4481 412.622 39.7412 419.927 35.7463C427.346 31.7515 435.849 29.7541 445.436 29.7541C454.91 29.7541 463.299 31.6944 470.604 35.5751C477.909 39.4558 483.616 45.0486 487.725 52.3535C491.834 59.5442 493.888 68.0475 493.888 77.8634ZM459.647 69.4742C459.647 65.3653 458.277 62.1694 455.538 59.8866C452.798 57.4897 449.374 56.2913 445.265 56.2913C441.156 56.2913 437.789 57.4326 435.164 59.7154C432.539 61.884 430.827 65.137 430.028 69.4742H459.647ZM552.306 128.198C542.719 128.198 534.101 126.201 526.454 122.206C518.921 118.211 512.985 112.504 508.648 105.085C504.311 97.6664 502.142 88.9348 502.142 78.8907C502.142 68.9606 504.311 60.2861 508.648 52.8671C513.1 45.4481 519.092 39.7412 526.625 35.7463C534.272 31.7515 542.89 29.7541 552.477 29.7541C562.065 29.7541 570.625 31.7515 578.158 35.7463C585.806 39.7412 591.798 45.4481 596.135 52.8671C600.587 60.2861 602.812 68.9606 602.812 78.8907C602.812 88.8207 600.587 97.5523 596.135 105.085C591.798 112.504 585.806 118.211 578.158 122.206C570.511 126.201 561.894 128.198 552.306 128.198ZM552.306 99.0932C556.986 99.0932 560.867 97.3811 563.948 93.9569C567.144 90.4186 568.742 85.3965 568.742 78.8907C568.742 72.3848 567.144 67.4197 563.948 63.9956C560.867 60.5714 557.043 58.8594 552.477 58.8594C547.912 58.8594 544.088 60.5714 541.006 63.9956C537.925 67.4197 536.384 72.3848 536.384 78.8907C536.384 85.5107 537.868 90.5328 540.835 93.9569C543.803 97.3811 547.626 99.0932 552.306 99.0932ZM651.905 29.7541C658.411 29.7541 664.061 31.0667 668.854 33.6918C673.762 36.317 677.529 39.8553 680.154 44.3067V30.9525H713.711V125.973C713.711 134.99 711.999 143.094 708.575 150.284C705.15 157.589 699.786 163.41 692.481 167.747C685.29 172.085 676.159 174.253 665.088 174.253C650.25 174.253 638.379 170.772 629.477 163.81C620.574 156.847 615.495 147.374 614.239 135.389H647.282C647.967 138.471 649.679 140.868 652.418 142.58C655.158 144.292 658.696 145.148 663.033 145.148C674.447 145.148 680.154 138.756 680.154 125.973V113.646C677.529 118.097 673.762 121.635 668.854 124.261C664.061 126.886 658.411 128.198 651.905 128.198C644.258 128.198 637.295 126.201 631.017 122.206C624.854 118.211 619.946 112.504 616.294 105.085C612.755 97.5523 610.986 88.8207 610.986 78.8907C610.986 68.9606 612.755 60.2861 616.294 52.8671C619.946 45.4481 624.854 39.7412 631.017 35.7463C637.295 31.7515 644.258 29.7541 651.905 29.7541ZM680.154 78.8907C680.154 72.7272 678.442 67.8763 675.018 64.338C671.708 60.7997 667.599 59.0306 662.691 59.0306C657.669 59.0306 653.503 60.7997 650.193 64.338C646.883 67.7622 645.228 72.613 645.228 78.8907C645.228 85.0541 646.883 89.9621 650.193 93.6145C653.503 97.1528 657.669 98.922 662.691 98.922C667.599 98.922 671.708 97.1528 675.018 93.6145C678.442 90.0762 680.154 85.1683 680.154 78.8907ZM766.389 47.9021C770.156 42.4234 774.721 38.0862 780.086 34.8903C785.45 31.6944 791.214 30.0965 797.378 30.0965V65.8789H787.961C780.656 65.8789 775.235 67.3056 771.697 70.1591C768.158 73.0125 766.389 77.9776 766.389 85.0541V127H732.832V30.9525H766.389V47.9021ZM803.929 78.8907C803.929 68.9606 805.698 60.2861 809.237 52.8671C812.889 45.4481 817.797 39.7412 823.96 35.7463C830.238 31.7515 837.2 29.7541 844.848 29.7541C851.468 29.7541 857.175 31.0667 861.968 33.6918C866.762 36.317 870.472 39.8553 873.097 44.3067V30.9525H906.654V127H873.097V113.646C870.472 118.097 866.705 121.635 861.797 124.261C857.003 126.886 851.354 128.198 844.848 128.198C837.2 128.198 830.238 126.201 823.96 122.206C817.797 118.211 812.889 112.504 809.237 105.085C805.698 97.5523 803.929 88.8207 803.929 78.8907ZM873.097 78.8907C873.097 72.7272 871.385 67.8763 867.961 64.338C864.651 60.7997 860.542 59.0306 855.634 59.0306C850.612 59.0306 846.446 60.7997 843.136 64.338C839.826 67.7622 838.171 72.613 838.171 78.8907C838.171 85.0541 839.826 89.9621 843.136 93.6145C846.446 97.1528 850.612 98.922 855.634 98.922C860.542 98.922 864.651 97.1528 867.961 93.6145C871.385 90.0762 873.097 85.1683 873.097 78.8907ZM959.332 44.3067C961.957 39.8553 965.667 36.317 970.461 33.6918C975.254 31.0667 980.904 29.7541 987.41 29.7541C995.057 29.7541 1001.96 31.7515 1008.13 35.7463C1014.4 39.7412 1019.31 45.4481 1022.85 52.8671C1026.5 60.2861 1028.33 68.9606 1028.33 78.8907C1028.33 88.8207 1026.5 97.5523 1022.85 105.085C1019.31 112.504 1014.4 118.211 1008.13 122.206C1001.96 126.201 995.057 128.198 987.41 128.198C980.904 128.198 975.254 126.886 970.461 124.261C965.781 121.635 962.071 118.097 959.332 113.646V172.884H925.775V30.9525H959.332V44.3067ZM994.258 78.8907C994.258 72.613 992.546 67.7622 989.122 64.338C985.812 60.7997 981.703 59.0306 976.795 59.0306C971.887 59.0306 967.721 60.7997 964.297 64.338C960.987 67.8763 959.332 72.7272 959.332 78.8907C959.332 85.1683 960.987 90.0762 964.297 93.6145C967.721 97.1528 971.887 98.922 976.795 98.922C981.703 98.922 985.812 97.1528 989.122 93.6145C992.546 89.9621 994.258 85.0541 994.258 78.8907ZM1105.32 30.0965C1116.28 30.0965 1124.95 33.806 1131.34 41.225C1137.85 48.5298 1141.1 58.4599 1141.1 71.0151V127H1107.54V75.4665C1107.54 69.9879 1106.12 65.7077 1103.26 62.6259C1100.41 59.4301 1096.59 57.8321 1091.79 57.8321C1086.77 57.8321 1082.83 59.4301 1079.98 62.6259C1077.13 65.7077 1075.7 69.9879 1075.7 75.4665V127H1042.14V0.306366H1075.7V44.6491C1078.67 40.3119 1082.66 36.8306 1087.68 34.2055C1092.82 31.4661 1098.7 30.0965 1105.32 30.0965ZM1262.92 30.9525L1201.97 172.712H1165.51L1188.45 122.891L1149.07 30.9525H1186.39L1206.6 85.3965L1226.11 30.9525H1262.92Z"/>
</mask>
<path d="M-27.1594 34.7191L-28.338 34.0867L-28.3408 34.0919L-27.1594 34.7191ZM-5.92968 12.9757L-5.2739 14.1416L-5.26295 14.1353L-5.92968 12.9757ZM63.5806 17.2559L62.7522 18.3061L62.7594 18.3117L63.5806 17.2559ZM83.4407 49.9566V51.2941H85.0962L84.7484 49.6756L83.4407 49.9566ZM47.3159 49.9566L46.1077 50.5305L46.4704 51.2941H47.3159V49.9566ZM38.2419 39.5129L37.5238 40.6413L37.5314 40.6462L37.539 40.6509L38.2419 39.5129ZM6.39727 44.3067L5.37144 43.4484L5.36972 43.4504L6.39727 44.3067ZM6.39727 88.8207L5.36111 89.6665L5.37054 89.6781L5.38022 89.6894L6.39727 88.8207ZM38.2419 93.4433L37.539 92.3053L37.5314 92.31L37.5238 92.3149L38.2419 93.4433ZM47.3159 82.9996V81.6621H46.4704L46.1077 82.4258L47.3159 82.9996ZM83.4407 82.9996L84.7484 83.2806L85.0962 81.6621H83.4407V82.9996ZM63.5806 115.872L64.4018 116.927L64.409 116.922L63.5806 115.872ZM-5.92968 120.152L-6.59645 121.311L-6.58544 121.317L-5.92968 120.152ZM-27.1594 98.4083L-28.344 99.0295L-28.3394 99.0382L-28.3348 99.0468L-27.1594 98.4083ZM-33.1838 66.3925C-33.1838 54.7111 -30.7704 44.3737 -25.978 35.3463L-28.3408 34.0919C-33.3644 43.5549 -35.8589 54.3331 -35.8589 66.3925H-33.1838ZM-25.9808 35.3515C-21.0771 26.2127 -14.1804 19.1514 -5.27393 14.1415L-6.58543 11.8099C-15.9411 17.0725 -23.1976 24.5068 -28.338 34.0867L-25.9808 35.3515ZM-5.26295 14.1353C3.64053 9.01576 13.9058 6.43774 25.5725 6.43774V3.76262C13.4984 3.76262 2.76225 6.43496 -6.59642 11.8162L-5.26295 14.1353ZM25.5725 6.43774C40.3859 6.43774 52.7506 10.4159 62.7522 18.306L64.409 16.2058C53.8657 7.88824 40.8917 3.76262 25.5725 3.76262V6.43774ZM62.7594 18.3117C72.7618 26.0913 79.2254 36.706 82.133 50.2376L84.7484 49.6756C81.7208 35.5856 74.9443 24.3999 64.4018 16.2001L62.7594 18.3117ZM83.4407 48.619H47.3159V51.2941H83.4407V48.619ZM48.5241 49.3827C46.2573 44.6104 43.0681 40.9217 38.9448 38.3749L37.539 40.6509C41.1771 42.898 44.0373 46.1716 46.1077 50.5305L48.5241 49.3827ZM38.96 38.3845C34.9528 35.8344 30.3027 34.58 25.0589 34.58V37.2551C29.8593 37.2551 33.9979 38.3976 37.5238 40.6413L38.96 38.3845ZM25.0589 34.58C16.9306 34.58 10.3234 37.5302 5.37144 43.4484L7.42309 45.1651C11.8305 39.8976 17.6644 37.2551 25.0589 37.2551V34.58ZM5.36972 43.4504C0.55085 49.2331 -1.7886 56.9286 -1.7886 66.3925H0.88652C0.88652 57.366 3.11261 50.3376 7.42481 45.163L5.36972 43.4504ZM-1.7886 66.3925C-1.7886 75.9675 0.549187 83.7719 5.36111 89.6665L7.43342 87.9749C3.11427 82.6839 0.88652 75.5362 0.88652 66.3925H-1.7886ZM5.38022 89.6894C10.3355 95.4907 16.9405 98.3762 25.0589 98.3762V95.7011C17.6545 95.7011 11.8184 93.108 7.41431 87.952L5.38022 89.6894ZM25.0589 98.3762C30.3027 98.3762 34.9528 97.1218 38.96 94.5717L37.5238 92.3149C33.9978 94.5586 29.8593 95.7011 25.0589 95.7011V98.3762ZM38.9448 94.5813C43.0681 92.0346 46.2573 88.3458 48.5241 83.5735L46.1077 82.4258C44.0373 86.7846 41.1771 90.0582 37.539 92.3053L38.9448 94.5813ZM47.3159 84.3372H83.4407V81.6621H47.3159V84.3372ZM82.133 82.7186C79.2252 96.2511 72.7601 106.926 62.7522 114.821L64.409 116.922C74.946 108.609 81.721 97.3697 84.7484 83.2806L82.133 82.7186ZM62.7594 114.816C52.7577 122.595 40.3904 126.518 25.5725 126.518V129.194C40.8872 129.194 53.8586 125.128 64.4018 116.927L62.7594 114.816ZM25.5725 126.518C13.9008 126.518 3.6315 123.995 -5.27393 118.986L-6.58544 121.317C2.77127 126.581 13.5035 129.194 25.5725 129.194V126.518ZM-5.26295 118.992C-14.1798 113.865 -21.0802 106.797 -25.9841 97.7699L-28.3348 99.0468C-23.1945 108.51 -15.9417 115.938 -6.59642 121.311L-5.26295 118.992ZM-25.9749 97.7872C-30.7695 88.6438 -33.1838 78.19 -33.1838 66.3925H-35.8589C-35.8589 78.5641 -33.3652 89.4541 -28.344 99.0295L-25.9749 97.7872ZM188.53 41.225L187.517 42.098L187.524 42.1064L187.531 42.1146L188.53 41.225ZM198.289 127V128.338H199.626V127H198.289ZM164.732 127H163.395V128.338H164.732V127ZM160.452 62.6259L159.454 63.5168L159.462 63.5258L159.471 63.5347L160.452 62.6259ZM137.168 62.6259L138.149 63.5347L138.157 63.5258L138.166 63.5168L137.168 62.6259ZM132.888 127V128.338H134.225V127H132.888ZM99.3309 127H97.9933V128.338H99.3309V127ZM99.3309 0.306366V-1.03119H97.9933V0.306366H99.3309ZM132.888 0.306366H134.225V-1.03119H132.888V0.306366ZM132.888 44.6491H131.55V48.9727L133.991 45.4044L132.888 44.6491ZM144.872 34.2055L145.492 35.3909L145.502 35.3857L144.872 34.2055ZM162.507 31.434C173.126 31.434 181.411 35.0111 187.517 42.098L189.543 40.3519C182.866 32.6009 173.801 28.7589 162.507 28.7589V31.434ZM187.531 42.1146C193.763 49.1114 196.951 58.6922 196.951 71.0151H199.626C199.626 58.2275 196.309 47.9483 189.529 40.3354L187.531 42.1146ZM196.951 71.0151V127H199.626V71.0151H196.951ZM198.289 125.662H164.732V128.338H198.289V125.662ZM166.07 127V75.4665H163.395V127H166.07ZM166.07 75.4665C166.07 69.7565 164.579 65.114 161.433 61.7172L159.471 63.5347C162.032 66.3013 163.395 70.2193 163.395 75.4665H166.07ZM161.45 61.7351C158.311 58.2194 154.105 56.4946 148.981 56.4946V59.1697C153.444 59.1697 156.886 60.6407 159.454 63.5168L161.45 61.7351ZM148.981 56.4946C143.65 56.4946 139.322 58.2054 136.17 61.7351L138.166 63.5168C140.721 60.6548 144.268 59.1697 148.981 59.1697V56.4946ZM136.186 61.7172C133.041 65.114 131.55 69.7565 131.55 75.4665H134.225C134.225 70.2193 135.588 66.3013 138.149 63.5347L136.186 61.7172ZM131.55 75.4665V127H134.225V75.4665H131.55ZM132.888 125.662H99.3309V128.338H132.888V125.662ZM100.668 127V0.306366H97.9933V127H100.668ZM99.3309 1.64392H132.888V-1.03119H99.3309V1.64392ZM131.55 0.306366V44.6491H134.225V0.306366H131.55ZM133.991 45.4044C136.826 41.262 140.648 37.9227 145.492 35.3908L144.253 33.0201C139.052 35.7386 134.885 39.3617 131.784 43.8938L133.991 45.4044ZM145.502 35.3857C150.419 32.7631 156.076 31.434 162.507 31.434V28.7589C155.697 28.7589 149.598 30.1692 144.243 33.0253L145.502 35.3857ZM235.535 122.206L234.908 123.388L234.915 123.392L235.535 122.206ZM217.729 105.085L218.884 104.41L217.729 105.085ZM217.729 52.8671L216.582 52.1789L216.578 52.1855L216.574 52.192L217.729 52.8671ZM235.706 35.7463L235.086 34.5608L235.079 34.5647L235.706 35.7463ZM287.239 35.7463L286.613 36.928L286.62 36.9319L287.239 35.7463ZM305.216 52.8671L304.061 53.5422L304.065 53.5487L304.069 53.5553L305.216 52.8671ZM305.216 105.085L304.065 104.405L304.061 104.41L305.216 105.085ZM287.239 122.206L286.62 121.021L287.239 122.206ZM273.029 93.9569L272.036 93.0604L272.035 93.0621L273.029 93.9569ZM273.029 63.9956L272.035 64.8904L272.043 64.8994L272.051 64.9082L273.029 63.9956ZM249.916 93.9569L248.905 94.8329V94.8329L249.916 93.9569ZM261.387 126.861C251.991 126.861 243.59 124.905 236.154 121.021L234.915 123.392C242.774 127.497 251.608 129.536 261.387 129.536V126.861ZM236.161 121.025C228.85 117.147 223.096 111.616 218.884 104.41L216.574 105.76C221.036 113.392 227.153 119.276 234.908 123.388L236.161 121.025ZM218.884 104.41C214.685 97.2285 212.561 88.738 212.561 78.8907H209.886C209.886 89.1316 212.098 98.1044 216.574 105.76L218.884 104.41ZM212.561 78.8907C212.561 69.1605 214.684 60.7263 218.884 53.5422L216.574 52.192C212.1 59.8459 209.886 68.7608 209.886 78.8907H212.561ZM218.876 53.5553C223.204 46.3418 229.018 40.807 236.332 36.928L235.079 34.5647C227.328 38.6753 221.157 44.5544 216.582 52.1789L218.876 53.5553ZM236.325 36.9319C243.761 33.0476 252.162 31.0916 261.558 31.0916V28.4165C251.779 28.4165 242.945 30.4554 235.086 34.5608L236.325 36.9319ZM261.558 31.0916C270.955 31.0916 279.295 33.0477 286.613 36.928L287.866 34.5647C280.117 30.4553 271.337 28.4165 261.558 28.4165V31.0916ZM286.62 36.9319C294.045 40.8108 299.852 46.3412 304.061 53.5422L306.371 52.192C301.906 44.555 295.728 38.6716 287.859 34.5608L286.62 36.9319ZM304.069 53.5553C308.378 60.7372 310.556 69.1666 310.556 78.8907H313.231C313.231 68.7547 310.957 59.835 306.363 52.1789L304.069 53.5553ZM310.556 78.8907C310.556 88.6143 308.378 97.1045 304.065 104.405L306.368 105.766C310.957 98 313.231 89.0271 313.231 78.8907H310.556ZM304.061 104.41C299.852 111.611 294.045 117.142 286.62 121.021L287.859 123.392C295.728 119.281 301.906 113.398 306.371 105.76L304.061 104.41ZM286.62 121.021C279.184 124.905 270.783 126.861 261.387 126.861V129.536C271.166 129.536 280 127.497 287.859 123.392L286.62 121.021ZM261.387 100.431C266.439 100.431 270.683 98.5628 274.023 94.8517L272.035 93.0621C269.211 96.1994 265.694 97.7556 261.387 97.7556V100.431ZM274.022 94.8535C277.51 90.9919 279.16 85.6059 279.16 78.8907H276.485C276.485 85.1871 274.94 89.8454 272.036 93.0604L274.022 94.8535ZM279.16 78.8907C279.16 72.1787 277.511 66.8372 274.007 63.083L272.051 64.9082C274.939 68.0023 276.485 72.5908 276.485 78.8907H279.16ZM274.023 63.1008C270.69 59.3977 266.507 57.5218 261.558 57.5218V60.1969C265.741 60.1969 269.204 61.7452 272.035 64.8904L274.023 63.1008ZM261.558 57.5218C256.61 57.5218 252.426 59.3977 249.093 63.1008L251.081 64.8904C253.912 61.7452 257.376 60.1969 261.558 60.1969V57.5218ZM249.093 63.1008C245.714 66.8556 244.127 72.19 244.127 78.8907H246.802C246.802 72.5795 248.297 67.9839 251.081 64.8904L249.093 63.1008ZM244.127 78.8907C244.127 85.6874 245.648 91.0747 248.905 94.8329L250.927 93.0809C248.249 89.9908 246.802 85.334 246.802 78.8907H244.127ZM248.905 94.8329C252.136 98.5611 256.334 100.431 261.387 100.431V97.7556C257.081 97.7556 253.631 96.2011 250.927 93.0809L248.905 94.8329ZM359.102 47.9021H357.765V52.2086L360.205 48.6599L359.102 47.9021ZM390.091 30.0965H391.428V28.7589H390.091V30.0965ZM390.091 65.8789V67.2164H391.428V65.8789H390.091ZM364.41 70.1591L365.249 71.2002L364.41 70.1591ZM359.102 127V128.338H360.44V127H359.102ZM325.546 127H324.208V128.338H325.546V127ZM325.546 30.9525V29.615H324.208V30.9525H325.546ZM359.102 30.9525H360.44V29.615H359.102V30.9525ZM360.205 48.6599C363.869 43.3298 368.295 39.1302 373.484 36.0394L372.114 33.7412C366.573 37.0422 361.869 41.5171 358 47.1443L360.205 48.6599ZM373.484 36.0394C378.644 32.9652 384.172 31.434 390.091 31.434V28.7589C383.683 28.7589 377.683 30.4237 372.114 33.7412L373.484 36.0394ZM388.753 30.0965V65.8789H391.428V30.0965H388.753ZM390.091 64.5413H380.674V67.2164H390.091V64.5413ZM380.674 64.5413C373.237 64.5413 367.453 65.9867 363.57 69.1179L365.249 71.2002C368.443 68.6245 373.502 67.2164 380.674 67.2164V64.5413ZM363.57 69.1179C359.575 72.3399 357.765 77.8001 357.765 85.0541H360.44C360.44 78.155 362.168 73.6852 365.249 71.2002L363.57 69.1179ZM357.765 85.0541V127H360.44V85.0541H357.765ZM359.102 125.662H325.546V128.338H359.102V125.662ZM326.883 127V30.9525H324.208V127H326.883ZM325.546 32.2901H359.102V29.615H325.546V32.2901ZM357.765 30.9525V47.9021H360.44V30.9525H357.765ZM493.375 85.739V87.0765H494.549L494.701 85.912L493.375 85.739ZM429.857 85.739V84.4014H428.429L428.522 85.826L429.857 85.739ZM434.137 97.5523L433.17 98.4768L433.191 98.4983L433.212 98.5189L434.137 97.5523ZM456.051 93.7857V92.4482H455.208L454.844 93.2096L456.051 93.7857ZM491.834 93.7857L493.139 94.0783L493.504 92.4482H491.834V93.7857ZM483.102 111.591L482.071 110.739L482.069 110.742L483.102 111.591ZM467.009 123.747L467.564 124.964L467.009 123.747ZM420.098 122.206L419.456 123.38L419.464 123.384L420.098 122.206ZM402.806 105.085L401.636 105.733L401.639 105.74L401.643 105.747L402.806 105.085ZM402.806 52.8671L403.972 53.5229L403.976 53.5151L402.806 52.8671ZM419.927 35.7463L419.292 34.5686L419.285 34.5728L419.927 35.7463ZM470.604 35.5751L471.232 34.3939V34.3939L470.604 35.5751ZM487.725 52.3535L486.559 53.0092L486.563 53.0171L487.725 52.3535ZM459.647 69.4742V70.8118H460.984V69.4742H459.647ZM455.538 59.8866L454.657 60.8932L454.669 60.9038L454.681 60.9142L455.538 59.8866ZM435.164 59.7154L436.016 60.7466L436.029 60.7358L436.042 60.7247L435.164 59.7154ZM430.028 69.4742L428.712 69.2319L428.421 70.8118H430.028V69.4742ZM492.551 77.8634C492.551 80.4303 492.383 82.9977 492.048 85.566L494.701 85.912C495.051 83.2299 495.226 80.5469 495.226 77.8634H492.551ZM493.375 84.4014H429.857V87.0765H493.375V84.4014ZM428.522 85.826C428.876 91.2527 430.363 95.5416 433.17 98.4768L435.103 96.6277C432.889 94.3126 431.522 90.726 431.191 85.6519L428.522 85.826ZM433.212 98.5189C436.112 101.293 439.765 102.656 444.067 102.656V99.9813C440.379 99.9813 437.412 98.834 435.061 96.5857L433.212 98.5189ZM444.067 102.656C447.068 102.656 449.722 101.981 451.969 100.568C454.217 99.1551 455.971 97.0599 457.258 94.3618L454.844 93.2096C453.735 95.5337 452.293 97.205 450.546 98.3031C448.798 99.4015 446.659 99.9813 444.067 99.9813V102.656ZM456.051 95.1233H491.834V92.4482H456.051V95.1233ZM490.529 93.4932C489.091 99.907 486.275 105.651 482.071 110.739L484.133 112.443C488.604 107.031 491.609 100.905 493.139 94.0783L490.529 93.4932ZM482.069 110.742C477.985 115.709 472.788 119.641 466.454 122.53L467.564 124.964C474.241 121.918 479.773 117.746 484.135 112.441L482.069 110.742ZM466.454 122.53C460.139 125.41 453.14 126.861 445.436 126.861V129.536C453.484 129.536 460.867 128.019 467.564 124.964L466.454 122.53ZM445.436 126.861C436.156 126.861 427.933 124.906 420.732 121.029L419.464 123.384C427.101 127.496 435.77 129.536 445.436 129.536V126.861ZM420.74 121.033C413.658 117.16 408.072 111.633 403.968 104.424L401.643 105.747C405.986 113.376 411.928 119.263 419.456 123.38L420.74 121.033ZM403.976 104.437C399.995 97.2504 397.98 88.75 397.98 78.8907H395.305C395.305 89.1197 397.398 98.0825 401.636 105.733L403.976 104.437ZM397.98 78.8907C397.98 69.0306 399.996 60.5912 403.972 53.5229L401.64 52.2113C397.398 59.7527 395.305 68.6623 395.305 78.8907H397.98ZM403.976 53.5151C407.964 46.3135 413.49 40.7908 420.568 36.9199L419.285 34.5728C411.753 38.6916 405.865 44.5827 401.636 52.2191L403.976 53.5151ZM420.561 36.924C427.759 33.0478 436.039 31.0916 445.436 31.0916V28.4165C435.658 28.4165 426.932 30.4552 419.292 34.5686L420.561 36.924ZM445.436 31.0916C454.723 31.0916 462.891 32.9924 469.976 36.7563L471.232 34.3939C463.707 30.3965 455.097 28.4165 445.436 28.4165V31.0916ZM469.976 36.7563C477.052 40.5153 482.574 45.9243 486.559 53.0092L488.891 51.6977C484.658 44.173 478.766 38.3964 471.232 34.3939L469.976 36.7563ZM486.563 53.0171C490.537 59.9712 492.551 68.237 492.551 77.8634H495.226C495.226 67.858 493.13 59.1172 488.886 51.6899L486.563 53.0171ZM460.984 69.4742C460.984 65.0359 459.487 61.4363 456.394 58.8591L454.681 60.9142C457.067 62.9025 458.309 65.6947 458.309 69.4742H460.984ZM456.418 58.88C453.404 56.2421 449.654 54.9537 445.265 54.9537V57.6288C449.095 57.6288 452.193 58.7373 454.657 60.8932L456.418 58.88ZM445.265 54.9537C440.895 54.9537 437.198 56.1745 434.286 58.7061L436.042 60.7247C438.381 58.6908 441.417 57.6288 445.265 57.6288V54.9537ZM434.312 58.6842C431.38 61.106 429.551 64.6783 428.712 69.2319L431.343 69.7166C432.102 65.5957 433.697 62.6621 436.016 60.7466L434.312 58.6842ZM430.028 70.8118H459.647V68.1367H430.028V70.8118ZM526.454 122.206L525.827 123.388L525.834 123.392L526.454 122.206ZM508.648 105.085L509.803 104.41L508.648 105.085ZM508.648 52.8671L507.501 52.1789L507.497 52.1855L507.493 52.192L508.648 52.8671ZM526.625 35.7463L526.006 34.5608L525.998 34.5647L526.625 35.7463ZM578.159 35.7463L577.532 36.928L577.539 36.9319L578.159 35.7463ZM596.135 52.8671L594.981 53.5422L594.984 53.5487L594.988 53.5553L596.135 52.8671ZM596.135 105.085L594.984 104.405L594.981 104.41L596.135 105.085ZM578.159 122.206L577.539 121.021L578.159 122.206ZM563.948 93.9569L562.956 93.0604L562.954 93.0621L563.948 93.9569ZM563.948 63.9956L562.954 64.8904L562.962 64.8994L562.97 64.9082L563.948 63.9956ZM540.835 93.9569L539.824 94.8329V94.8329L540.835 93.9569ZM552.306 126.861C542.91 126.861 534.509 124.905 527.073 121.021L525.834 123.392C533.693 127.497 542.527 129.536 552.306 129.536V126.861ZM527.08 121.025C519.769 117.147 514.016 111.616 509.803 104.41L507.493 105.76C511.955 113.392 518.073 119.276 525.827 123.388L527.08 121.025ZM509.803 104.41C505.604 97.2285 503.48 88.738 503.48 78.8907H500.805C500.805 89.1316 503.018 98.1044 507.493 105.76L509.803 104.41ZM503.48 78.8907C503.48 69.1605 505.603 60.7263 509.803 53.5422L507.493 52.192C503.019 59.8459 500.805 68.7608 500.805 78.8907H503.48ZM509.795 53.5553C514.123 46.3418 519.937 40.807 527.252 36.928L525.998 34.5647C518.247 38.6753 512.076 44.5544 507.501 52.1789L509.795 53.5553ZM527.244 36.9319C534.68 33.0476 543.081 31.0916 552.477 31.0916V28.4165C542.698 28.4165 533.865 30.4554 526.006 34.5608L527.244 36.9319ZM552.477 31.0916C561.874 31.0916 570.215 33.0477 577.532 36.928L578.785 34.5647C571.036 30.4553 562.256 28.4165 552.477 28.4165V31.0916ZM577.539 36.9319C584.964 40.8108 590.771 46.3412 594.981 53.5422L597.29 52.192C592.825 44.555 586.647 38.6716 578.778 34.5608L577.539 36.9319ZM594.988 53.5553C599.297 60.7372 601.475 69.1666 601.475 78.8907H604.15C604.15 68.7547 601.876 59.835 597.282 52.1789L594.988 53.5553ZM601.475 78.8907C601.475 88.6143 599.298 97.1045 594.984 104.405L597.287 105.766C601.876 98 604.15 89.0271 604.15 78.8907H601.475ZM594.981 104.41C590.771 111.611 584.964 117.142 577.539 121.021L578.778 123.392C586.647 119.281 592.825 113.398 597.29 105.76L594.981 104.41ZM577.539 121.021C570.104 124.905 561.702 126.861 552.306 126.861V129.536C562.085 129.536 570.919 127.497 578.778 123.392L577.539 121.021ZM552.306 100.431C557.358 100.431 561.603 98.5628 564.942 94.8517L562.954 93.0621C560.131 96.1994 556.613 97.7556 552.306 97.7556V100.431ZM564.941 94.8535C568.429 90.9919 570.08 85.6059 570.08 78.8907H567.405C567.405 85.1871 565.859 89.8454 562.956 93.0604L564.941 94.8535ZM570.08 78.8907C570.08 72.1787 568.43 66.8372 564.926 63.083L562.97 64.9082C565.858 68.0023 567.405 72.5908 567.405 78.8907H570.08ZM564.942 63.1008C561.61 59.3977 557.426 57.5218 552.477 57.5218V60.1969C556.66 60.1969 560.123 61.7452 562.954 64.8904L564.942 63.1008ZM552.477 57.5218C547.529 57.5218 543.345 59.3977 540.012 63.1008L542.001 64.8904C544.831 61.7452 548.295 60.1969 552.477 60.1969V57.5218ZM540.012 63.1008C536.633 66.8556 535.046 72.19 535.046 78.8907H537.721C537.721 72.5795 539.216 67.9839 542.001 64.8904L540.012 63.1008ZM535.046 78.8907C535.046 85.6874 536.567 91.0747 539.824 94.8329L541.846 93.0809C539.168 89.9908 537.721 85.334 537.721 78.8907H535.046ZM539.824 94.8329C543.055 98.5611 547.253 100.431 552.306 100.431V97.7556C548 97.7556 544.55 96.2011 541.846 93.0809L539.824 94.8329ZM668.854 33.6918L668.212 34.8651L668.224 34.8713L668.854 33.6918ZM680.154 44.3067L679.002 44.9862L681.492 49.2078V44.3067H680.154ZM680.154 30.9525V29.615H678.817V30.9525H680.154ZM713.711 30.9525H715.048V29.615H713.711V30.9525ZM708.575 150.284L707.367 149.709L707.363 149.717L708.575 150.284ZM692.481 167.747L691.798 166.597L691.79 166.602L692.481 167.747ZM629.477 163.81L630.301 162.756L629.477 163.81ZM614.239 135.389V134.052H612.754L612.909 135.529L614.239 135.389ZM647.282 135.389L648.588 135.099L648.355 134.052H647.282V135.389ZM652.418 142.58L651.71 143.714L652.418 142.58ZM680.154 113.646H681.492V108.745L679.002 112.966L680.154 113.646ZM668.854 124.261L668.223 123.081L668.212 123.088L668.854 124.261ZM631.017 122.206L630.29 123.329L630.299 123.335L631.017 122.206ZM616.294 105.085L615.083 105.654L615.088 105.665L615.094 105.676L616.294 105.085ZM616.294 52.8671L615.094 52.2763L615.09 52.2838L615.086 52.2913L616.294 52.8671ZM631.017 35.7463L630.299 34.6178L630.29 34.6239L631.017 35.7463ZM675.018 64.338L674.041 65.2518L674.049 65.26L674.057 65.2682L675.018 64.338ZM650.193 64.338L651.154 65.2676L651.162 65.2598L651.169 65.2518L650.193 64.338ZM650.193 93.6145L649.202 94.5127L649.209 94.5206L649.216 94.5283L650.193 93.6145ZM675.018 93.6145L674.057 92.6843L674.049 92.6925L674.041 92.7007L675.018 93.6145ZM651.905 31.0916C658.229 31.0916 663.649 32.3665 668.212 34.865L669.497 32.5187C664.472 29.7668 658.593 28.4165 651.905 28.4165V31.0916ZM668.224 34.8713C672.932 37.39 676.511 40.7624 679.002 44.9862L681.306 43.6273C678.547 38.9483 674.592 35.244 669.485 32.5124L668.224 34.8713ZM681.492 44.3067V30.9525H678.817V44.3067H681.492ZM680.154 32.2901H713.711V29.615H680.154V32.2901ZM712.373 30.9525V125.973H715.048V30.9525H712.373ZM712.373 125.973C712.373 134.817 710.695 142.72 707.367 149.709L709.782 150.859C713.302 143.467 715.048 135.162 715.048 125.973H712.373ZM707.363 149.717C704.059 156.765 698.885 162.389 691.798 166.597L693.164 168.898C700.686 164.431 706.242 158.413 709.786 150.852L707.363 149.717ZM691.79 166.602C684.864 170.78 675.991 172.916 665.088 172.916V175.591C676.327 175.591 685.716 173.39 693.172 168.893L691.79 166.602ZM665.088 172.916C650.455 172.916 638.904 169.484 630.301 162.756L628.653 164.863C637.855 172.06 650.045 175.591 665.088 175.591V172.916ZM630.301 162.756C621.704 156.033 616.79 146.9 615.569 135.25L612.909 135.529C614.199 147.847 619.444 157.661 628.653 164.863L630.301 162.756ZM614.239 136.727H647.282V134.052H614.239V136.727ZM645.977 135.679C646.741 139.12 648.674 141.817 651.71 143.714L653.127 141.446C650.684 139.919 649.193 137.822 648.588 135.099L645.977 135.679ZM651.71 143.714C654.723 145.597 658.529 146.486 663.033 146.486V143.81C658.863 143.81 655.593 142.987 653.127 141.446L651.71 143.714ZM663.033 146.486C668.988 146.486 673.687 144.811 676.872 141.245C680.03 137.708 681.492 132.536 681.492 125.973H678.817C678.817 132.193 677.425 136.609 674.876 139.463C672.353 142.289 668.492 143.81 663.033 143.81V146.486ZM681.492 125.973V113.646H678.817V125.973H681.492ZM679.002 112.966C676.511 117.19 672.932 120.562 668.224 123.081L669.485 125.44C674.592 122.708 678.547 119.004 681.306 114.325L679.002 112.966ZM668.212 123.088C663.649 125.586 658.229 126.861 651.905 126.861V129.536C658.593 129.536 664.472 128.186 669.497 125.434L668.212 123.088ZM651.905 126.861C644.504 126.861 637.792 124.932 631.736 121.078L630.299 123.335C636.798 127.47 644.011 129.536 651.905 129.536V126.861ZM631.745 121.084C625.809 117.236 621.053 111.725 617.494 104.495L615.094 105.676C618.839 113.284 623.899 119.186 630.29 123.329L631.745 121.084ZM617.504 104.517C614.064 97.1926 612.324 88.6616 612.324 78.8907H609.649C609.649 88.9798 611.446 97.912 615.083 105.654L617.504 104.517ZM612.324 78.8907C612.324 69.119 614.064 60.6485 617.501 53.4429L615.086 52.2913C611.446 59.9237 609.649 68.8022 609.649 78.8907H612.324ZM617.494 53.4579C621.053 46.2276 625.809 40.7163 631.745 36.8688L630.29 34.6239C623.899 38.766 618.839 44.6686 615.094 52.2763L617.494 53.4579ZM631.736 36.8748C637.792 33.0205 644.504 31.0916 651.905 31.0916V28.4165C644.011 28.4165 636.798 30.4825 630.299 34.6179L631.736 36.8748ZM681.492 78.8907C681.492 72.4718 679.702 67.2546 675.979 63.4078L674.057 65.2682C677.182 68.498 678.817 72.9825 678.817 78.8907H681.492ZM675.995 63.4242C672.428 59.6116 667.964 57.693 662.691 57.693V60.3681C667.234 60.3681 670.988 61.9878 674.041 65.2518L675.995 63.4242ZM662.691 57.693C657.314 57.693 652.789 59.6047 649.216 63.4242L651.169 65.2518C654.216 61.9948 658.024 60.3681 662.691 60.3681V57.693ZM649.231 63.4084C645.611 67.1533 643.89 72.38 643.89 78.8907H646.565C646.565 72.8461 648.154 68.371 651.154 65.2676L649.231 63.4084ZM643.89 78.8907C643.89 85.2996 645.617 90.5569 649.202 94.5127L651.184 92.7163C648.149 89.3673 646.565 84.8086 646.565 78.8907H643.89ZM649.216 94.5283C652.789 98.3479 657.314 100.26 662.691 100.26V97.5844C658.024 97.5844 654.216 95.9577 651.169 92.7007L649.216 94.5283ZM662.691 100.26C667.964 100.26 672.428 98.3409 675.995 94.5283L674.041 92.7007C670.988 95.9647 667.234 97.5844 662.691 97.5844V100.26ZM675.979 94.5447C679.706 90.6935 681.492 85.4158 681.492 78.8907H678.817C678.817 84.9208 677.178 89.459 674.057 92.6843L675.979 94.5447ZM766.389 47.9021H765.052V52.2086L767.491 48.6599L766.389 47.9021ZM797.378 30.0965H798.715V28.7589H797.378V30.0965ZM797.378 65.8789V67.2164H798.715V65.8789H797.378ZM771.697 70.1591L772.536 71.2002L771.697 70.1591ZM766.389 127V128.338H767.727V127H766.389ZM732.833 127H731.495V128.338H732.833V127ZM732.833 30.9525V29.615H731.495V30.9525H732.833ZM766.389 30.9525H767.727V29.615H766.389V30.9525ZM767.491 48.6599C771.156 43.3298 775.582 39.1302 780.77 36.0394L779.401 33.7412C773.86 37.0422 769.156 41.5171 765.287 47.1443L767.491 48.6599ZM780.77 36.0394C785.931 32.9652 791.459 31.434 797.378 31.434V28.7589C790.97 28.7589 784.97 30.4237 779.401 33.7412L780.77 36.0394ZM796.04 30.0965V65.8789H798.715V30.0965H796.04ZM797.378 64.5413H787.961V67.2164H797.378V64.5413ZM787.961 64.5413C780.524 64.5413 774.74 65.9867 770.857 69.1179L772.536 71.2002C775.73 68.6245 780.789 67.2164 787.961 67.2164V64.5413ZM770.857 69.1179C766.862 72.3399 765.052 77.8001 765.052 85.0541H767.727C767.727 78.155 769.455 73.6852 772.536 71.2002L770.857 69.1179ZM765.052 85.0541V127H767.727V85.0541H765.052ZM766.389 125.662H732.833V128.338H766.389V125.662ZM734.17 127V30.9525H731.495V127H734.17ZM732.833 32.2901H766.389V29.615H732.833V32.2901ZM765.052 30.9525V47.9021H767.727V30.9525H765.052ZM809.237 52.8671L808.036 52.2763L808.033 52.2838L808.029 52.2913L809.237 52.8671ZM823.96 35.7463L823.242 34.6178L823.233 34.6239L823.96 35.7463ZM861.969 33.6918L861.326 34.865L861.969 33.6918ZM873.097 44.3067L871.945 44.9862L874.435 49.2078V44.3067H873.097ZM873.097 30.9525V29.615H871.759V30.9525H873.097ZM906.654 30.9525H907.991V29.615H906.654V30.9525ZM906.654 127V128.338H907.991V127H906.654ZM873.097 127H871.759V128.338H873.097V127ZM873.097 113.646H874.435V108.745L871.945 112.966L873.097 113.646ZM861.797 124.261L861.166 123.081L861.155 123.088L861.797 124.261ZM823.96 122.206L823.233 123.329L823.242 123.335L823.96 122.206ZM809.237 105.085L808.026 105.654L808.031 105.665L808.036 105.676L809.237 105.085ZM867.961 64.338L866.984 65.2518L866.992 65.26L867 65.2682L867.961 64.338ZM843.136 64.338L844.097 65.2676L844.105 65.2598L844.112 65.2518L843.136 64.338ZM843.136 93.6145L842.145 94.5127L842.152 94.5206L842.159 94.5283L843.136 93.6145ZM867.961 93.6145L867 92.6843L866.992 92.6925L866.984 92.7007L867.961 93.6145ZM805.267 78.8907C805.267 69.119 807.007 60.6485 810.444 53.4429L808.029 52.2913C804.389 59.9237 802.592 68.8022 802.592 78.8907H805.267ZM810.437 53.4579C813.996 46.2276 818.752 40.7163 824.688 36.8688L823.233 34.6239C816.842 38.766 811.782 44.6686 808.036 52.2763L810.437 53.4579ZM824.679 36.8748C830.735 33.0205 837.447 31.0916 844.848 31.0916V28.4165C836.954 28.4165 829.741 30.4825 823.242 34.6179L824.679 36.8748ZM844.848 31.0916C851.29 31.0916 856.767 32.3683 861.326 34.865L862.611 32.5187C857.583 29.7651 851.645 28.4165 844.848 28.4165V31.0916ZM861.326 34.865C865.921 37.3815 869.449 40.7543 871.945 44.9862L874.249 43.6273C871.494 38.9563 867.603 35.2526 862.611 32.5187L861.326 34.865ZM874.435 44.3067V30.9525H871.759V44.3067H874.435ZM873.097 32.2901H906.654V29.615H873.097V32.2901ZM905.316 30.9525V127H907.991V30.9525H905.316ZM906.654 125.662H873.097V128.338H906.654V125.662ZM874.435 127V113.646H871.759V127H874.435ZM871.945 112.966C869.454 117.19 865.875 120.562 861.166 123.081L862.428 125.44C867.535 122.708 871.49 119.004 874.249 114.325L871.945 112.966ZM861.155 123.088C856.592 125.586 851.172 126.861 844.848 126.861V129.536C851.535 129.536 857.415 128.186 862.44 125.434L861.155 123.088ZM844.848 126.861C837.447 126.861 830.735 124.932 824.679 121.078L823.242 123.335C829.741 127.47 836.954 129.536 844.848 129.536V126.861ZM824.688 121.084C818.752 117.236 813.996 111.725 810.437 104.495L808.036 105.676C811.782 113.284 816.842 119.186 823.233 123.329L824.688 121.084ZM810.447 104.517C807.007 97.1926 805.267 88.6616 805.267 78.8907H802.592C802.592 88.9798 804.389 97.912 808.026 105.654L810.447 104.517ZM874.435 78.8907C874.435 72.4718 872.645 67.2546 868.922 63.4078L867 65.2682C870.125 68.498 871.759 72.9825 871.759 78.8907H874.435ZM868.938 63.4242C865.371 59.6116 860.907 57.693 855.634 57.693V60.3681C860.177 60.3681 863.931 61.9878 866.984 65.2518L868.938 63.4242ZM855.634 57.693C850.257 57.693 845.732 59.6047 842.159 63.4242L844.112 65.2518C847.159 61.9948 850.967 60.3681 855.634 60.3681V57.693ZM842.174 63.4084C838.554 67.1533 836.833 72.38 836.833 78.8907H839.508C839.508 72.8461 841.097 68.371 844.097 65.2676L842.174 63.4084ZM836.833 78.8907C836.833 85.2996 838.56 90.5569 842.145 94.5127L844.127 92.7163C841.092 89.3673 839.508 84.8086 839.508 78.8907H836.833ZM842.159 94.5283C845.732 98.3479 850.257 100.26 855.634 100.26V97.5844C850.967 97.5844 847.159 95.9577 844.112 92.7007L842.159 94.5283ZM855.634 100.26C860.907 100.26 865.371 98.3409 868.938 94.5283L866.984 92.7007C863.931 95.9647 860.177 97.5844 855.634 97.5844V100.26ZM868.922 94.5447C872.649 90.6935 874.435 85.4158 874.435 78.8907H871.759C871.759 84.9208 870.121 89.459 867 92.6843L868.922 94.5447ZM959.332 44.3067H957.995V49.2078L960.484 44.9862L959.332 44.3067ZM970.461 33.6918L969.818 32.5187V32.5187L970.461 33.6918ZM1008.13 35.7463L1007.4 36.8688L1007.41 36.8748L1008.13 35.7463ZM1022.85 52.8671L1021.64 53.4429L1021.65 53.4504L1021.65 53.4579L1022.85 52.8671ZM1022.85 105.085L1021.65 104.502L1021.64 104.51L1022.85 105.085ZM1008.13 122.206L1007.41 121.078L1007.4 121.084L1008.13 122.206ZM970.461 124.261L969.806 125.427L969.818 125.434L970.461 124.261ZM959.332 113.646L960.471 112.945L957.995 108.92V113.646H959.332ZM959.332 172.884V174.221H960.67V172.884H959.332ZM925.775 172.884H924.438V174.221H925.775V172.884ZM925.775 30.9525V29.615H924.438V30.9525H925.775ZM959.332 30.9525H960.67V29.615H959.332V30.9525ZM989.122 64.338L988.146 65.2518L988.161 65.2681L988.177 65.2838L989.122 64.338ZM964.297 64.338L963.336 63.4078L963.328 63.416L963.32 63.4242L964.297 64.338ZM964.297 93.6145L963.32 94.5283L963.328 94.5365L963.336 94.5447L964.297 93.6145ZM989.122 93.6145L988.146 92.6997L988.146 92.7007L989.122 93.6145ZM960.484 44.9862C962.98 40.7543 966.508 37.3815 971.103 34.865L969.818 32.5187C964.826 35.2526 960.935 38.9563 958.18 43.6273L960.484 44.9862ZM971.103 34.865C975.666 32.3665 981.086 31.0916 987.41 31.0916V28.4165C980.722 28.4165 974.843 29.7668 969.818 32.5187L971.103 34.865ZM987.41 31.0916C994.81 31.0916 1001.46 33.0203 1007.4 36.8688L1008.85 34.6239C1002.46 30.4827 995.304 28.4165 987.41 28.4165V31.0916ZM1007.41 36.8748C1013.45 40.7211 1018.2 46.2258 1021.64 53.4429L1024.06 52.2913C1020.42 44.6704 1015.36 38.7613 1008.84 34.6179L1007.41 36.8748ZM1021.65 53.4579C1025.2 60.6598 1026.99 69.1248 1026.99 78.8907H1029.67C1029.67 68.7964 1027.81 59.9124 1024.05 52.2763L1021.65 53.4579ZM1026.99 78.8907C1026.99 88.6559 1025.2 97.1815 1021.65 104.502L1024.05 105.669C1027.81 97.9231 1029.67 88.9855 1029.67 78.8907H1026.99ZM1021.64 104.51C1018.2 111.727 1013.45 117.231 1007.41 121.078L1008.84 123.335C1015.36 119.191 1020.42 113.282 1024.06 105.661L1021.64 104.51ZM1007.4 121.084C1001.46 124.932 994.81 126.861 987.41 126.861V129.536C995.304 129.536 1002.46 127.47 1008.85 123.329L1007.4 121.084ZM987.41 126.861C981.086 126.861 975.666 125.586 971.103 123.088L969.818 125.434C974.843 128.186 980.722 129.536 987.41 129.536V126.861ZM971.115 123.094C966.628 120.577 963.088 117.197 960.471 112.945L958.193 114.347C961.055 118.997 964.933 122.694 969.806 125.427L971.115 123.094ZM957.995 113.646V172.884H960.67V113.646H957.995ZM959.332 171.546H925.775V174.221H959.332V171.546ZM927.113 172.884V30.9525H924.438V172.884H927.113ZM925.775 32.2901H959.332V29.615H925.775V32.2901ZM957.995 30.9525V44.3067H960.67V30.9525H957.995ZM995.596 78.8907C995.596 72.368 993.811 67.1354 990.068 63.3922L988.177 65.2838C991.282 68.3889 992.921 72.8581 992.921 78.8907H995.596ZM990.099 63.4242C986.532 59.6116 982.068 57.693 976.795 57.693V60.3681C981.339 60.3681 985.092 61.9878 988.146 65.2518L990.099 63.4242ZM976.795 57.693C971.524 57.693 967.011 59.6101 963.336 63.4078L965.258 65.2682C968.431 61.9893 972.251 60.3681 976.795 60.3681V57.693ZM963.32 63.4242C959.72 67.2725 957.995 72.4838 957.995 78.8907H960.67C960.67 72.9705 962.254 68.4801 965.274 65.2518L963.32 63.4242ZM957.995 78.8907C957.995 85.404 959.716 90.6757 963.32 94.5283L965.274 92.7007C962.258 89.4768 960.67 84.9326 960.67 78.8907H957.995ZM963.336 94.5447C967.011 98.3424 971.524 100.26 976.795 100.26V97.5844C972.251 97.5844 968.431 95.9632 965.258 92.6843L963.336 94.5447ZM976.795 100.26C982.068 100.26 986.532 98.3409 990.099 94.5283L988.146 92.7007C985.092 95.9647 981.339 97.5844 976.795 97.5844V100.26ZM990.098 94.5293C993.806 90.5747 995.596 85.3114 995.596 78.8907H992.921C992.921 84.7969 991.287 89.3495 988.146 92.6997L990.098 94.5293ZM1131.34 41.225L1130.33 42.098L1130.34 42.1064L1130.34 42.1146L1131.34 41.225ZM1141.1 127V128.338H1142.44V127H1141.1ZM1107.54 127H1106.21V128.338H1107.54V127ZM1103.26 62.6259L1102.27 63.5168L1102.27 63.5258L1102.28 63.5347L1103.26 62.6259ZM1079.98 62.6259L1080.96 63.5347L1080.97 63.5258L1080.98 63.5168L1079.98 62.6259ZM1075.7 127V128.338H1077.04V127H1075.7ZM1042.14 127H1040.81V128.338H1042.14V127ZM1042.14 0.306366V-1.03119H1040.81V0.306366H1042.14ZM1075.7 0.306366H1077.04V-1.03119H1075.7V0.306366ZM1075.7 44.6491H1074.36V48.9727L1076.8 45.4044L1075.7 44.6491ZM1087.68 34.2055L1088.3 35.3909L1088.31 35.3857L1087.68 34.2055ZM1105.32 31.434C1115.94 31.434 1124.22 35.0111 1130.33 42.098L1132.36 40.3519C1125.68 32.6009 1116.61 28.7589 1105.32 28.7589V31.434ZM1130.34 42.1146C1136.57 49.1114 1139.76 58.6922 1139.76 71.0151H1142.44C1142.44 58.2275 1139.12 47.9483 1132.34 40.3354L1130.34 42.1146ZM1139.76 71.0151V127H1142.44V71.0151H1139.76ZM1141.1 125.662H1107.54V128.338H1141.1V125.662ZM1108.88 127V75.4665H1106.21V127H1108.88ZM1108.88 75.4665C1108.88 69.7565 1107.39 65.114 1104.25 61.7172L1102.28 63.5347C1104.84 66.3013 1106.21 70.2193 1106.21 75.4665H1108.88ZM1104.26 61.7351C1101.12 58.2194 1096.92 56.4946 1091.79 56.4946V59.1697C1096.26 59.1697 1099.7 60.6407 1102.27 63.5168L1104.26 61.7351ZM1091.79 56.4946C1086.46 56.4946 1082.13 58.2054 1078.98 61.7351L1080.98 63.5168C1083.53 60.6548 1087.08 59.1697 1091.79 59.1697V56.4946ZM1079 61.7172C1075.85 65.114 1074.36 69.7565 1074.36 75.4665H1077.04C1077.04 70.2193 1078.4 66.3013 1080.96 63.5347L1079 61.7172ZM1074.36 75.4665V127H1077.04V75.4665H1074.36ZM1075.7 125.662H1042.14V128.338H1075.7V125.662ZM1043.48 127V0.306366H1040.81V127H1043.48ZM1042.14 1.64392H1075.7V-1.03119H1042.14V1.64392ZM1074.36 0.306366V44.6491H1077.04V0.306366H1074.36ZM1076.8 45.4044C1079.64 41.262 1083.46 37.9227 1088.3 35.3908L1087.06 33.0201C1081.86 35.7386 1077.7 39.3617 1074.6 43.8938L1076.8 45.4044ZM1088.31 35.3857C1093.23 32.7631 1098.89 31.434 1105.32 31.434V28.7589C1098.51 28.7589 1092.41 30.1692 1087.05 33.0253L1088.31 35.3857ZM1262.92 30.9525L1264.15 31.4808L1264.95 29.615H1262.92V30.9525ZM1201.97 172.712V174.05H1202.85L1203.2 173.241L1201.97 172.712ZM1165.51 172.712L1164.29 172.153L1163.42 174.05H1165.51V172.712ZM1188.45 122.891L1189.66 123.45L1189.91 122.911L1189.68 122.364L1188.45 122.891ZM1149.07 30.9525V29.615H1147.04L1147.84 31.4791L1149.07 30.9525ZM1186.39 30.9525L1187.65 30.4872L1187.32 29.615H1186.39V30.9525ZM1206.6 85.3965L1205.34 85.8619L1206.62 89.2997L1207.86 85.8479L1206.6 85.3965ZM1226.11 30.9525V29.615H1225.17L1224.85 30.5011L1226.11 30.9525ZM1261.69 30.4242L1200.74 172.184L1203.2 173.241L1264.15 31.4808L1261.69 30.4242ZM1201.97 171.375H1165.51V174.05H1201.97V171.375ZM1166.72 173.272L1189.66 123.45L1187.23 122.332L1164.29 172.153L1166.72 173.272ZM1189.68 122.364L1150.3 30.4259L1147.84 31.4791L1187.22 123.418L1189.68 122.364ZM1149.07 32.2901H1186.39V29.615H1149.07V32.2901ZM1185.14 31.4178L1205.34 85.8619L1207.85 84.9312L1187.65 30.4872L1185.14 31.4178ZM1207.86 85.8479L1227.37 31.4039L1224.85 30.5011L1205.34 84.9452L1207.86 85.8479ZM1226.11 32.2901H1262.92V29.615H1226.11V32.2901Z" fill="#ECECEC" mask="url(#path-1-outside-1_254_281)"/>
</g>
</svg>
