<svg width="658" height="125" viewBox="0 0 658 125" fill="none" xmlns="http://www.w3.org/2000/svg">
<g opacity="0.14">
<mask id="path-1-outside-1_289_75" maskUnits="userSpaceOnUse" x="-32" y="-1" width="691" height="127" fill="black">
<rect fill="white" x="-32" y="-1" width="691" height="127"/>
<path d="M17.3546 2.29863C30.0239 2.29863 41.0953 4.86674 50.5688 10.003C60.1565 15.0251 67.5184 22.1016 72.6546 31.2327C77.7908 40.3638 80.359 50.8075 80.359 62.5637C80.359 74.2058 77.7338 84.5924 72.4834 93.7235C67.3472 102.855 59.9853 110.045 50.3976 115.296C40.9241 120.432 29.9098 123 17.3546 123H-30.4124V2.29863H17.3546ZM14.7864 93.3811C24.6023 93.3811 32.3067 90.6988 37.8995 85.3343C43.4922 79.9698 46.2886 72.3796 46.2886 62.5637C46.2886 52.6337 43.4922 44.9864 37.8995 39.6219C32.3067 34.1432 24.6023 31.4039 14.7864 31.4039H3.14432V93.3811H14.7864ZM129.042 29.1782V48.8671H167.564V74.377H129.042V96.1204H172.7V123H95.4854V2.29863H172.7V29.1782H129.042ZM185.173 62.3925C185.173 50.5221 187.627 39.9643 192.535 30.7191C197.557 21.3597 204.633 14.112 213.764 8.97573C222.896 3.72536 233.396 1.10018 245.267 1.10018C260.333 1.10018 273.002 5.15209 283.275 13.2559C293.547 21.2456 300.167 32.1458 303.135 45.9566H267.01C264.841 41.391 261.817 37.9098 257.936 35.5129C254.169 33.116 249.775 31.9176 244.753 31.9176C236.992 31.9176 230.771 34.7139 226.091 40.3067C221.526 45.7854 219.243 53.1473 219.243 62.3925C219.243 71.7519 221.526 79.2279 226.091 84.8207C230.771 90.2993 236.992 93.0387 244.753 93.0387C249.775 93.0387 254.169 91.8402 257.936 89.4433C261.817 87.0464 264.841 83.5652 267.01 78.9996H303.135C300.167 92.8104 293.547 103.768 283.275 111.872C273.002 119.861 260.333 123.856 245.267 123.856C233.396 123.856 222.896 121.288 213.764 116.152C204.633 110.901 197.557 103.654 192.535 94.4083C187.627 85.049 185.173 74.377 185.173 62.3925ZM376.893 124.198C365.594 124.198 355.207 121.573 345.733 116.323C336.26 110.958 328.727 103.596 323.134 94.2371C317.655 84.7636 314.916 74.0917 314.916 62.2213C314.916 50.3509 317.655 39.736 323.134 30.3767C328.727 20.9032 336.26 13.5413 345.733 8.2909C355.207 3.04053 365.594 0.415347 376.893 0.415347C388.307 0.415347 398.694 3.04053 408.053 8.2909C417.526 13.5413 425.003 20.9032 430.481 30.3767C435.96 39.736 438.699 50.3509 438.699 62.2213C438.699 74.0917 435.96 84.7636 430.481 94.2371C425.003 103.596 417.526 110.958 408.053 116.323C398.58 121.573 388.193 124.198 376.893 124.198ZM376.893 93.0387C385.454 93.0387 392.188 90.2423 397.096 84.6495C402.118 79.0567 404.629 71.5806 404.629 62.2213C404.629 52.6337 402.118 45.1005 397.096 39.6219C392.188 34.0291 385.454 31.2327 376.893 31.2327C368.219 31.2327 361.427 34.0291 356.52 39.6219C351.612 45.1005 349.158 52.6337 349.158 62.2213C349.158 71.6948 351.612 79.2279 356.52 84.8207C361.427 90.2993 368.219 93.0387 376.893 93.0387ZM514.905 123L490.936 78.486H487.341V123H453.784V2.29863H506.687C516.389 2.29863 524.607 4.0107 531.341 7.43486C538.075 10.7449 543.155 15.3675 546.579 21.3027C550.003 27.1237 551.715 33.6867 551.715 40.9915C551.715 49.2095 549.432 56.4573 544.867 62.7349C540.415 68.8984 533.852 73.2927 525.178 75.9179L552.4 123H514.905ZM487.341 55.5442H503.948C508.514 55.5442 511.938 54.4599 514.22 52.2913C516.503 50.1226 517.645 46.9838 517.645 42.8748C517.645 38.9941 516.446 35.9695 514.049 33.8008C511.766 31.5181 508.399 30.3767 503.948 30.3767H487.341V55.5442ZM612.516 124.198C598.477 124.198 586.949 120.888 577.932 114.268C568.915 107.534 564.065 97.9466 563.38 85.5055H599.162C599.505 89.7287 600.76 92.8104 602.929 94.7507C605.097 96.6911 607.894 97.6613 611.318 97.6613C614.4 97.6613 616.911 96.9194 618.851 95.4356C620.906 93.8376 621.933 91.669 621.933 88.9297C621.933 85.3914 620.278 82.6521 616.968 80.7117C613.658 78.7714 608.293 76.6027 600.874 74.2058C592.999 71.5806 586.607 69.0696 581.699 66.6727C576.905 64.1616 572.682 60.5663 569.03 55.8866C565.491 51.0928 563.722 44.8723 563.722 37.225C563.722 29.4636 565.663 22.8435 569.543 17.3649C573.424 11.7721 578.788 7.549 585.637 4.69553C592.485 1.84208 600.246 0.415347 608.921 0.415347C622.96 0.415347 634.146 3.72536 642.478 10.3454C650.924 16.8513 655.432 26.0394 656.003 37.9098H619.536C619.422 34.2574 618.28 31.5181 616.112 29.6918C614.057 27.8656 611.375 26.9525 608.065 26.9525C605.554 26.9525 603.499 27.6944 601.901 29.1782C600.304 30.662 599.505 32.7736 599.505 35.5129C599.505 37.7957 600.361 39.7931 602.073 41.5052C603.899 43.1031 606.125 44.5298 608.75 45.7854C611.375 46.9267 615.256 48.4105 620.392 50.2368C628.039 52.8619 634.317 55.4871 639.225 58.1123C644.247 60.6234 648.527 64.2187 652.065 68.8984C655.718 73.4639 657.544 79.285 657.544 86.3616C657.544 93.5523 655.718 100.001 652.065 105.708C648.527 111.415 643.334 115.923 636.485 119.233C629.751 122.543 621.762 124.198 612.516 124.198Z"/>
</mask>
<path d="M50.5688 10.003L49.9313 11.1788L49.9397 11.1834L49.9482 11.1878L50.5688 10.003ZM72.6546 31.2327L73.8204 30.577L72.6546 31.2327ZM72.4834 93.7235L71.3238 93.0567L71.3176 93.0677L72.4834 93.7235ZM50.3976 115.296L51.0351 116.472L51.0401 116.469L50.3976 115.296ZM-30.4124 123H-31.7499V124.338H-30.4124V123ZM-30.4124 2.29863V0.961067H-31.7499V2.29863H-30.4124ZM37.8995 39.6219L36.9634 40.5774L36.9736 40.5872L37.8995 39.6219ZM3.14432 31.4039V30.0664H1.80676V31.4039H3.14432ZM3.14432 93.3811H1.80676V94.7186H3.14432V93.3811ZM17.3545 3.63618C29.8405 3.63618 40.6853 6.16595 49.9313 11.1788L51.2063 8.82712C41.5053 3.56754 30.2074 0.961067 17.3545 0.961067V3.63618ZM49.9482 11.1878C59.3148 16.0941 66.4837 22.9905 71.4888 31.8885L73.8204 30.577C68.5531 21.2128 60.9981 13.956 51.1895 8.81812L49.9482 11.1878ZM71.4888 31.8885C76.4992 40.7958 79.0214 51.0086 79.0214 62.5637H81.6965C81.6965 50.6063 79.0825 39.9318 73.8204 30.577L71.4888 31.8885ZM79.0214 62.5637C79.0214 73.9971 76.4456 84.1494 71.3239 93.0568L73.6429 94.3902C79.0219 85.0355 81.6965 74.4146 81.6965 62.5637H79.0214ZM71.3176 93.0677C66.3095 101.971 59.1334 108.987 49.7552 114.122L51.0401 116.469C60.8371 111.104 68.3849 103.738 73.6492 94.3793L71.3176 93.0677ZM49.7601 114.12C40.5124 119.134 29.7241 121.662 17.3545 121.662V124.338C30.0955 124.338 41.3358 121.73 51.0351 116.472L49.7601 114.12ZM17.3545 121.662H-30.4124V124.338H17.3545V121.662ZM-29.0748 123V2.29863H-31.7499V123H-29.0748ZM-30.4124 3.63618H17.3545V0.961067H-30.4124V3.63618ZM14.7864 94.7186C24.8513 94.7186 32.9218 91.9622 38.8254 86.2996L36.9736 84.369C31.6915 89.4355 24.3534 92.0435 14.7864 92.0435V94.7186ZM38.8254 86.2996C44.7471 80.6196 47.6262 72.6412 47.6262 62.5637H44.9511C44.9511 72.1181 42.2374 79.3201 36.9736 84.369L38.8254 86.2996ZM47.6262 62.5637C47.6262 52.3774 44.7501 44.3395 38.8254 38.6566L36.9736 40.5872C42.2344 45.6333 44.9511 52.89 44.9511 62.5637H47.6262ZM38.8355 38.6664C32.9331 32.8844 24.8589 30.0664 14.7864 30.0664V32.7415C24.3458 32.7415 31.6803 35.402 36.9635 40.5774L38.8355 38.6664ZM14.7864 30.0664H3.14432V32.7415H14.7864V30.0664ZM1.80676 31.4039V93.3811H4.48188V31.4039H1.80676ZM3.14432 94.7186H14.7864V92.0435H3.14432V94.7186ZM129.042 29.1782V27.8407H127.705V29.1782H129.042ZM129.042 48.8671H127.705V50.2047H129.042V48.8671ZM167.564 48.8671H168.901V47.5295H167.564V48.8671ZM167.564 74.377V75.7146H168.901V74.377H167.564ZM129.042 74.377V73.0395H127.705V74.377H129.042ZM129.042 96.1204H127.705V97.458H129.042V96.1204ZM172.7 96.1204H174.038V94.7829H172.7V96.1204ZM172.7 123V124.338H174.038V123H172.7ZM95.4854 123H94.1478V124.338H95.4854V123ZM95.4854 2.29863V0.961067H94.1478V2.29863H95.4854ZM172.7 2.29863H174.038V0.961067H172.7V2.29863ZM172.7 29.1782V30.5158H174.038V29.1782H172.7ZM127.705 29.1782V48.8671H130.38V29.1782H127.705ZM129.042 50.2047H167.564V47.5295H129.042V50.2047ZM166.226 48.8671V74.377H168.901V48.8671H166.226ZM167.564 73.0395H129.042V75.7146H167.564V73.0395ZM127.705 74.377V96.1204H130.38V74.377H127.705ZM129.042 97.458H172.7V94.7829H129.042V97.458ZM171.362 96.1204V123H174.038V96.1204H171.362ZM172.7 121.662H95.4854V124.338H172.7V121.662ZM96.823 123V2.29863H94.1478V123H96.823ZM95.4854 3.63618H172.7V0.961067H95.4854V3.63618ZM171.362 2.29863V29.1782H174.038V2.29863H171.362ZM172.7 27.8407H129.042V30.5158H172.7V27.8407ZM192.535 30.7191L191.356 30.0867L191.353 30.0919L192.535 30.7191ZM213.764 8.97573L214.42 10.1416L214.431 10.1353L213.764 8.97573ZM283.275 13.2559L282.446 14.3061L282.454 14.3117L283.275 13.2559ZM303.135 45.9566V47.2941H304.79L304.443 45.6756L303.135 45.9566ZM267.01 45.9566L265.802 46.5305L266.165 47.2941H267.01V45.9566ZM257.936 35.5129L257.218 36.6413L257.225 36.6462L257.233 36.6509L257.936 35.5129ZM226.091 40.3067L225.066 39.4484L225.064 39.4504L226.091 40.3067ZM226.091 84.8207L225.055 85.6665L225.065 85.6781L225.074 85.6894L226.091 84.8207ZM257.936 89.4433L257.233 88.3053L257.225 88.31L257.218 88.3149L257.936 89.4433ZM267.01 78.9996V77.6621H266.165L265.802 78.4258L267.01 78.9996ZM303.135 78.9996L304.443 79.2806L304.79 77.6621H303.135V78.9996ZM283.275 111.872L284.096 112.927L284.103 112.922L283.275 111.872ZM213.764 116.152L213.098 117.311L213.109 117.317L213.764 116.152ZM192.535 94.4083L191.35 95.0295L191.355 95.0382L191.359 95.0468L192.535 94.4083ZM186.51 62.3925C186.51 50.7111 188.924 40.3737 193.716 31.3463L191.353 30.0919C186.33 39.5549 183.835 50.3331 183.835 62.3925H186.51ZM193.713 31.3515C198.617 22.2127 205.514 15.1514 214.42 10.1415L213.109 7.80994C203.753 13.0725 196.497 20.5068 191.356 30.0867L193.713 31.3515ZM214.431 10.1353C223.335 5.01576 233.6 2.43774 245.267 2.43774V-0.237381C233.193 -0.237381 222.456 2.43496 213.098 7.81619L214.431 10.1353ZM245.267 2.43774C260.08 2.43774 272.445 6.41595 282.446 14.306L284.103 12.2058C273.56 3.88824 260.586 -0.237381 245.267 -0.237381V2.43774ZM282.454 14.3117C292.456 22.0913 298.92 32.706 301.827 46.2376L304.443 45.6756C301.415 31.5856 294.638 20.3999 284.096 12.2001L282.454 14.3117ZM303.135 44.619H267.01V47.2941H303.135V44.619ZM268.218 45.3827C265.951 40.6104 262.762 36.9217 258.639 34.3749L257.233 36.6509C260.871 38.898 263.731 42.1716 265.802 46.5305L268.218 45.3827ZM258.654 34.3845C254.647 31.8344 249.997 30.58 244.753 30.58V33.2551C249.553 33.2551 253.692 34.3976 257.218 36.6413L258.654 34.3845ZM244.753 30.58C236.625 30.58 230.017 33.5302 225.066 39.4484L227.117 41.1651C231.525 35.8976 237.359 33.2551 244.753 33.2551V30.58ZM225.064 39.4504C220.245 45.2331 217.906 52.9286 217.906 62.3925H220.581C220.581 53.366 222.807 46.3376 227.119 41.163L225.064 39.4504ZM217.906 62.3925C217.906 71.9675 220.243 79.7719 225.055 85.6665L227.128 83.9749C222.808 78.6839 220.581 71.5362 220.581 62.3925H217.906ZM225.074 85.6894C230.03 91.4907 236.635 94.3762 244.753 94.3762V91.7011C237.349 91.7011 231.513 89.108 227.108 83.952L225.074 85.6894ZM244.753 94.3762C249.997 94.3762 254.647 93.1218 258.654 90.5717L257.218 88.3149C253.692 90.5586 249.553 91.7011 244.753 91.7011V94.3762ZM258.639 90.5813C262.762 88.0346 265.951 84.3458 268.218 79.5735L265.802 78.4258C263.731 82.7846 260.871 86.0582 257.233 88.3053L258.639 90.5813ZM267.01 80.3372H303.135V77.6621H267.01V80.3372ZM301.827 78.7186C298.919 92.2511 292.454 102.926 282.446 110.821L284.103 112.922C294.64 104.609 301.415 93.3697 304.443 79.2806L301.827 78.7186ZM282.454 110.816C272.452 118.595 260.084 122.518 245.267 122.518V125.194C260.581 125.194 273.553 121.128 284.096 112.927L282.454 110.816ZM245.267 122.518C233.595 122.518 223.326 119.995 214.42 114.986L213.109 117.317C222.465 122.581 233.198 125.194 245.267 125.194V122.518ZM214.431 114.992C205.514 109.865 198.614 102.797 193.71 93.7699L191.359 95.0468C196.5 104.51 203.752 111.938 213.098 117.311L214.431 114.992ZM193.719 93.7872C188.925 84.6438 186.51 74.19 186.51 62.3925H183.835C183.835 74.5641 186.329 85.4541 191.35 95.0295L193.719 93.7872ZM345.733 116.323L345.074 117.487L345.085 117.493L345.733 116.323ZM323.134 94.2371L321.976 94.9067L321.981 94.915L321.986 94.9232L323.134 94.2371ZM323.134 30.3767L321.982 29.6967L321.98 29.701L323.134 30.3767ZM408.053 8.2909L407.399 9.45746L407.405 9.4608L408.053 8.2909ZM430.481 30.3767L429.323 31.0463L429.327 31.0524L430.481 30.3767ZM430.481 94.2371L431.636 94.9128L431.639 94.9067L430.481 94.2371ZM408.053 116.323L408.701 117.493L408.712 117.487L408.053 116.323ZM397.096 84.6495L396.1 83.7558L396.095 83.7615L396.09 83.7673L397.096 84.6495ZM397.096 39.6219L396.09 40.5041L396.1 40.515L396.11 40.5257L397.096 39.6219ZM356.52 39.6219L357.516 40.5144L357.525 40.5041L356.52 39.6219ZM356.52 84.8207L355.514 85.703L355.523 85.7132L356.52 84.8207ZM376.893 122.861C365.81 122.861 355.648 120.289 346.382 115.153L345.085 117.493C354.766 122.858 365.377 125.536 376.893 125.536V122.861ZM346.393 115.159C337.121 109.909 329.756 102.712 324.282 93.551L321.986 94.9232C327.697 104.481 335.399 112.008 345.074 117.487L346.393 115.159ZM324.292 93.5675C318.941 84.3146 316.254 73.8771 316.254 62.2213H313.578C313.578 74.3063 316.37 85.2126 321.976 94.9067L324.292 93.5675ZM316.254 62.2213C316.254 50.5653 318.941 40.1877 324.288 31.0524L321.98 29.701C316.37 39.2844 313.578 50.1365 313.578 62.2213H316.254ZM324.286 31.0567C329.759 21.785 337.12 14.5937 346.382 9.4608L345.085 7.12099C335.4 12.4888 327.694 20.0213 321.982 29.6967L324.286 31.0567ZM346.382 9.4608C355.648 4.32523 365.81 1.75291 376.893 1.75291V-0.922211C365.377 -0.922211 354.766 1.75583 345.085 7.12099L346.382 9.4608ZM376.893 1.75291C388.093 1.75291 398.252 4.32635 407.399 9.45744L408.707 7.12435C399.135 1.75471 388.521 -0.922211 376.893 -0.922211V1.75291ZM407.405 9.4608C416.664 14.5924 423.965 21.7804 429.323 31.0463L431.639 29.7071C426.04 20.026 418.389 12.4902 408.701 7.12099L407.405 9.4608ZM429.327 31.0524C434.674 40.1877 437.362 50.5653 437.362 62.2213H440.037C440.037 50.1365 437.245 39.2844 431.636 29.701L429.327 31.0524ZM437.362 62.2213C437.362 73.8771 434.674 84.3146 429.323 93.5675L431.639 94.9067C437.245 85.2126 440.037 74.3063 440.037 62.2213H437.362ZM429.327 93.5614C423.968 102.716 416.663 109.91 407.394 115.159L408.712 117.487C418.39 112.007 426.037 104.477 431.636 94.9128L429.327 93.5614ZM407.405 115.153C398.138 120.289 387.976 122.861 376.893 122.861V125.536C388.41 125.536 399.021 122.858 408.701 117.493L407.405 115.153ZM376.893 94.3762C385.774 94.3762 392.9 91.4589 398.101 85.5317L396.09 83.7673C391.476 89.0257 385.133 91.7011 376.893 91.7011V94.3762ZM398.091 85.5432C403.384 79.6488 405.966 71.8264 405.966 62.2213H403.291C403.291 71.3349 400.852 78.4647 396.1 83.7558L398.091 85.5432ZM405.966 62.2213C405.966 52.3991 403.39 44.5084 398.082 38.7181L396.11 40.5257C400.846 45.6927 403.291 52.8682 403.291 62.2213H405.966ZM398.101 38.7396C392.9 32.8125 385.774 29.8952 376.893 29.8952V32.5703C385.133 32.5703 391.476 35.2457 396.09 40.5041L398.101 38.7396ZM376.893 29.8952C367.904 29.8952 360.719 32.8084 355.514 38.7396L357.525 40.5041C362.136 35.2498 368.533 32.5703 376.893 32.5703V29.8952ZM355.523 38.7294C350.336 44.5202 347.82 52.4067 347.82 62.2213H350.495C350.495 52.8606 352.887 45.6808 357.516 40.5144L355.523 38.7294ZM347.82 62.2213C347.82 71.9281 350.339 79.8053 355.514 85.7029L357.525 83.9385C352.884 78.6506 350.495 71.4614 350.495 62.2213H347.82ZM355.523 85.7132C360.731 91.5263 367.913 94.3762 376.893 94.3762V91.7011C368.524 91.7011 362.124 89.0724 357.516 83.9282L355.523 85.7132ZM514.905 123L513.728 123.634L514.106 124.338H514.905V123ZM490.936 78.486L492.114 77.8519L491.735 77.1485H490.936V78.486ZM487.341 78.486V77.1485H486.003V78.486H487.341ZM487.341 123V124.338H488.678V123H487.341ZM453.784 123H452.447V124.338H453.784V123ZM453.784 2.29863V0.961067H452.447V2.29863H453.784ZM531.341 7.43486L530.735 8.62714L530.743 8.63125L530.751 8.63525L531.341 7.43486ZM546.579 21.3027L545.42 21.9711L545.426 21.9808L546.579 21.3027ZM544.867 62.7349L543.785 61.9482L543.782 61.9518L544.867 62.7349ZM525.178 75.9179L524.79 74.6377L523.175 75.1265L524.02 76.5874L525.178 75.9179ZM552.4 123V124.338H554.718L553.558 122.331L552.4 123ZM487.341 55.5442H486.003V56.8818H487.341V55.5442ZM514.22 52.2913L513.299 51.3215L514.22 52.2913ZM514.049 33.8008L513.103 34.7466L513.127 34.7703L513.152 34.7927L514.049 33.8008ZM487.341 30.3767V29.0391H486.003V30.3767H487.341ZM516.083 122.366L492.114 77.8519L489.759 79.1201L513.728 123.634L516.083 122.366ZM490.936 77.1485H487.341V79.8236H490.936V77.1485ZM486.003 78.486V123H488.678V78.486H486.003ZM487.341 121.662H453.784V124.338H487.341V121.662ZM455.122 123V2.29863H452.447V123H455.122ZM453.784 3.63618H506.687V0.961067H453.784V3.63618ZM506.687 3.63618C516.236 3.63618 524.234 5.32172 530.735 8.62714L531.947 6.24258C524.98 2.69969 516.542 0.961067 506.687 0.961067V3.63618ZM530.751 8.63525C537.271 11.8399 542.141 16.2875 545.42 21.9711L547.737 20.6343C544.168 14.4475 538.88 9.64989 531.931 6.23447L530.751 8.63525ZM545.426 21.9808C548.719 27.5797 550.377 33.905 550.377 40.9915H553.052C553.052 33.4683 551.286 26.6678 547.732 20.6245L545.426 21.9808ZM550.377 40.9915C550.377 48.9445 548.174 55.9131 543.785 61.9482L545.948 63.5216C550.69 57.0015 553.052 49.4746 553.052 40.9915H550.377ZM543.782 61.9518C539.534 67.8345 533.24 72.0806 524.79 74.6377L525.565 77.1981C534.465 74.5049 541.297 69.9622 545.951 63.5181L543.782 61.9518ZM524.02 76.5874L551.242 123.669L553.558 122.331L526.336 75.2484L524.02 76.5874ZM552.4 121.662H514.905V124.338H552.4V121.662ZM487.341 56.8818H503.948V54.2066H487.341V56.8818ZM503.948 56.8818C508.703 56.8818 512.518 55.7536 515.142 53.261L513.299 51.3215C511.357 53.1661 508.324 54.2066 503.948 54.2066V56.8818ZM515.142 53.261C517.765 50.769 518.982 47.2331 518.982 42.8748H516.307C516.307 46.7345 515.242 49.4762 513.299 51.3215L515.142 53.261ZM518.982 42.8748C518.982 38.6986 517.68 35.2817 514.947 32.809L513.152 34.7927C515.213 36.6572 516.307 39.2896 516.307 42.8748H518.982ZM514.995 32.855C512.379 30.2387 508.617 29.0391 503.948 29.0391V31.7142C508.182 31.7142 511.154 32.7974 513.103 34.7466L514.995 32.855ZM503.948 29.0391H487.341V31.7142H503.948V29.0391ZM486.003 30.3767V55.5442H488.678V30.3767H486.003ZM577.932 114.268L577.132 115.34L577.141 115.347L577.932 114.268ZM563.38 85.5055V84.168H561.967L562.044 85.579L563.38 85.5055ZM599.162 85.5055L600.495 85.3974L600.396 84.168H599.162V85.5055ZM602.929 94.7507L602.037 95.7475L602.929 94.7507ZM618.851 95.4356L619.664 96.4981L619.672 96.4914L618.851 95.4356ZM616.968 80.7117L617.644 79.5578L616.968 80.7117ZM600.874 74.2058L600.451 75.4748L600.463 75.4786L600.874 74.2058ZM581.699 66.6727L581.078 67.8575L581.095 67.8663L581.112 67.8746L581.699 66.6727ZM569.03 55.8866L567.953 56.6809L567.964 56.6954L567.975 56.7096L569.03 55.8866ZM569.543 17.3649L570.635 18.1381L570.642 18.1274L569.543 17.3649ZM585.637 4.69553L585.122 3.46086L585.637 4.69553ZM642.478 10.3454L641.646 11.3926L641.654 11.3989L641.661 11.405L642.478 10.3454ZM656.003 37.9098V39.2474H657.406L657.339 37.8456L656.003 37.9098ZM619.536 37.9098L618.199 37.9516L618.239 39.2474H619.536V37.9098ZM616.112 29.6918L615.223 30.6916L615.236 30.7034L615.25 30.715L616.112 29.6918ZM601.901 29.1782L602.812 30.1584L601.901 29.1782ZM602.073 41.5052L601.127 42.451L601.158 42.4825L601.192 42.5118L602.073 41.5052ZM608.75 45.7854L608.173 46.992L608.194 47.0024L608.216 47.012L608.75 45.7854ZM620.392 50.2368L619.944 51.497L619.951 51.4995L619.958 51.5019L620.392 50.2368ZM639.225 58.1123L638.594 59.2918L638.61 59.3004L638.627 59.3087L639.225 58.1123ZM652.065 68.8984L650.998 69.7051L651.009 69.7197L651.021 69.734L652.065 68.8984ZM652.065 105.708L650.939 104.987L650.934 104.995L650.929 105.003L652.065 105.708ZM636.485 119.233L635.903 118.029L635.895 118.033L636.485 119.233ZM612.516 122.861C598.689 122.861 587.459 119.603 578.724 113.19L577.141 115.347C586.44 122.174 598.266 125.536 612.516 125.536V122.861ZM578.733 113.197C570.07 106.727 565.381 97.5254 564.715 85.432L562.044 85.579C562.748 98.3678 567.761 108.342 577.132 115.34L578.733 113.197ZM563.38 86.8431H599.162V84.168H563.38V86.8431ZM597.829 85.6136C598.187 90.0239 599.517 93.4926 602.037 95.7475L603.821 93.7539C602.004 92.1282 600.823 89.4334 600.495 85.3974L597.829 85.6136ZM602.037 95.7475C604.493 97.9452 607.626 98.9988 611.318 98.9988V96.3237C608.161 96.3237 605.702 95.437 603.821 93.7539L602.037 95.7475ZM611.318 98.9988C614.615 98.9988 617.435 98.2024 619.664 96.4981L618.039 94.3731C616.387 95.6363 614.184 96.3237 611.318 96.3237V98.9988ZM619.672 96.4914C622.072 94.625 623.27 92.0566 623.27 88.9297H620.595C620.595 91.2814 619.739 93.0503 618.03 94.3798L619.672 96.4914ZM623.27 88.9297C623.27 84.87 621.322 81.7136 617.644 79.5578L616.291 81.8656C619.234 83.5905 620.595 85.9128 620.595 88.9297H623.27ZM617.644 79.5578C614.203 77.5403 608.723 75.3358 601.285 72.933L600.463 75.4786C607.864 77.8696 613.113 80.0024 616.291 81.8656L617.644 79.5578ZM601.297 72.9369C593.452 70.3219 587.121 67.8321 582.286 65.4708L581.112 67.8746C586.093 70.3071 592.545 72.8394 600.451 75.4747L601.297 72.9369ZM582.32 65.4878C577.71 63.0734 573.631 59.6079 570.084 55.0637L567.975 56.7096C571.733 61.5247 576.1 65.2499 581.078 67.8575L582.32 65.4878ZM570.106 55.0923C566.78 50.5864 565.06 44.6677 565.06 37.225H562.385C562.385 45.0768 564.203 51.5992 567.953 56.6809L570.106 55.0923ZM565.06 37.225C565.06 29.6959 566.938 23.3568 570.635 18.138L568.452 16.5918C564.387 22.3303 562.385 29.2313 562.385 37.225H565.06ZM570.642 18.1274C574.364 12.7634 579.517 8.69455 586.151 5.93021L585.122 3.46086C578.06 6.40345 572.484 10.7808 568.444 16.6024L570.642 18.1274ZM586.151 5.93021C592.811 3.15515 600.394 1.75291 608.921 1.75291V-0.922211C600.099 -0.922211 592.159 0.528999 585.122 3.46086L586.151 5.93021ZM608.921 1.75291C622.755 1.75291 633.616 5.01308 641.646 11.3926L643.31 9.29813C634.675 2.43764 623.165 -0.922211 608.921 -0.922211V1.75291ZM641.661 11.405C649.759 17.6422 654.113 26.4451 654.667 37.974L657.339 37.8456C656.752 25.6337 652.089 16.0604 643.294 9.28574L641.661 11.405ZM656.003 36.5723H619.536V39.2474H656.003V36.5723ZM620.873 37.868C620.75 33.9526 619.511 30.806 616.973 28.6687L615.25 30.715C617.049 32.2301 618.093 34.5622 618.199 37.9516L620.873 37.868ZM617 28.6921C614.653 26.6057 611.632 25.615 608.065 25.615V28.2901C611.118 28.2901 613.461 29.1255 615.223 30.6916L617 28.6921ZM608.065 25.615C605.271 25.615 602.874 26.4498 600.991 28.1981L602.812 30.1584C604.125 28.9391 605.837 28.2901 608.065 28.2901V25.615ZM600.991 28.1981C599.054 29.9967 598.167 32.5033 598.167 35.5129H600.842C600.842 33.0438 601.553 31.3273 602.812 30.1584L600.991 28.1981ZM598.167 35.5129C598.167 38.1736 599.181 40.5049 601.127 42.451L603.018 40.5594C601.54 39.0813 600.842 37.4177 600.842 35.5129H598.167ZM601.192 42.5118C603.126 44.204 605.459 45.694 608.173 46.992L609.327 44.5787C606.79 43.3656 604.672 42.0022 602.953 40.4986L601.192 42.5118ZM608.216 47.012C610.884 48.172 614.8 49.668 619.944 51.497L620.84 48.9765C615.712 47.1531 611.866 45.6815 609.283 44.5587L608.216 47.012ZM619.958 51.5019C627.565 54.1132 633.77 56.7117 638.594 59.2918L639.856 56.9329C634.863 54.2626 628.514 51.6107 620.826 48.9717L619.958 51.5019ZM638.627 59.3087C643.456 61.7235 647.579 65.1821 650.998 69.7051L653.132 68.0917C649.476 63.2554 645.037 59.5232 639.823 56.916L638.627 59.3087ZM651.021 69.734C654.446 74.0154 656.206 79.5227 656.206 86.3616H658.882C658.882 79.0473 656.989 72.9124 653.11 68.0628L651.021 69.734ZM656.206 86.3616C656.206 93.3131 654.445 99.5087 650.939 104.987L653.192 106.429C656.991 100.493 658.882 93.7914 658.882 86.3616H656.206ZM650.929 105.003C647.541 110.467 642.554 114.815 635.903 118.029L637.068 120.438C644.113 117.032 649.513 112.363 653.202 106.413L650.929 105.003ZM635.895 118.033C629.383 121.234 621.604 122.861 612.516 122.861V125.536C621.92 125.536 630.12 123.853 637.075 120.434L635.895 118.033Z" fill="#ECECEC" mask="url(#path-1-outside-1_289_75)"/>
</g>
</svg>
