<svg width="1240" height="186" viewBox="0 0 1240 186" fill="none" xmlns="http://www.w3.org/2000/svg">
<g opacity="0.14">
<mask id="path-1-outside-1_246_85" maskUnits="userSpaceOnUse" x="-36" y="-1" width="1278" height="189" fill="black">
<rect fill="white" x="-36" y="-1" width="1278" height="189"/>
<path d="M15.1289 141.198C1.08983 141.198 -10.4382 137.888 -19.4551 131.268C-28.472 124.534 -33.3229 114.947 -34.0077 102.506H1.77466C2.11707 106.729 3.3726 109.81 5.54122 111.751C7.70986 113.691 10.5062 114.661 13.9304 114.661C17.0121 114.661 19.5232 113.919 21.4635 112.436C23.518 110.838 24.5453 108.669 24.5453 105.93C24.5453 102.391 22.8903 99.6521 19.5803 97.7117C16.2702 95.7714 10.9057 93.6027 3.48673 91.2058C-4.38882 88.5806 -10.7806 86.0696 -15.6885 83.6727C-20.4823 81.1616 -24.7055 77.5663 -28.3579 72.8866C-31.8962 68.0928 -33.6653 61.8723 -33.6653 54.225C-33.6653 46.4636 -31.725 39.8435 -27.8443 34.3649C-23.9636 28.7721 -18.599 24.549 -11.7507 21.6955C-4.90244 18.8421 2.85897 17.4153 11.5335 17.4153C25.5725 17.4153 36.7581 20.7254 45.0902 27.3454C53.5364 33.8513 58.0449 43.0394 58.6156 54.9098H22.1484C22.0342 51.2574 20.8928 48.5181 18.7242 46.6918C16.6697 44.8656 13.9875 43.9525 10.6775 43.9525C8.16641 43.9525 6.11192 44.6944 4.51398 46.1782C2.91604 47.662 2.11707 49.7736 2.11707 52.5129C2.11707 54.7957 2.97311 56.7931 4.68519 58.5052C6.5114 60.1031 8.7371 61.5298 11.3623 62.7854C13.9875 63.9267 17.8682 65.4105 23.0044 67.2368C30.6517 69.8619 36.9293 72.4871 41.8372 75.1123C46.8593 77.6234 51.1395 81.2187 54.6778 85.8984C58.3302 90.4639 60.1565 96.285 60.1565 103.362C60.1565 110.552 58.3302 117.001 54.6778 122.708C51.1395 128.415 45.9462 132.923 39.0979 136.233C32.3638 139.543 24.3741 141.198 15.1289 141.198ZM109.313 57.3067C111.938 52.8553 115.648 49.317 120.442 46.6918C125.235 44.0667 130.885 42.7541 137.391 42.7541C145.038 42.7541 151.944 44.7515 158.107 48.7463C164.385 52.7412 169.293 58.4481 172.831 65.8671C176.484 73.2861 178.31 81.9606 178.31 91.8907C178.31 101.821 176.484 110.552 172.831 118.085C169.293 125.504 164.385 131.211 158.107 135.206C151.944 139.201 145.038 141.198 137.391 141.198C130.885 141.198 125.235 139.886 120.442 137.261C115.762 134.635 112.052 131.097 109.313 126.646V185.884H75.7564V43.9525H109.313V57.3067ZM144.239 91.8907C144.239 85.613 142.527 80.7622 139.103 77.338C135.793 73.7997 131.684 72.0306 126.776 72.0306C121.868 72.0306 117.702 73.7997 114.278 77.338C110.968 80.8763 109.313 85.7272 109.313 91.8907C109.313 98.1683 110.968 103.076 114.278 106.615C117.702 110.153 121.868 111.922 126.776 111.922C131.684 111.922 135.793 110.153 139.103 106.615C142.527 102.962 144.239 98.0541 144.239 91.8907ZM283.891 90.8634C283.891 93.4886 283.72 96.1138 283.378 98.739H219.86C220.202 103.989 221.629 107.927 224.14 110.552C226.765 113.063 230.075 114.319 234.07 114.319C239.663 114.319 243.658 111.808 246.054 106.786H281.837C280.353 113.406 277.443 119.341 273.105 124.591C268.882 129.728 263.518 133.779 257.012 136.747C250.506 139.715 243.315 141.198 235.44 141.198C225.966 141.198 217.52 139.201 210.101 135.206C202.796 131.211 197.032 125.504 192.809 118.085C188.7 110.666 186.645 101.935 186.645 91.8907C186.645 81.8465 188.7 73.172 192.809 65.8671C196.918 58.4481 202.625 52.7412 209.93 48.7463C217.349 44.7515 225.852 42.7541 235.44 42.7541C244.913 42.7541 253.302 44.6944 260.607 48.5751C267.912 52.4558 273.619 58.0486 277.728 65.3535C281.837 72.5442 283.891 81.0475 283.891 90.8634ZM249.65 82.4742C249.65 78.3653 248.28 75.1694 245.541 72.8866C242.802 70.4897 239.377 69.2913 235.268 69.2913C231.159 69.2913 227.792 70.4326 225.167 72.7154C222.542 74.884 220.83 78.137 220.031 82.4742H249.65ZM292.145 91.8907C292.145 81.9606 294.2 73.2861 298.309 65.8671C302.418 58.4481 308.125 52.7412 315.43 48.7463C322.849 44.7515 331.295 42.7541 340.768 42.7541C352.981 42.7541 363.254 46.1212 371.586 52.8553C379.918 59.4753 385.282 68.7776 387.679 80.7622H352.068C350.014 74.4846 346.019 71.3457 340.084 71.3457C335.86 71.3457 332.493 73.1149 329.982 76.6532C327.585 80.0773 326.387 85.1565 326.387 91.8907C326.387 98.6248 327.585 103.761 329.982 107.299C332.493 110.838 335.86 112.607 340.084 112.607C346.133 112.607 350.128 109.468 352.068 103.19H387.679C385.282 115.061 379.918 124.363 371.586 131.097C363.254 137.831 352.981 141.198 340.768 141.198C331.295 141.198 322.849 139.201 315.43 135.206C308.125 131.211 302.418 125.504 298.309 118.085C294.2 110.666 292.145 101.935 292.145 91.8907ZM418.569 35.0497C412.634 35.0497 407.84 33.4518 404.187 30.2559C400.649 26.9459 398.88 22.8369 398.88 17.929C398.88 12.9069 400.649 8.74083 404.187 5.43082C407.84 2.1208 412.634 0.465787 418.569 0.465787C424.39 0.465787 429.07 2.1208 432.608 5.43082C436.26 8.74083 438.087 12.9069 438.087 17.929C438.087 22.8369 436.26 26.9459 432.608 30.2559C429.07 33.4518 424.39 35.0497 418.569 35.0497ZM435.176 43.9525V140H401.619V43.9525H435.176ZM448.807 91.8907C448.807 81.9606 450.576 73.2861 454.115 65.8671C457.767 58.4481 462.675 52.7412 468.838 48.7463C475.116 44.7515 482.078 42.7541 489.726 42.7541C496.346 42.7541 502.053 44.0667 506.846 46.6918C511.64 49.317 515.35 52.8553 517.975 57.3067V43.9525H551.532V140H517.975V126.646C515.35 131.097 511.583 134.635 506.675 137.261C501.881 139.886 496.232 141.198 489.726 141.198C482.078 141.198 475.116 139.201 468.838 135.206C462.675 131.211 457.767 125.504 454.115 118.085C450.576 110.552 448.807 101.821 448.807 91.8907ZM517.975 91.8907C517.975 85.7272 516.263 80.8763 512.839 77.338C509.529 73.7997 505.42 72.0306 500.512 72.0306C495.49 72.0306 491.324 73.7997 488.014 77.338C484.704 80.7622 483.049 85.613 483.049 91.8907C483.049 98.0541 484.704 102.962 488.014 106.615C491.324 110.153 495.49 111.922 500.512 111.922C505.42 111.922 509.529 110.153 512.839 106.615C516.263 103.076 517.975 98.1683 517.975 91.8907ZM604.21 13.3064V140H570.653V13.3064H604.21ZM689.647 46.1782V65.8671H728.168V91.377H689.647V113.12H733.305V140H656.09V19.2986H733.305V46.1782H689.647ZM801.762 71.8594H786.696V140H752.968V71.8594H742.524V43.9525H752.968V43.0965C752.968 30.7695 756.563 21.3531 763.754 14.8472C771.059 8.2272 781.503 4.91719 795.085 4.91719C797.825 4.91719 799.936 4.97426 801.42 5.08839V33.6801C800.507 33.5659 799.251 33.5089 797.653 33.5089C794.001 33.5089 791.319 34.3649 789.607 36.077C787.894 37.6749 786.924 40.3001 786.696 43.9525H801.762V71.8594ZM865.631 71.8594H850.565V140H816.837V71.8594H806.393V43.9525H816.837V43.0965C816.837 30.7695 820.432 21.3531 827.623 14.8472C834.928 8.2272 845.371 4.91719 858.954 4.91719C861.693 4.91719 863.805 4.97426 865.288 5.08839V33.6801C864.375 33.5659 863.12 33.5089 861.522 33.5089C857.869 33.5089 855.187 34.3649 853.475 36.077C851.763 37.6749 850.793 40.3001 850.565 43.9525H865.631V71.8594ZM969.391 90.8634C969.391 93.4886 969.219 96.1138 968.877 98.739H905.359C905.701 103.989 907.128 107.927 909.639 110.552C912.264 113.063 915.574 114.319 919.569 114.319C925.162 114.319 929.157 111.808 931.554 106.786H967.336C965.852 113.406 962.942 119.341 958.605 124.591C954.381 129.728 949.017 133.779 942.511 136.747C936.005 139.715 928.814 141.198 920.939 141.198C911.465 141.198 903.019 139.201 895.6 135.206C888.295 131.211 882.531 125.504 878.308 118.085C874.199 110.666 872.145 101.935 872.145 91.8907C872.145 81.8465 874.199 73.172 878.308 65.8671C882.417 58.4481 888.124 52.7412 895.429 48.7463C902.848 44.7515 911.351 42.7541 920.939 42.7541C930.412 42.7541 938.802 44.6944 946.106 48.5751C953.411 52.4558 959.118 58.0486 963.227 65.3535C967.336 72.5442 969.391 81.0475 969.391 90.8634ZM935.149 82.4742C935.149 78.3653 933.779 75.1694 931.04 72.8866C928.301 70.4897 924.877 69.2913 920.768 69.2913C916.659 69.2913 913.292 70.4326 910.666 72.7154C908.041 74.884 906.329 78.137 905.53 82.4742H935.149ZM977.645 91.8907C977.645 81.9606 979.699 73.2861 983.808 65.8671C987.917 58.4481 993.624 52.7412 1000.93 48.7463C1008.35 44.7515 1016.79 42.7541 1026.27 42.7541C1038.48 42.7541 1048.75 46.1212 1057.09 52.8553C1065.42 59.4753 1070.78 68.7776 1073.18 80.7622H1037.57C1035.51 74.4846 1031.52 71.3457 1025.58 71.3457C1021.36 71.3457 1017.99 73.1149 1015.48 76.6532C1013.08 80.0773 1011.89 85.1565 1011.89 91.8907C1011.89 98.6248 1013.08 103.761 1015.48 107.299C1017.99 110.838 1021.36 112.607 1025.58 112.607C1031.63 112.607 1035.63 109.468 1037.57 103.19H1073.18C1070.78 115.061 1065.42 124.363 1057.09 131.097C1048.75 137.831 1038.48 141.198 1026.27 141.198C1016.79 141.198 1008.35 139.201 1000.93 135.206C993.624 131.211 987.917 125.504 983.808 118.085C979.699 110.666 977.645 101.935 977.645 91.8907ZM1143.79 111.408V140H1129.24C1104.7 140 1092.43 127.844 1092.43 103.533V71.8594H1080.61V43.9525H1092.43V20.6683H1126.15V43.9525H1143.62V71.8594H1126.15V104.046C1126.15 106.672 1126.72 108.555 1127.87 109.696C1129.12 110.838 1131.18 111.408 1134.03 111.408H1143.79ZM1200.1 141.198C1191.42 141.198 1183.66 139.772 1176.81 136.918C1170.08 133.951 1164.72 129.956 1160.72 124.934C1156.84 119.798 1154.67 114.034 1154.21 107.642H1186.74C1187.2 110.723 1188.63 113.12 1191.02 114.832C1193.42 116.545 1196.39 117.401 1199.93 117.401C1202.67 117.401 1204.83 116.83 1206.43 115.689C1208.03 114.547 1208.83 113.063 1208.83 111.237C1208.83 108.84 1207.52 107.071 1204.89 105.93C1202.27 104.788 1197.93 103.533 1191.88 102.163C1185.03 100.793 1179.32 99.2526 1174.76 97.5405C1170.19 95.8284 1166.2 93.032 1162.77 89.1513C1159.46 85.2706 1157.81 80.0203 1157.81 73.4002C1157.81 67.6933 1159.35 62.5571 1162.43 57.9915C1165.51 53.3119 1170.02 49.6024 1175.96 46.8631C1182.01 44.1237 1189.26 42.7541 1197.7 42.7541C1210.26 42.7541 1220.13 45.8358 1227.32 51.9993C1234.51 58.1628 1238.68 66.2666 1239.82 76.3108H1209.51C1208.94 73.229 1207.57 70.8892 1205.41 69.2913C1203.35 67.5792 1200.55 66.7231 1197.02 66.7231C1194.28 66.7231 1192.17 67.2368 1190.68 68.264C1189.31 69.2913 1188.63 70.718 1188.63 72.5442C1188.63 74.827 1189.94 76.5961 1192.57 77.8516C1195.19 78.993 1199.41 80.1915 1205.23 81.447C1212.2 82.9308 1217.96 84.5858 1222.53 86.412C1227.21 88.2382 1231.26 91.2058 1234.68 95.3148C1238.22 99.3097 1239.99 104.788 1239.99 111.751C1239.99 117.344 1238.33 122.366 1235.02 126.817C1231.83 131.268 1227.21 134.807 1221.16 137.432C1215.22 139.943 1208.2 141.198 1200.1 141.198Z"/>
</mask>
<path d="M-19.4551 131.268L-20.2555 132.34L-20.2467 132.347L-19.4551 131.268ZM-34.0077 102.506V101.168H-35.4209L-35.3433 102.579L-34.0077 102.506ZM1.77466 102.506L3.10785 102.397L3.00816 101.168H1.77466V102.506ZM5.54123 111.751L4.64935 112.748H4.64935L5.54123 111.751ZM21.4635 112.436L22.2761 113.498L22.2847 113.491L21.4635 112.436ZM19.5803 97.7117L20.2567 96.5578H20.2567L19.5803 97.7117ZM3.48674 91.2058L3.06374 92.4748L3.07553 92.4786L3.48674 91.2058ZM-15.6885 83.6727L-16.3092 84.8575L-16.2924 84.8663L-16.2755 84.8746L-15.6885 83.6727ZM-28.3579 72.8866L-29.434 73.6809L-29.4234 73.6954L-29.4123 73.7096L-28.3579 72.8866ZM-27.8443 34.3649L-26.7527 35.1381L-26.7453 35.1274L-27.8443 34.3649ZM-11.7507 21.6955L-12.2652 20.4609H-12.2652L-11.7507 21.6955ZM45.0902 27.3454L44.2581 28.3926L44.266 28.3989L44.274 28.405L45.0902 27.3454ZM58.6156 54.9098V56.2474H60.019L59.9516 54.8456L58.6156 54.9098ZM22.1484 54.9098L20.8115 54.9516L20.8519 56.2474H22.1484V54.9098ZM18.7242 46.6918L17.8356 47.6916L17.849 47.7034L17.8626 47.715L18.7242 46.6918ZM4.51398 46.1782L5.42413 47.1584L4.51398 46.1782ZM4.68519 58.5052L3.73939 59.451L3.77088 59.4825L3.8044 59.5118L4.68519 58.5052ZM11.3623 62.7854L10.7852 63.992L10.8069 64.0024L10.829 64.012L11.3623 62.7854ZM23.0044 67.2368L22.5563 68.497L22.5632 68.4995L22.5701 68.5019L23.0044 67.2368ZM41.8372 75.1123L41.2064 76.2918L41.2226 76.3004L41.2391 76.3087L41.8372 75.1123ZM54.6778 85.8984L53.6109 86.7051L53.6219 86.7197L53.6334 86.734L54.6778 85.8984ZM54.6778 122.708L53.5512 121.987L53.5461 121.995L53.541 122.003L54.6778 122.708ZM39.0979 136.233L38.5158 135.029L38.5079 135.033L39.0979 136.233ZM15.1289 139.861C1.30114 139.861 -9.92896 136.603 -18.6635 130.19L-20.2467 132.347C-10.9473 139.174 0.878521 142.536 15.1289 142.536V139.861ZM-18.6547 130.197C-27.3177 123.727 -32.0065 114.525 -32.6722 102.432L-35.3433 102.579C-34.6393 115.368 -29.6263 125.342 -20.2554 132.34L-18.6547 130.197ZM-34.0077 103.843H1.77466V101.168H-34.0077V103.843ZM0.441475 102.614C0.799065 107.024 2.12908 110.493 4.64935 112.748L6.4331 110.754C4.61611 109.128 3.43508 106.433 3.10785 102.397L0.441475 102.614ZM4.64935 112.748C7.10555 114.945 10.2387 115.999 13.9304 115.999V113.324C10.7738 113.324 8.31417 112.437 6.4331 110.754L4.64935 112.748ZM13.9304 115.999C17.2279 115.999 20.0472 115.202 22.276 113.498L20.651 111.373C18.9991 112.636 16.7964 113.324 13.9304 113.324V115.999ZM22.2847 113.491C24.6844 111.625 25.8828 109.057 25.8828 105.93H23.2077C23.2077 108.281 22.3517 110.05 20.6424 111.38L22.2847 113.491ZM25.8828 105.93C25.8828 101.87 23.9343 98.7136 20.2567 96.5578L18.9038 98.8656C21.8463 100.59 23.2077 102.913 23.2077 105.93H25.8828ZM20.2567 96.5578C16.8151 94.5403 11.3351 92.3358 3.89794 89.933L3.07553 92.4786C10.4763 94.8696 15.7254 97.0024 18.9038 98.8656L20.2567 96.5578ZM3.90971 89.9369C-3.93537 87.3219 -10.2664 84.8321 -15.1016 82.4708L-16.2755 84.8746C-11.2947 87.3071 -4.84227 89.8394 3.06376 92.4747L3.90971 89.9369ZM-15.0679 82.4878C-19.6772 80.0734 -23.7567 76.6079 -27.3035 72.0637L-29.4123 73.7096C-25.6542 78.5247 -21.2874 82.2499 -16.3092 84.8575L-15.0679 82.4878ZM-27.2817 72.0923C-30.6075 67.5864 -32.3278 61.6677 -32.3278 54.225H-35.0029C-35.0029 62.0768 -33.1848 68.5992 -29.434 73.6809L-27.2817 72.0923ZM-32.3278 54.225C-32.3278 46.6959 -30.4494 40.3568 -26.7528 35.138L-28.9357 33.5918C-33.0006 39.3303 -35.0029 46.2313 -35.0029 54.225H-32.3278ZM-26.7453 35.1274C-23.0234 29.7634 -17.8707 25.6945 -11.2363 22.9302L-12.2652 20.4609C-19.3274 23.4035 -24.9037 27.7808 -28.9432 33.6024L-26.7453 35.1274ZM-11.2363 22.9302C-4.57617 20.1552 3.00609 18.7529 11.5335 18.7529V16.0778C2.71186 16.0778 -5.22871 17.529 -12.2652 20.4609L-11.2363 22.9302ZM11.5335 18.7529C25.3672 18.7529 36.2287 22.0131 44.2581 28.3926L45.9222 26.2981C37.2875 19.4376 25.7779 16.0778 11.5335 16.0778V18.7529ZM44.274 28.405C52.3713 34.6422 56.7253 43.4451 57.2796 54.974L59.9516 54.8456C59.3645 42.6337 54.7015 33.0604 45.9064 26.2857L44.274 28.405ZM58.6156 53.5723H22.1484V56.2474H58.6156V53.5723ZM23.4853 54.868C23.3629 50.9526 22.1238 47.806 19.5858 45.6687L17.8626 47.715C19.6619 49.2301 20.7055 51.5622 20.8115 54.9516L23.4853 54.868ZM19.6128 45.6921C17.2656 43.6057 14.2448 42.615 10.6775 42.615V45.2901C13.7301 45.2901 16.0738 46.1255 17.8356 47.6916L19.6128 45.6921ZM10.6775 42.615C7.88363 42.615 5.48663 43.4498 3.60384 45.1981L5.42413 47.1584C6.73721 45.9391 8.44919 45.2901 10.6775 45.2901V42.615ZM3.60384 45.1981C1.66684 46.9967 0.779514 49.5033 0.779514 52.5129H3.45463C3.45463 50.0438 4.16525 48.3273 5.42413 47.1584L3.60384 45.1981ZM0.779514 52.5129C0.779514 55.1736 1.79336 57.5049 3.73939 59.451L5.63099 57.5594C4.15286 56.0813 3.45463 54.4177 3.45463 52.5129H0.779514ZM3.8044 59.5118C5.73834 61.204 8.07124 62.694 10.7852 63.992L11.9394 61.5787C9.40297 60.3656 7.28447 59.0022 5.56598 57.4986L3.8044 59.5118ZM10.829 64.012C13.4969 65.172 17.412 66.668 22.5563 68.497L23.4525 65.9765C18.3243 64.1531 14.478 62.6815 11.8956 61.5587L10.829 64.012ZM22.5701 68.5019C30.1771 71.1132 36.3828 73.7117 41.2064 76.2918L42.4681 73.9329C37.4758 71.2626 31.1263 68.6107 23.4387 65.9717L22.5701 68.5019ZM41.2391 76.3087C46.0687 78.7235 50.191 82.1821 53.6109 86.7051L55.7447 85.0917C52.088 80.2554 47.65 76.5232 42.4354 73.916L41.2391 76.3087ZM53.6334 86.734C57.0585 91.0154 58.8189 96.5227 58.8189 103.362H61.494C61.494 96.0473 59.602 89.9124 55.7223 85.0628L53.6334 86.734ZM58.8189 103.362C58.8189 110.313 57.0573 116.509 53.5512 121.987L55.8044 123.429C59.6032 117.493 61.494 110.791 61.494 103.362H58.8189ZM53.541 122.003C50.1536 127.467 45.1668 131.815 38.5159 135.029L39.68 137.438C46.7257 134.032 52.1254 129.363 55.8146 123.413L53.541 122.003ZM38.5079 135.033C31.995 138.234 24.216 139.861 15.1289 139.861V142.536C24.5321 142.536 32.7325 140.853 39.6879 137.434L38.5079 135.033ZM109.313 57.3067H107.976V62.2078L110.465 57.9862L109.313 57.3067ZM120.442 46.6918L119.799 45.5187V45.5187L120.442 46.6918ZM158.107 48.7463L157.38 49.8688L157.389 49.8748L158.107 48.7463ZM172.831 65.8671L171.624 66.4429L171.627 66.4504L171.631 66.4579L172.831 65.8671ZM172.831 118.085L171.628 117.502L171.624 117.51L172.831 118.085ZM158.107 135.206L157.389 134.078L157.38 134.084L158.107 135.206ZM120.442 137.261L119.787 138.427L119.799 138.434L120.442 137.261ZM109.313 126.646L110.452 125.945L107.976 121.92V126.646H109.313ZM109.313 185.884V187.221H110.651V185.884H109.313ZM75.7564 185.884H74.4189V187.221H75.7564V185.884ZM75.7564 43.9525V42.615H74.4189V43.9525H75.7564ZM109.313 43.9525H110.651V42.615H109.313V43.9525ZM139.103 77.338L138.126 78.2518L138.142 78.2681L138.157 78.2838L139.103 77.338ZM114.278 77.338L113.317 76.4078L113.309 76.416L113.301 76.4242L114.278 77.338ZM114.278 106.615L113.301 107.528L113.309 107.537L113.317 107.545L114.278 106.615ZM139.103 106.615L138.127 105.7L138.126 105.701L139.103 106.615ZM110.465 57.9862C112.961 53.7543 116.489 50.3815 121.084 47.865L119.799 45.5187C114.807 48.2526 110.916 51.9563 108.161 56.6273L110.465 57.9862ZM121.084 47.865C125.647 45.3665 131.067 44.0916 137.391 44.0916V41.4165C130.703 41.4165 124.824 42.7668 119.799 45.5187L121.084 47.865ZM137.391 44.0916C144.791 44.0916 151.442 46.0203 157.38 49.8688L158.835 47.6239C152.445 43.4827 145.285 41.4165 137.391 41.4165V44.0916ZM157.389 49.8748C163.433 53.7211 168.182 59.2258 171.624 66.4429L174.038 65.2913C170.404 57.6704 165.336 51.7613 158.825 47.6179L157.389 49.8748ZM171.631 66.4579C175.177 73.6598 176.972 82.1248 176.972 91.8907H179.647C179.647 81.7964 177.79 72.9124 174.031 65.2763L171.631 66.4579ZM176.972 91.8907C176.972 101.656 175.177 110.181 171.628 117.502L174.035 118.669C177.79 110.923 179.647 101.986 179.647 91.8907H176.972ZM171.624 117.51C168.182 124.727 163.433 130.231 157.389 134.078L158.825 136.335C165.336 132.191 170.404 126.282 174.038 118.661L171.624 117.51ZM157.38 134.084C151.442 137.932 144.791 139.861 137.391 139.861V142.536C145.285 142.536 152.445 140.47 158.835 136.329L157.38 134.084ZM137.391 139.861C131.067 139.861 125.647 138.586 121.084 136.088L119.799 138.434C124.824 141.186 130.703 142.536 137.391 142.536V139.861ZM121.096 136.094C116.609 133.577 113.069 130.197 110.452 125.945L108.174 127.347C111.036 131.997 114.914 135.694 119.787 138.427L121.096 136.094ZM107.976 126.646V185.884H110.651V126.646H107.976ZM109.313 184.546H75.7564V187.221H109.313V184.546ZM77.094 185.884V43.9525H74.4189V185.884H77.094ZM75.7564 45.2901H109.313V42.615H75.7564V45.2901ZM107.976 43.9525V57.3067H110.651V43.9525H107.976ZM145.577 91.8907C145.577 85.368 143.792 80.1354 140.049 76.3922L138.157 78.2838C141.263 81.3889 142.902 85.8581 142.902 91.8907H145.577ZM140.08 76.4242C136.513 72.6116 132.049 70.693 126.776 70.693V73.3681C131.319 73.3681 135.073 74.9878 138.126 78.2518L140.08 76.4242ZM126.776 70.693C121.505 70.693 116.992 72.6101 113.317 76.4078L115.239 78.2682C118.412 74.9893 122.232 73.3681 126.776 73.3681V70.693ZM113.301 76.4242C109.701 80.2725 107.976 85.4838 107.976 91.8907H110.651C110.651 85.9705 112.235 81.4801 115.255 78.2518L113.301 76.4242ZM107.976 91.8907C107.976 98.404 109.697 103.676 113.301 107.528L115.255 105.701C112.239 102.477 110.651 97.9326 110.651 91.8907H107.976ZM113.317 107.545C116.992 111.342 121.505 113.26 126.776 113.26V110.584C122.232 110.584 118.412 108.963 115.239 105.684L113.317 107.545ZM126.776 113.26C132.049 113.26 136.513 111.341 140.08 107.528L138.126 105.701C135.073 108.965 131.319 110.584 126.776 110.584V113.26ZM140.079 107.529C143.786 103.575 145.577 98.3114 145.577 91.8907H142.902C142.902 97.7969 141.268 102.349 138.127 105.7L140.079 107.529ZM283.378 98.739V100.077H284.552L284.704 98.912L283.378 98.739ZM219.86 98.739V97.4014H218.432L218.525 98.826L219.86 98.739ZM224.14 110.552L223.173 111.477L223.194 111.498L223.215 111.519L224.14 110.552ZM246.055 106.786V105.448H245.211L244.847 106.21L246.055 106.786ZM281.837 106.786L283.142 107.078L283.507 105.448H281.837V106.786ZM273.105 124.591L272.074 123.739L272.072 123.742L273.105 124.591ZM257.012 136.747L257.567 137.964L257.012 136.747ZM210.101 135.206L209.459 136.38L209.467 136.384L210.101 135.206ZM192.809 118.085L191.639 118.733L191.643 118.74L191.646 118.747L192.809 118.085ZM192.809 65.8671L193.975 66.5229L193.979 66.5151L192.809 65.8671ZM209.93 48.7463L209.296 47.5686L209.288 47.5728L209.93 48.7463ZM260.607 48.5751L261.235 47.3939V47.3939L260.607 48.5751ZM277.728 65.3535L276.562 66.0092L276.567 66.0171L277.728 65.3535ZM249.65 82.4742V83.8118H250.987V82.4742H249.65ZM245.541 72.8866L244.66 73.8932L244.672 73.9038L244.685 73.9142L245.541 72.8866ZM225.167 72.7154L226.019 73.7466L226.032 73.7358L226.045 73.7247L225.167 72.7154ZM220.031 82.4742L218.716 82.2319L218.424 83.8118H220.031V82.4742ZM282.554 90.8634C282.554 93.4303 282.386 95.9977 282.051 98.566L284.704 98.912C285.054 96.2299 285.229 93.5469 285.229 90.8634H282.554ZM283.378 97.4014H219.86V100.077H283.378V97.4014ZM218.525 98.826C218.879 104.253 220.366 108.542 223.173 111.477L225.107 109.628C222.892 107.313 221.525 103.726 221.194 98.6519L218.525 98.826ZM223.215 111.519C226.115 114.293 229.768 115.656 234.07 115.656V112.981C230.382 112.981 227.415 111.834 225.064 109.586L223.215 111.519ZM234.07 115.656C237.071 115.656 239.725 114.981 241.973 113.568C244.22 112.155 245.974 110.06 247.262 107.362L244.847 106.21C243.738 108.534 242.296 110.205 240.549 111.303C238.801 112.402 236.662 112.981 234.07 112.981V115.656ZM246.055 108.123H281.837V105.448H246.055V108.123ZM280.532 106.493C279.094 112.907 276.278 118.651 272.074 123.739L274.137 125.443C278.607 120.031 281.612 113.905 283.142 107.078L280.532 106.493ZM272.072 123.742C267.988 128.709 262.792 132.641 256.457 135.53L257.567 137.964C264.244 134.918 269.776 130.746 274.138 125.441L272.072 123.742ZM256.457 135.53C250.142 138.41 243.143 139.861 235.44 139.861V142.536C243.487 142.536 250.87 141.019 257.567 137.964L256.457 135.53ZM235.44 139.861C226.16 139.861 217.936 137.906 210.735 134.029L209.467 136.384C217.104 140.496 225.773 142.536 235.44 142.536V139.861ZM210.743 134.033C203.661 130.16 198.075 124.633 193.971 117.424L191.646 118.747C195.989 126.376 201.931 132.263 209.459 136.38L210.743 134.033ZM193.979 117.437C189.999 110.25 187.983 101.75 187.983 91.8907H185.308C185.308 102.12 187.401 111.082 191.639 118.733L193.979 117.437ZM187.983 91.8907C187.983 82.0306 189.999 73.5912 193.975 66.5229L191.643 65.2113C187.401 72.7527 185.308 81.6623 185.308 91.8907H187.983ZM193.979 66.5151C197.968 59.3135 203.493 53.7908 210.571 49.9199L209.288 47.5728C201.756 51.6916 195.868 57.5827 191.639 65.2191L193.979 66.5151ZM210.564 49.924C217.762 46.0478 226.042 44.0916 235.44 44.0916V41.4165C225.661 41.4165 216.935 43.4552 209.296 47.5686L210.564 49.924ZM235.44 44.0916C244.726 44.0916 252.894 45.9924 259.98 49.7563L261.235 47.3939C253.71 43.3965 245.1 41.4165 235.44 41.4165V44.0916ZM259.98 49.7563C267.055 53.5153 272.577 58.9243 276.562 66.0092L278.894 64.6977C274.661 57.173 268.769 51.3964 261.235 47.3939L259.98 49.7563ZM276.567 66.0171C280.54 72.9712 282.554 81.237 282.554 90.8634H285.229C285.229 80.858 283.133 72.1172 278.889 64.6899L276.567 66.0171ZM250.987 82.4742C250.987 78.0359 249.49 74.4363 246.397 71.8591L244.685 73.9142C247.071 75.9025 248.312 78.6947 248.312 82.4742H250.987ZM246.422 71.88C243.407 69.2421 239.657 67.9537 235.268 67.9537V70.6288C239.098 70.6288 242.196 71.7373 244.66 73.8932L246.422 71.88ZM235.268 67.9537C230.898 67.9537 227.201 69.1745 224.289 71.7061L226.045 73.7247C228.384 71.6908 231.42 70.6288 235.268 70.6288V67.9537ZM224.315 71.6842C221.384 74.106 219.554 77.6783 218.716 82.2319L221.346 82.7166C222.105 78.5957 223.7 75.6621 226.019 73.7466L224.315 71.6842ZM220.031 83.8118H249.65V81.1367H220.031V83.8118ZM298.309 65.8671L299.479 66.5151L298.309 65.8671ZM315.43 48.7463L314.796 47.5686L314.788 47.5728L315.43 48.7463ZM371.586 52.8553L370.745 53.8956L370.754 53.9026L371.586 52.8553ZM387.679 80.7622V82.0997H389.311L388.991 80.4998L387.679 80.7622ZM352.068 80.7622L350.797 81.1782L351.098 82.0997H352.068V80.7622ZM329.982 76.6532L328.892 75.8791L328.887 75.8861L329.982 76.6532ZM329.982 107.299L328.875 108.05L328.883 108.062L328.892 108.073L329.982 107.299ZM352.068 103.19V101.853H351.082L350.79 102.795L352.068 103.19ZM387.679 103.19L388.99 103.455L389.314 101.853H387.679V103.19ZM371.586 131.097L372.427 132.137L371.586 131.097ZM315.43 135.206L314.788 136.38L314.796 136.384L315.43 135.206ZM298.309 118.085L299.479 117.437L298.309 118.085ZM293.483 91.8907C293.483 82.1484 295.497 73.7043 299.479 66.5151L297.139 65.2191C292.903 72.8679 290.808 81.7728 290.808 91.8907H293.483ZM299.479 66.5151C303.468 59.3135 308.993 53.7908 316.071 49.9199L314.788 47.5728C307.256 51.6916 301.368 57.5827 297.139 65.2191L299.479 66.5151ZM316.064 49.924C323.265 46.0466 331.488 44.0916 340.768 44.0916V41.4165C331.102 41.4165 322.433 43.4564 314.796 47.5686L316.064 49.924ZM340.768 44.0916C352.72 44.0916 362.684 47.3804 370.745 53.8956L372.427 51.815C363.824 44.8619 353.242 41.4165 340.768 41.4165V44.0916ZM370.754 53.9026C378.802 60.297 384.023 69.3013 386.368 81.0245L388.991 80.4998C386.542 68.2539 381.034 58.6537 372.418 51.8081L370.754 53.9026ZM387.679 79.4246H352.068V82.0997H387.679V79.4246ZM353.339 80.3461C352.254 77.0307 350.617 74.4233 348.357 72.6481C346.086 70.8635 343.298 70.0082 340.084 70.0082V72.6833C342.804 72.6833 344.981 73.3974 346.705 74.7516C348.44 76.1152 349.827 78.216 350.797 81.1782L353.339 80.3461ZM340.084 70.0082C335.413 70.0082 331.645 71.9988 328.892 75.8791L331.073 77.4273C333.341 74.2309 336.308 72.6833 340.084 72.6833V70.0082ZM328.887 75.8861C326.263 79.6347 325.049 85.0357 325.049 91.8907H327.725C327.725 85.2773 328.908 80.52 331.078 77.4202L328.887 75.8861ZM325.049 91.8907C325.049 98.7504 326.264 104.196 328.875 108.05L331.09 106.549C328.906 103.326 327.725 98.4993 327.725 91.8907H325.049ZM328.892 108.073C331.645 111.954 335.413 113.944 340.084 113.944V111.269C336.308 111.269 333.341 109.722 331.073 106.525L328.892 108.073ZM340.084 113.944C343.349 113.944 346.167 113.093 348.443 111.304C350.709 109.524 352.319 106.908 353.346 103.585L350.79 102.795C349.877 105.75 348.519 107.843 346.79 109.201C345.071 110.552 342.868 111.269 340.084 111.269V113.944ZM352.068 104.528H387.679V101.853H352.068V104.528ZM386.368 102.926C384.024 114.533 378.803 123.544 370.745 130.057L372.427 132.137C381.033 125.182 386.54 115.589 388.99 103.455L386.368 102.926ZM370.745 130.057C362.684 136.572 352.72 139.861 340.768 139.861V142.536C353.242 142.536 363.824 139.091 372.427 132.137L370.745 130.057ZM340.768 139.861C331.488 139.861 323.265 137.906 316.064 134.029L314.796 136.384C322.433 140.496 331.102 142.536 340.768 142.536V139.861ZM316.071 134.033C308.993 130.162 303.468 124.639 299.479 117.437L297.139 118.733C301.368 126.37 307.256 132.261 314.788 136.38L316.071 134.033ZM299.479 117.437C295.499 110.25 293.483 101.75 293.483 91.8907H290.808C290.808 102.12 292.901 111.082 297.139 118.733L299.479 117.437ZM404.187 30.2559L403.274 31.2327L403.29 31.2479L403.307 31.2625L404.187 30.2559ZM404.187 5.43082L403.289 4.4397L403.281 4.44681L403.274 4.45403L404.187 5.43082ZM432.608 5.43082L431.694 6.4076L431.702 6.41483L431.71 6.42193L432.608 5.43082ZM432.608 30.2559L433.504 31.2485L433.506 31.247L432.608 30.2559ZM435.176 43.9525H436.514V42.615H435.176V43.9525ZM435.176 140V141.338H436.514V140H435.176ZM401.619 140H400.282V141.338H401.619V140ZM401.619 43.9525V42.615H400.282V43.9525H401.619ZM418.569 33.7122C412.882 33.7122 408.426 32.187 405.068 29.2493L403.307 31.2625C407.254 34.7166 412.385 36.3873 418.569 36.3873V33.7122ZM405.101 29.2791C401.837 26.2257 400.218 22.4722 400.218 17.929H397.542C397.542 23.2017 399.461 27.6661 403.274 31.2327L405.101 29.2791ZM400.218 17.929C400.218 13.2618 401.844 9.45446 405.101 6.4076L403.274 4.45403C399.454 8.0272 397.542 12.5519 397.542 17.929H400.218ZM405.086 6.42193C408.444 3.37857 412.894 1.80334 418.569 1.80334V-0.871773C412.373 -0.871773 407.236 0.863026 403.289 4.4397L405.086 6.42193ZM418.569 1.80334C424.123 1.80334 428.452 3.37452 431.694 6.4076L433.522 4.45403C429.687 0.867081 424.657 -0.871773 418.569 -0.871773V1.80334ZM431.71 6.42193C435.076 9.47299 436.749 13.2763 436.749 17.929H439.424C439.424 12.5374 437.444 8.00866 433.506 4.4397L431.71 6.42193ZM436.749 17.929C436.749 22.4575 435.084 26.2071 431.71 29.2648L433.506 31.247C437.437 27.6847 439.424 23.2164 439.424 17.929H436.749ZM431.711 29.2633C428.47 32.1906 424.135 33.7122 418.569 33.7122V36.3873C424.645 36.3873 429.669 34.713 433.504 31.2485L431.711 29.2633ZM433.838 43.9525V140H436.514V43.9525H433.838ZM435.176 138.662H401.619V141.338H435.176V138.662ZM402.957 140V43.9525H400.282V140H402.957ZM401.619 45.2901H435.176V42.615H401.619V45.2901ZM454.115 65.8671L452.915 65.2763L452.911 65.2838L452.907 65.2913L454.115 65.8671ZM468.838 48.7463L468.12 47.6178L468.111 47.6239L468.838 48.7463ZM506.846 46.6918L506.204 47.865L506.846 46.6918ZM517.975 57.3067L516.823 57.9862L519.313 62.2078V57.3067H517.975ZM517.975 43.9525V42.615H516.637V43.9525H517.975ZM551.532 43.9525H552.869V42.615H551.532V43.9525ZM551.532 140V141.338H552.869V140H551.532ZM517.975 140H516.637V141.338H517.975V140ZM517.975 126.646H519.313V121.745L516.823 125.966L517.975 126.646ZM506.675 137.261L506.044 136.081L506.033 136.088L506.675 137.261ZM468.838 135.206L468.111 136.329L468.12 136.335L468.838 135.206ZM454.115 118.085L452.904 118.654L452.909 118.665L452.915 118.676L454.115 118.085ZM512.839 77.338L511.862 78.2518L511.87 78.26L511.878 78.2682L512.839 77.338ZM488.014 77.338L488.975 78.2676L488.983 78.2598L488.99 78.2518L488.014 77.338ZM488.014 106.615L487.023 107.513L487.03 107.521L487.037 107.528L488.014 106.615ZM512.839 106.615L511.878 105.684L511.87 105.692L511.862 105.701L512.839 106.615ZM450.145 91.8907C450.145 82.119 451.885 73.6485 455.322 66.4429L452.907 65.2913C449.267 72.9237 447.47 81.8022 447.47 91.8907H450.145ZM455.315 66.4579C458.874 59.2276 463.63 53.7163 469.566 49.8688L468.111 47.6239C461.72 51.766 456.66 57.6686 452.915 65.2763L455.315 66.4579ZM469.556 49.8748C475.613 46.0205 482.325 44.0916 489.726 44.0916V41.4165C481.832 41.4165 474.619 43.4825 468.12 47.6179L469.556 49.8748ZM489.726 44.0916C496.168 44.0916 501.645 45.3683 506.204 47.865L507.489 45.5187C502.461 42.7651 496.523 41.4165 489.726 41.4165V44.0916ZM506.204 47.865C510.799 50.3815 514.327 53.7543 516.823 57.9862L519.127 56.6273C516.372 51.9563 512.481 48.2526 507.489 45.5187L506.204 47.865ZM519.313 57.3067V43.9525H516.637V57.3067H519.313ZM517.975 45.2901H551.532V42.615H517.975V45.2901ZM550.194 43.9525V140H552.869V43.9525H550.194ZM551.532 138.662H517.975V141.338H551.532V138.662ZM519.313 140V126.646H516.637V140H519.313ZM516.823 125.966C514.332 130.19 510.753 133.562 506.044 136.081L507.306 138.44C512.413 135.708 516.368 132.004 519.127 127.325L516.823 125.966ZM506.033 136.088C501.47 138.586 496.05 139.861 489.726 139.861V142.536C496.413 142.536 502.293 141.186 507.318 138.434L506.033 136.088ZM489.726 139.861C482.325 139.861 475.613 137.932 469.556 134.078L468.12 136.335C474.619 140.47 481.832 142.536 489.726 142.536V139.861ZM469.566 134.084C463.63 130.236 458.874 124.725 455.315 117.495L452.915 118.676C456.66 126.284 461.72 132.186 468.111 136.329L469.566 134.084ZM455.325 117.517C451.885 110.193 450.145 101.662 450.145 91.8907H447.47C447.47 101.98 449.267 110.912 452.904 118.654L455.325 117.517ZM519.313 91.8907C519.313 85.4718 517.523 80.2546 513.8 76.4078L511.878 78.2682C515.003 81.498 516.637 85.9825 516.637 91.8907H519.313ZM513.816 76.4242C510.249 72.6116 505.785 70.693 500.512 70.693V73.3681C505.055 73.3681 508.809 74.9878 511.862 78.2518L513.816 76.4242ZM500.512 70.693C495.135 70.693 490.61 72.6047 487.037 76.4242L488.99 78.2518C492.037 74.9948 495.845 73.3681 500.512 73.3681V70.693ZM487.052 76.4084C483.432 80.1533 481.711 85.38 481.711 91.8907H484.386C484.386 85.8461 485.975 81.371 488.975 78.2676L487.052 76.4084ZM481.711 91.8907C481.711 98.2996 483.438 103.557 487.023 107.513L489.005 105.716C485.97 102.367 484.386 97.8086 484.386 91.8907H481.711ZM487.037 107.528C490.61 111.348 495.135 113.26 500.512 113.26V110.584C495.845 110.584 492.037 108.958 488.99 105.701L487.037 107.528ZM500.512 113.26C505.785 113.26 510.249 111.341 513.816 107.528L511.862 105.701C508.809 108.965 505.055 110.584 500.512 110.584V113.26ZM513.8 107.545C517.527 103.693 519.313 98.4158 519.313 91.8907H516.637C516.637 97.9208 514.999 102.459 511.878 105.684L513.8 107.545ZM604.21 13.3064H605.548V11.9688H604.21V13.3064ZM604.21 140V141.338H605.548V140H604.21ZM570.653 140H569.316V141.338H570.653V140ZM570.653 13.3064V11.9688H569.316V13.3064H570.653ZM602.873 13.3064V140H605.548V13.3064H602.873ZM604.21 138.662H570.653V141.338H604.21V138.662ZM571.991 140V13.3064H569.316V140H571.991ZM570.653 14.6439H604.21V11.9688H570.653V14.6439ZM689.647 46.1782V44.8407H688.309V46.1782H689.647ZM689.647 65.8671H688.309V67.2047H689.647V65.8671ZM728.168 65.8671H729.506V64.5295H728.168V65.8671ZM728.168 91.377V92.7146H729.506V91.377H728.168ZM689.647 91.377V90.0395H688.309V91.377H689.647ZM689.647 113.12H688.309V114.458H689.647V113.12ZM733.305 113.12H734.642V111.783H733.305V113.12ZM733.305 140V141.338H734.642V140H733.305ZM656.09 140H654.752V141.338H656.09V140ZM656.09 19.2986V17.9611H654.752V19.2986H656.09ZM733.305 19.2986H734.642V17.9611H733.305V19.2986ZM733.305 46.1782V47.5158H734.642V46.1782H733.305ZM688.309 46.1782V65.8671H690.984V46.1782H688.309ZM689.647 67.2047H728.168V64.5295H689.647V67.2047ZM726.831 65.8671V91.377H729.506V65.8671H726.831ZM728.168 90.0395H689.647V92.7146H728.168V90.0395ZM688.309 91.377V113.12H690.984V91.377H688.309ZM689.647 114.458H733.305V111.783H689.647V114.458ZM731.967 113.12V140H734.642V113.12H731.967ZM733.305 138.662H656.09V141.338H733.305V138.662ZM657.428 140V19.2986H654.752V140H657.428ZM656.09 20.6362H733.305V17.9611H656.09V20.6362ZM731.967 19.2986V46.1782H734.642V19.2986H731.967ZM733.305 44.8407H689.647V47.5158H733.305V44.8407ZM801.762 71.8594V73.1969H803.1V71.8594H801.762ZM786.696 71.8594V70.5218H785.358V71.8594H786.696ZM786.696 140V141.338H788.034V140H786.696ZM752.968 140H751.631V141.338H752.968V140ZM752.968 71.8594H754.306V70.5218H752.968V71.8594ZM742.524 71.8594H741.187V73.1969H742.524V71.8594ZM742.524 43.9525V42.615H741.187V43.9525H742.524ZM752.968 43.9525V45.2901H754.306V43.9525H752.968ZM763.754 14.8472L764.652 15.8391L764.652 15.8383L763.754 14.8472ZM801.42 5.08839H802.757V3.84977L801.522 3.75478L801.42 5.08839ZM801.42 33.6801L801.254 35.0073L802.757 35.1952V33.6801H801.42ZM789.607 36.077L790.519 37.0548L790.536 37.0391L790.552 37.0228L789.607 36.077ZM786.696 43.9525L785.361 43.8691L785.272 45.2901H786.696V43.9525ZM801.762 43.9525H803.1V42.615H801.762V43.9525ZM801.762 70.5218H786.696V73.1969H801.762V70.5218ZM785.358 71.8594V140H788.034V71.8594H785.358ZM786.696 138.662H752.968V141.338H786.696V138.662ZM754.306 140V71.8594H751.631V140H754.306ZM752.968 70.5218H742.524V73.1969H752.968V70.5218ZM743.862 71.8594V43.9525H741.187V71.8594H743.862ZM742.524 45.2901H752.968V42.615H742.524V45.2901ZM754.306 43.9525V43.0965H751.631V43.9525H754.306ZM754.306 43.0965C754.306 31.0381 757.813 22.0263 764.652 15.8391L762.857 13.8554C755.314 20.68 751.631 30.501 751.631 43.0965H754.306ZM764.652 15.8383C771.631 9.51356 781.709 6.25475 795.085 6.25475V3.57963C781.297 3.57963 770.487 6.94085 762.856 13.8561L764.652 15.8383ZM795.085 6.25475C797.814 6.25475 799.885 6.31183 801.317 6.42201L801.522 3.75478C799.987 3.63669 797.835 3.57963 795.085 3.57963V6.25475ZM800.082 5.08839V33.6801H802.757V5.08839H800.082ZM801.586 32.3528C800.592 32.2286 799.273 32.1713 797.653 32.1713V34.8464C799.23 34.8464 800.422 34.9033 801.254 35.0073L801.586 32.3528ZM797.653 32.1713C793.824 32.1713 790.726 33.0656 788.661 35.1312L790.552 37.0228C791.911 35.6642 794.178 34.8464 797.653 34.8464V32.1713ZM788.694 35.0991C786.623 37.0318 785.599 40.0605 785.361 43.8691L788.031 44.036C788.25 40.5397 789.166 38.318 790.519 37.0548L788.694 35.0991ZM786.696 45.2901H801.762V42.615H786.696V45.2901ZM800.425 43.9525V71.8594H803.1V43.9525H800.425ZM865.631 71.8594V73.1969H866.968V71.8594H865.631ZM850.565 71.8594V70.5218H849.227V71.8594H850.565ZM850.565 140V141.338H851.902V140H850.565ZM816.837 140H815.499V141.338H816.837V140ZM816.837 71.8594H818.174V70.5218H816.837V71.8594ZM806.393 71.8594H805.055V73.1969H806.393V71.8594ZM806.393 43.9525V42.615H805.055V43.9525H806.393ZM816.837 43.9525V45.2901H818.174V43.9525H816.837ZM827.623 14.8472L828.52 15.8391L828.521 15.8383L827.623 14.8472ZM865.288 5.08839H866.626V3.84977L865.391 3.75478L865.288 5.08839ZM865.288 33.6801L865.122 35.0073L866.626 35.1952V33.6801H865.288ZM853.475 36.077L854.388 37.0548L854.405 37.0391L854.421 37.0228L853.475 36.077ZM850.565 43.9525L849.23 43.8691L849.141 45.2901H850.565V43.9525ZM865.631 43.9525H866.968V42.615H865.631V43.9525ZM865.631 70.5218H850.565V73.1969H865.631V70.5218ZM849.227 71.8594V140H851.902V71.8594H849.227ZM850.565 138.662H816.837V141.338H850.565V138.662ZM818.174 140V71.8594H815.499V140H818.174ZM816.837 70.5218H806.393V73.1969H816.837V70.5218ZM807.73 71.8594V43.9525H805.055V71.8594H807.73ZM806.393 45.2901H816.837V42.615H806.393V45.2901ZM818.174 43.9525V43.0965H815.499V43.9525H818.174ZM818.174 43.0965C818.174 31.0381 821.682 22.0263 828.52 15.8391L826.725 13.8554C819.182 20.68 815.499 30.501 815.499 43.0965H818.174ZM828.521 15.8383C835.5 9.51356 845.577 6.25475 858.954 6.25475V3.57963C845.165 3.57963 834.355 6.94085 826.724 13.8561L828.521 15.8383ZM858.954 6.25475C861.682 6.25475 863.753 6.31183 865.186 6.42201L865.391 3.75478C863.856 3.63669 861.704 3.57963 858.954 3.57963V6.25475ZM863.951 5.08839V33.6801H866.626V5.08839H863.951ZM865.454 32.3528C864.46 32.2286 863.141 32.1713 861.522 32.1713V34.8464C863.098 34.8464 864.29 34.9033 865.122 35.0073L865.454 32.3528ZM861.522 32.1713C857.692 32.1713 854.595 33.0656 852.529 35.1312L854.421 37.0228C855.779 35.6642 858.046 34.8464 861.522 34.8464V32.1713ZM852.562 35.0991C850.492 37.0318 849.468 40.0605 849.23 43.8691L851.899 44.036C852.118 40.5397 853.034 38.318 854.388 37.0548L852.562 35.0991ZM850.565 45.2901H865.631V42.615H850.565V45.2901ZM864.293 43.9525V71.8594H866.968V43.9525H864.293ZM968.877 98.739V100.077H970.051L970.203 98.912L968.877 98.739ZM905.359 98.739V97.4014H903.931L904.024 98.826L905.359 98.739ZM909.639 110.552L908.673 111.477L908.693 111.498L908.715 111.519L909.639 110.552ZM931.554 106.786V105.448H930.71L930.347 106.21L931.554 106.786ZM967.336 106.786L968.641 107.078L969.007 105.448H967.336V106.786ZM958.605 124.591L957.573 123.739L957.571 123.742L958.605 124.591ZM942.511 136.747L943.066 137.964L942.511 136.747ZM895.6 135.206L894.958 136.38L894.966 136.384L895.6 135.206ZM878.308 118.085L877.138 118.733L877.142 118.74L877.146 118.747L878.308 118.085ZM878.308 65.8671L879.474 66.5229L879.478 66.5151L878.308 65.8671ZM895.429 48.7463L894.795 47.5686L894.787 47.5728L895.429 48.7463ZM946.106 48.5751L946.734 47.3939V47.3939L946.106 48.5751ZM963.227 65.3535L962.061 66.0092L962.066 66.0171L963.227 65.3535ZM935.149 82.4742V83.8118H936.487V82.4742H935.149ZM931.04 72.8866L930.159 73.8932L930.171 73.9038L930.184 73.9142L931.04 72.8866ZM910.666 72.7154L911.518 73.7466L911.531 73.7358L911.544 73.7247L910.666 72.7154ZM905.53 82.4742L904.215 82.2319L903.924 83.8118H905.53V82.4742ZM968.053 90.8634C968.053 93.4303 967.886 95.9977 967.551 98.566L970.203 98.912C970.553 96.2299 970.728 93.5469 970.728 90.8634H968.053ZM968.877 97.4014H905.359V100.077H968.877V97.4014ZM904.024 98.826C904.378 104.253 905.865 108.542 908.673 111.477L910.606 109.628C908.391 107.313 907.025 103.726 906.694 98.6519L904.024 98.826ZM908.715 111.519C911.615 114.293 915.267 115.656 919.569 115.656V112.981C915.881 112.981 912.914 111.834 910.564 109.586L908.715 111.519ZM919.569 115.656C922.57 115.656 925.224 114.981 927.472 113.568C929.72 112.155 931.473 110.06 932.761 107.362L930.347 106.21C929.237 108.534 927.795 110.205 926.048 111.303C924.301 112.402 922.161 112.981 919.569 112.981V115.656ZM931.554 108.123H967.336V105.448H931.554V108.123ZM966.031 106.493C964.593 112.907 961.777 118.651 957.573 123.739L959.636 125.443C964.107 120.031 967.111 113.905 968.641 107.078L966.031 106.493ZM957.571 123.742C953.487 128.709 948.291 132.641 941.956 135.53L943.066 137.964C949.743 134.918 955.276 130.746 959.638 125.441L957.571 123.742ZM941.956 135.53C935.641 138.41 928.642 139.861 920.939 139.861V142.536C928.986 142.536 936.369 141.019 943.066 137.964L941.956 135.53ZM920.939 139.861C911.659 139.861 903.435 137.906 896.234 134.029L894.966 136.384C902.603 140.496 911.272 142.536 920.939 142.536V139.861ZM896.242 134.033C889.16 130.16 883.574 124.633 879.471 117.424L877.146 118.747C881.488 126.376 887.43 132.263 894.958 136.38L896.242 134.033ZM879.478 117.437C875.498 110.25 873.482 101.75 873.482 91.8907H870.807C870.807 102.12 872.901 111.082 877.138 118.733L879.478 117.437ZM873.482 91.8907C873.482 82.0306 875.498 73.5912 879.474 66.5229L877.142 65.2113C872.9 72.7527 870.807 81.6623 870.807 91.8907H873.482ZM879.478 66.5151C883.467 59.3135 888.992 53.7908 896.071 49.9199L894.787 47.5728C887.256 51.6916 881.367 57.5827 877.138 65.2191L879.478 66.5151ZM896.063 49.924C903.262 46.0478 911.542 44.0916 920.939 44.0916V41.4165C911.161 41.4165 902.434 43.4552 894.795 47.5686L896.063 49.924ZM920.939 44.0916C930.226 44.0916 938.394 45.9924 945.479 49.7563L946.734 47.3939C939.209 43.3965 930.599 41.4165 920.939 41.4165V44.0916ZM945.479 49.7563C952.555 53.5153 958.076 58.9243 962.061 66.0092L964.393 64.6977C960.16 57.173 954.268 51.3964 946.734 47.3939L945.479 49.7563ZM962.066 66.0171C966.04 72.9712 968.053 81.237 968.053 90.8634H970.728C970.728 80.858 968.633 72.1172 964.388 64.6899L962.066 66.0171ZM936.487 82.4742C936.487 78.0359 934.989 74.4363 931.896 71.8591L930.184 73.9142C932.57 75.9025 933.812 78.6947 933.812 82.4742H936.487ZM931.921 71.88C928.906 69.2421 925.156 67.9537 920.768 67.9537V70.6288C924.597 70.6288 927.695 71.7373 930.159 73.8932L931.921 71.88ZM920.768 67.9537C916.398 67.9537 912.7 69.1745 909.789 71.7061L911.544 73.7247C913.883 71.6908 916.92 70.6288 920.768 70.6288V67.9537ZM909.815 71.6842C906.883 74.106 905.054 77.6783 904.215 82.2319L906.846 82.7166C907.605 78.5957 909.2 75.6621 911.518 73.7466L909.815 71.6842ZM905.53 83.8118H935.149V81.1367H905.53V83.8118ZM983.808 65.8671L984.978 66.5151L983.808 65.8671ZM1000.93 48.7463L1000.29 47.5686L1000.29 47.5728L1000.93 48.7463ZM1057.09 52.8553L1056.24 53.8956L1056.25 53.9026L1057.09 52.8553ZM1073.18 80.7622V82.0997H1074.81L1074.49 80.4998L1073.18 80.7622ZM1037.57 80.7622L1036.3 81.1782L1036.6 82.0997H1037.57V80.7622ZM1015.48 76.6532L1014.39 75.8791L1014.39 75.8861L1015.48 76.6532ZM1015.48 107.299L1014.37 108.05L1014.38 108.062L1014.39 108.073L1015.48 107.299ZM1037.57 103.19V101.853H1036.58L1036.29 102.795L1037.57 103.19ZM1073.18 103.19L1074.49 103.455L1074.81 101.853H1073.18V103.19ZM1057.09 131.097L1057.93 132.137L1057.09 131.097ZM1000.93 135.206L1000.29 136.38L1000.29 136.384L1000.93 135.206ZM983.808 118.085L984.978 117.437L983.808 118.085ZM978.982 91.8907C978.982 82.1484 980.997 73.7043 984.978 66.5151L982.638 65.2191C978.402 72.8679 976.307 81.7728 976.307 91.8907H978.982ZM984.978 66.5151C988.967 59.3135 994.493 53.7908 1001.57 49.9199L1000.29 47.5728C992.756 51.6916 986.867 57.5827 982.638 65.2191L984.978 66.5151ZM1001.56 49.924C1008.76 46.0466 1016.99 44.0916 1026.27 44.0916V41.4165C1016.6 41.4165 1007.93 43.4564 1000.29 47.5686L1001.56 49.924ZM1026.27 44.0916C1038.22 44.0916 1048.18 47.3804 1056.24 53.8956L1057.93 51.815C1049.32 44.8619 1038.74 41.4165 1026.27 41.4165V44.0916ZM1056.25 53.9026C1064.3 60.297 1069.52 69.3013 1071.87 81.0245L1074.49 80.4998C1072.04 68.2539 1066.53 58.6537 1057.92 51.8081L1056.25 53.9026ZM1073.18 79.4246H1037.57V82.0997H1073.18V79.4246ZM1038.84 80.3461C1037.75 77.0307 1036.12 74.4233 1033.86 72.6481C1031.59 70.8635 1028.8 70.0082 1025.58 70.0082V72.6833C1028.3 72.6833 1030.48 73.3974 1032.2 74.7516C1033.94 76.1152 1035.33 78.216 1036.3 81.1782L1038.84 80.3461ZM1025.58 70.0082C1020.91 70.0082 1017.14 71.9988 1014.39 75.8791L1016.57 77.4273C1018.84 74.2309 1021.81 72.6833 1025.58 72.6833V70.0082ZM1014.39 75.8861C1011.76 79.6347 1010.55 85.0357 1010.55 91.8907H1013.22C1013.22 85.2773 1014.41 80.52 1016.58 77.4202L1014.39 75.8861ZM1010.55 91.8907C1010.55 98.7504 1011.76 104.196 1014.37 108.05L1016.59 106.549C1014.41 103.326 1013.22 98.4993 1013.22 91.8907H1010.55ZM1014.39 108.073C1017.14 111.954 1020.91 113.944 1025.58 113.944V111.269C1021.81 111.269 1018.84 109.722 1016.57 106.525L1014.39 108.073ZM1025.58 113.944C1028.85 113.944 1031.67 113.093 1033.94 111.304C1036.21 109.524 1037.82 106.908 1038.85 103.585L1036.29 102.795C1035.38 105.75 1034.02 107.843 1032.29 109.201C1030.57 110.552 1028.37 111.269 1025.58 111.269V113.944ZM1037.57 104.528H1073.18V101.853H1037.57V104.528ZM1071.87 102.926C1069.52 114.533 1064.3 123.544 1056.24 130.057L1057.93 132.137C1066.53 125.182 1072.04 115.589 1074.49 103.455L1071.87 102.926ZM1056.24 130.057C1048.18 136.572 1038.22 139.861 1026.27 139.861V142.536C1038.74 142.536 1049.32 139.091 1057.93 132.137L1056.24 130.057ZM1026.27 139.861C1016.99 139.861 1008.76 137.906 1001.56 134.029L1000.29 136.384C1007.93 140.496 1016.6 142.536 1026.27 142.536V139.861ZM1001.57 134.033C994.493 130.162 988.967 124.639 984.978 117.437L982.638 118.733C986.867 126.37 992.756 132.261 1000.29 136.38L1001.57 134.033ZM984.978 117.437C980.998 110.25 978.982 101.75 978.982 91.8907H976.307C976.307 102.12 978.401 111.082 982.638 118.733L984.978 117.437ZM1143.79 111.408H1145.13V110.071H1143.79V111.408ZM1143.79 140V141.338H1145.13V140H1143.79ZM1092.43 71.8594H1093.76V70.5218H1092.43V71.8594ZM1080.61 71.8594H1079.28V73.1969H1080.61V71.8594ZM1080.61 43.9525V42.615H1079.28V43.9525H1080.61ZM1092.43 43.9525V45.2901H1093.76V43.9525H1092.43ZM1092.43 20.6683V19.3307H1091.09V20.6683H1092.43ZM1126.15 20.6683H1127.49V19.3307H1126.15V20.6683ZM1126.15 43.9525H1124.82V45.2901H1126.15V43.9525ZM1143.62 43.9525H1144.95V42.615H1143.62V43.9525ZM1143.62 71.8594V73.1969H1144.95V71.8594H1143.62ZM1126.15 71.8594V70.5218H1124.82V71.8594H1126.15ZM1127.87 109.696L1126.92 110.642L1126.94 110.665L1126.97 110.686L1127.87 109.696ZM1142.45 111.408V140H1145.13V111.408H1142.45ZM1143.79 138.662H1129.24V141.338H1143.79V138.662ZM1129.24 138.662C1117.17 138.662 1108.36 135.674 1102.57 129.933C1096.78 124.194 1093.76 115.479 1093.76 103.533H1091.09C1091.09 115.898 1094.21 125.417 1100.69 131.833C1107.16 138.248 1116.76 141.338 1129.24 141.338V138.662ZM1093.76 103.533V71.8594H1091.09V103.533H1093.76ZM1092.43 70.5218H1080.61V73.1969H1092.43V70.5218ZM1081.95 71.8594V43.9525H1079.28V71.8594H1081.95ZM1080.61 45.2901H1092.43V42.615H1080.61V45.2901ZM1093.76 43.9525V20.6683H1091.09V43.9525H1093.76ZM1092.43 22.0059H1126.15V19.3307H1092.43V22.0059ZM1124.82 20.6683V43.9525H1127.49V20.6683H1124.82ZM1126.15 45.2901H1143.62V42.615H1126.15V45.2901ZM1142.28 43.9525V71.8594H1144.95V43.9525H1142.28ZM1143.62 70.5218H1126.15V73.1969H1143.62V70.5218ZM1124.82 71.8594V104.046H1127.49V71.8594H1124.82ZM1124.82 104.046C1124.82 106.814 1125.41 109.132 1126.92 110.642L1128.81 108.75C1128.04 107.978 1127.49 106.529 1127.49 104.046H1124.82ZM1126.97 110.686C1128.59 112.161 1131.05 112.746 1134.03 112.746V110.071C1131.3 110.071 1129.65 109.514 1128.77 108.707L1126.97 110.686ZM1134.03 112.746H1143.79V110.071H1134.03V112.746ZM1176.81 136.918L1176.27 138.142L1176.29 138.148L1176.3 138.153L1176.81 136.918ZM1160.72 124.934L1159.65 125.74L1159.66 125.753L1159.67 125.766L1160.72 124.934ZM1154.21 107.642V106.304H1152.78L1152.88 107.737L1154.21 107.642ZM1186.74 107.642L1188.07 107.446L1187.9 106.304H1186.74V107.642ZM1204.89 105.93L1205.43 104.703L1204.89 105.93ZM1191.88 102.163L1192.18 100.859L1192.16 100.855L1192.14 100.852L1191.88 102.163ZM1174.76 97.5405L1174.29 98.7929L1174.76 97.5405ZM1162.77 89.1513L1161.76 90.0193L1161.76 90.0279L1161.77 90.0363L1162.77 89.1513ZM1162.43 57.9915L1163.54 58.7399L1163.55 58.7336L1163.55 58.7272L1162.43 57.9915ZM1175.96 46.8631L1175.41 45.6446L1175.4 45.6486L1175.96 46.8631ZM1227.32 51.9993L1226.45 53.0148L1227.32 51.9993ZM1239.82 76.3108V77.6483H1241.32L1241.15 76.1597L1239.82 76.3108ZM1209.51 76.3108L1208.2 76.5543L1208.4 77.6483H1209.51V76.3108ZM1205.41 69.2913L1204.55 70.3188L1204.58 70.3444L1204.61 70.3681L1205.41 69.2913ZM1190.68 68.264L1189.92 67.1643L1189.9 67.1787L1189.88 67.194L1190.68 68.264ZM1192.57 77.8516L1191.99 79.0583L1192.01 79.0687L1192.03 79.0783L1192.57 77.8516ZM1205.23 81.447L1204.95 82.7545L1204.96 82.7552L1205.23 81.447ZM1222.53 86.412L1222.03 87.6539L1222.04 87.6581L1222.53 86.412ZM1234.68 95.3148L1233.65 96.1711L1233.67 96.1866L1233.68 96.2017L1234.68 95.3148ZM1235.02 126.817L1233.95 126.019L1233.94 126.028L1233.94 126.037L1235.02 126.817ZM1221.16 137.432L1221.68 138.664L1221.69 138.659L1221.16 137.432ZM1200.1 139.861C1191.57 139.861 1183.99 138.459 1177.33 135.684L1176.3 138.153C1183.34 141.085 1191.28 142.536 1200.1 142.536V139.861ZM1177.35 135.694C1170.79 132.801 1165.61 128.93 1161.77 124.101L1159.67 125.766C1163.82 130.982 1169.37 135.1 1176.27 138.142L1177.35 135.694ZM1161.79 124.127C1158.06 119.196 1155.99 113.679 1155.55 107.546L1152.88 107.737C1153.36 114.388 1155.62 120.399 1159.65 125.74L1161.79 124.127ZM1154.21 108.979H1186.74V106.304H1154.21V108.979ZM1185.42 107.838C1185.93 111.256 1187.54 113.985 1190.25 115.921L1191.8 113.744C1189.72 112.256 1188.47 110.191 1188.07 107.446L1185.42 107.838ZM1190.25 115.921C1192.91 117.825 1196.17 118.738 1199.93 118.738V116.063C1196.61 116.063 1193.93 115.264 1191.8 113.744L1190.25 115.921ZM1199.93 118.738C1202.84 118.738 1205.31 118.133 1207.21 116.777L1205.66 114.6C1204.36 115.527 1202.49 116.063 1199.93 116.063V118.738ZM1207.21 116.777C1209.13 115.407 1210.17 113.532 1210.17 111.237H1207.49C1207.49 112.595 1206.93 113.688 1205.66 114.6L1207.21 116.777ZM1210.17 111.237C1210.17 109.778 1209.76 108.451 1208.92 107.316C1208.09 106.195 1206.89 105.34 1205.43 104.703L1204.36 107.156C1205.52 107.661 1206.29 108.261 1206.77 108.91C1207.24 109.543 1207.49 110.299 1207.49 111.237H1210.17ZM1205.43 104.703C1202.68 103.508 1198.23 102.23 1192.18 100.859L1191.58 103.468C1197.62 104.835 1201.86 106.068 1204.36 107.156L1205.43 104.703ZM1192.14 100.852C1185.34 99.4905 1179.71 97.9667 1175.23 96.2881L1174.29 98.7929C1178.94 100.538 1184.73 102.096 1191.62 103.475L1192.14 100.852ZM1175.23 96.2881C1170.88 94.6577 1167.07 91.9932 1163.78 88.2664L1161.77 90.0363C1165.33 94.0709 1169.51 96.9992 1174.29 98.7929L1175.23 96.2881ZM1163.79 88.2833C1160.74 84.7092 1159.15 79.7987 1159.15 73.4002H1156.47C1156.47 80.2419 1158.19 85.832 1161.76 90.0193L1163.79 88.2833ZM1159.15 73.4002C1159.15 67.9498 1160.61 63.0761 1163.54 58.7399L1161.32 57.2432C1158.09 62.0381 1156.47 67.4368 1156.47 73.4002H1159.15ZM1163.55 58.7272C1166.47 54.2886 1170.77 50.73 1176.52 48.0775L1175.4 45.6486C1169.27 48.4748 1164.56 52.3352 1161.32 57.2559L1163.55 58.7272ZM1176.51 48.0815C1182.35 45.439 1189.4 44.0916 1197.7 44.0916V41.4165C1189.11 41.4165 1181.67 42.8085 1175.41 45.6446L1176.51 48.0815ZM1197.7 44.0916C1210.04 44.0916 1219.57 47.1187 1226.45 53.0148L1228.19 50.9837C1220.69 44.5529 1210.47 41.4165 1197.7 41.4165V44.0916ZM1226.45 53.0148C1233.37 58.9427 1237.38 66.7286 1238.49 76.4618L1241.15 76.1597C1239.97 65.8046 1235.66 57.3828 1228.19 50.9837L1226.45 53.0148ZM1239.82 74.9732H1209.51V77.6483H1239.82V74.9732ZM1210.83 76.0672C1210.21 72.71 1208.69 70.0465 1206.2 68.2144L1204.61 70.3681C1206.46 71.7319 1207.68 73.7481 1208.2 76.5543L1210.83 76.0672ZM1206.26 68.2637C1203.9 66.2945 1200.77 65.3856 1197.02 65.3856V68.0607C1200.34 68.0607 1202.8 68.8638 1204.55 70.3188L1206.26 68.2637ZM1197.02 65.3856C1194.14 65.3856 1191.72 65.921 1189.92 67.1643L1191.44 69.3637C1192.61 68.5525 1194.42 68.0607 1197.02 68.0607V65.3856ZM1189.88 67.194C1188.15 68.4928 1187.29 70.3297 1187.29 72.5442H1189.96C1189.96 71.1063 1190.48 70.0897 1191.48 69.3341L1189.88 67.194ZM1187.29 72.5442C1187.29 75.4924 1189.05 77.6537 1191.99 79.0583L1193.14 76.645C1190.83 75.5385 1189.96 74.1615 1189.96 72.5442H1187.29ZM1192.03 79.0783C1194.78 80.2753 1199.12 81.4958 1204.95 82.7545L1205.52 80.1395C1199.71 78.8871 1195.6 77.7107 1193.1 76.625L1192.03 79.0783ZM1204.96 82.7552C1211.87 84.2295 1217.56 85.8654 1222.03 87.6539L1223.02 85.1701C1218.36 83.3062 1212.52 81.6321 1205.51 80.1388L1204.96 82.7552ZM1222.04 87.6581C1226.5 89.3968 1230.37 92.224 1233.65 96.1711L1235.71 94.4585C1232.15 90.1876 1227.92 87.0796 1223.01 85.166L1222.04 87.6581ZM1233.68 96.2017C1236.94 99.8851 1238.65 105.013 1238.65 111.751H1241.33C1241.33 104.563 1239.5 98.7342 1235.68 94.428L1233.68 96.2017ZM1238.65 111.751C1238.65 117.059 1237.09 121.8 1233.95 126.019L1236.1 127.615C1239.58 122.931 1241.33 117.628 1241.33 111.751H1238.65ZM1233.94 126.037C1230.91 130.256 1226.5 133.656 1220.62 136.205L1221.69 138.659C1227.91 135.957 1232.75 132.281 1236.11 127.597L1233.94 126.037ZM1220.64 136.2C1214.9 138.626 1208.07 139.861 1200.1 139.861V142.536C1208.34 142.536 1215.54 141.26 1221.68 138.664L1220.64 136.2Z" fill="#ECECEC" mask="url(#path-1-outside-1_246_85)"/>
</g>
</svg>
