<svg width="70" height="22" viewBox="0 0 70 22" fill="none" xmlns="http://www.w3.org/2000/svg">
<path d="M20.8649 6.33639C20.5504 6.40589 20.2318 6.45965 19.9106 6.49744C19.5513 6.5377 18.8832 6.62326 18.4341 6.68365C18.1338 6.71127 17.8369 6.7635 17.5471 6.83966C17.4629 6.90509 17.4517 21.4345 17.5471 21.5402C18.2094 21.6196 18.8781 21.6465 19.5457 21.6207C21.4881 21.6207 21.4993 21.6207 21.5498 21.4244C21.5498 21.3188 21.5835 17.8713 21.5498 13.7647C21.5498 6.36156 21.5498 6.2911 21.3309 6.276C21.1692 6.2721 21.0079 6.29251 20.8537 6.33639H20.8649ZM18.5295 0.171331C18.0148 0.350119 17.5751 0.668589 17.272 1.08225C16.9689 1.49997 16.9577 1.53519 16.9577 2.40585V3.31174L17.3226 3.75462C17.6302 4.19432 18.1079 4.51686 18.6643 4.6605C19.0686 4.7855 19.5005 4.82148 19.9235 4.76542C20.3466 4.70936 20.7484 4.5629 21.0951 4.33841C22.1112 3.75461 22.4649 2.26997 21.8473 1.17787C21.6355 0.795021 21.2908 0.484185 20.8649 0.292118C20.134 -0.0201147 19.2957 -0.0634715 18.5295 0.171331ZM53.3916 8.89804C53.7902 8.98863 54.6267 9.59758 54.6267 9.78379C54.6545 9.90099 54.7038 10.0132 54.7727 10.116C54.9916 10.5035 55.16 11.7667 55.0084 11.9277C54.8569 12.0888 54.5425 12.0535 52.6169 12.0535H50.3658L50.3096 11.8422C50.2567 11.1207 50.4527 10.402 50.871 9.78379C51.1832 9.34789 51.6592 9.02655 52.2127 8.87791C52.4288 8.81421 52.6536 8.77696 52.8808 8.76719C52.9369 8.76719 53.1671 8.84771 53.386 8.89804H53.3916ZM51.3426 6.18038C51.1156 6.20278 50.8939 6.25713 50.6858 6.34143C50.6213 6.39074 50.5402 6.41911 50.4556 6.42195C50.1931 6.48372 49.9403 6.57504 49.7033 6.69371C48.7724 7.17844 47.9744 7.84396 47.368 8.64137C46.9612 9.2216 46.6332 9.84336 46.3912 10.4934C46.3549 10.6375 46.3061 10.7789 46.2452 10.9162C46.2115 11.0118 46.0936 11.3792 45.9982 11.7315C45.7458 13.3019 45.7458 14.8967 45.9982 16.4672C46.1833 17.1673 46.4663 17.8437 46.8403 18.4803C46.8528 18.4816 46.865 18.485 46.8761 18.4905C46.8871 18.496 46.8968 18.5034 46.9047 18.5123C46.9125 18.5212 46.9183 18.5314 46.9217 18.5423C46.9251 18.5533 46.926 18.5647 46.9245 18.5759C46.9245 18.898 48.0472 20.1864 48.8556 20.7702C49.3871 21.1042 49.967 21.3718 50.5791 21.5654C51.4505 21.7969 52.3493 21.9355 53.2569 21.978C54.6099 21.978 57.0463 21.4748 57.8547 20.9715C58.0314 20.8702 58.2196 20.7858 58.416 20.7199C58.7823 20.5968 59.118 20.4104 59.4041 20.1713C59.154 19.4361 58.775 18.7413 58.2813 18.1129C58.1443 18.1426 58.0173 18.2013 57.9108 18.284C57.805 18.3676 57.6777 18.4264 57.5403 18.4551C57.4258 18.4709 57.3176 18.5125 57.2259 18.5759C56.8611 18.7276 56.4861 18.8587 56.1031 18.9685C55.3889 19.2165 54.6207 19.3146 53.8576 19.2553C52.6787 19.2553 52.4766 19.2553 52.0948 19.0792C50.7644 18.5055 50.0009 17.0661 50.0009 15.1185C49.9821 14.8587 49.9821 14.5981 50.0009 14.3384C50.0009 14.3384 52.1229 14.2981 54.6884 14.273L59.3536 14.2277V13.3721C59.2974 11.7013 58.7922 9.4466 58.3711 8.93327C58.3318 8.88294 58.2027 8.67157 58.0792 8.43C57.4464 7.43297 56.4151 6.68835 55.1937 6.34646C53.9127 6.04015 52.575 5.97334 51.264 6.15018L51.3426 6.18038ZM30.6274 6.18038C28.7752 6.55953 27.0708 7.37825 25.6928 8.55078L25.2943 8.87791V21.4899C25.2943 21.6257 25.4346 21.6358 27.3714 21.6157H29.4373L29.4654 15.667V9.7234L29.8303 9.46673C30.1762 9.20081 30.5822 9.0051 31.0204 8.89301C31.829 8.6647 32.6793 8.57924 33.5242 8.64137C33.7879 8.67739 34.0554 8.68583 34.3213 8.66654C34.4965 8.4741 34.6298 8.25388 34.7143 8.01732C34.8547 7.67509 35.0848 7.23222 35.1971 7.01078C35.5115 6.47228 35.4834 6.33639 35.0624 6.25084L34.2427 6.07973C33.05 5.93851 31.8402 5.96227 30.6555 6.15018L30.6274 6.18038ZM9.67087 14.1924C9.76322 14.9595 9.79512 15.7314 9.7663 16.5025C9.7663 18.9282 9.8056 18.7772 9.09825 19.1094C8.62472 19.2649 8.11746 19.32 7.61619 19.2704H6.45974L5.98817 18.9785C5.73339 18.8278 5.50775 18.6408 5.32012 18.4249C4.97267 17.9091 4.79609 17.3153 4.811 16.7129C4.82591 16.1105 5.0317 15.5243 5.40433 15.0228C5.74963 14.7 6.16141 14.4403 6.61693 14.2579C6.7089 14.2576 6.79801 14.2292 6.86955 14.1773C7.00428 14.0515 7.43094 14.0163 8.55371 14.0314C9.35088 14.0314 9.59789 14.0666 9.67648 14.1723L9.67087 14.1924ZM6.86394 5.96397C5.85844 6.08621 4.86918 6.29865 3.91104 6.59809C3.80438 6.63836 3.61351 6.69875 3.47878 6.73398C2.83983 6.9332 2.23226 7.20554 1.67111 7.54424C1.71732 7.69604 1.7774 7.84417 1.85076 7.98712C2.10406 8.56889 2.4101 9.13108 2.76582 9.66804C2.84275 9.6533 2.91663 9.62782 2.98476 9.59255C3.48254 9.36958 3.99866 9.18114 4.52857 9.02889C4.81488 8.9534 5.15732 8.85275 5.29205 8.80745C6.14505 8.61757 7.02854 8.56307 7.9025 8.6464C9.19369 8.83261 9.67087 9.37111 9.74946 10.745C9.78876 11.505 9.78876 11.5251 9.56982 11.5754C8.92232 11.6292 8.2719 11.6493 7.62181 11.6358C5.37626 11.6358 4.6633 11.7516 3.19808 12.3958C2.55552 12.6879 1.98859 13.0978 1.53406 13.5989C1.07952 14.1 0.747518 14.6812 0.559567 15.3047C0.332849 16.2081 0.352104 17.1471 0.615705 18.0425C1.46901 20.3676 3.51246 21.7214 6.34746 21.8573C8.83425 22.0136 11.3024 21.3752 13.3143 20.0555L13.9318 19.6026L13.9599 15.0732C13.9879 9.83915 13.9599 9.65798 13.275 8.37967C12.7856 7.64184 12.0861 7.03393 11.2484 6.61823C10.9452 6.49241 10.6084 6.36156 10.5017 6.32129C9.32593 5.99405 8.09087 5.87273 6.86394 5.96397ZM39.8678 2.10892C37.7514 2.39075 37.0609 2.51154 36.9599 2.61219C36.8588 2.71285 36.8925 5.39528 36.8925 10.6041C36.9374 17.8814 36.9542 18.5357 37.1114 18.888C37.3075 19.4759 37.6646 20.0105 38.15 20.4431C39.1493 21.3389 40.3955 21.7063 42.5176 21.7063C43.6797 21.7063 43.8425 21.7063 43.9211 21.5503C44.0333 20.8841 44.0559 20.2082 43.9884 19.5372C43.9267 19.3208 43.893 19.3157 43.1744 19.2604C42.814 19.2744 42.4562 19.1991 42.1403 19.0429C41.8244 18.8866 41.5626 18.6554 41.3836 18.3746L41.1478 17.9921L41.1141 13.5684C41.1141 10.272 41.1141 9.10941 41.2039 9.03895C41.2938 8.9685 41.6138 8.9232 42.6299 8.9232C44.2017 8.9232 44.067 9.05908 44.0333 7.41339V6.30116L42.6972 6.2609C42.212 6.25624 41.7279 6.21923 41.2489 6.15018C41.1534 6.09986 41.1254 5.57646 41.1254 4.03142V1.97807H40.9176C40.7941 1.97807 40.3562 2.03846 39.8903 2.09886L39.8678 2.10892ZM66.253 1.93781C66.253 1.93781 65.7871 2.03343 65.265 2.10892C64.7429 2.18441 63.884 2.3052 63.3619 2.39075L62.4075 2.5367V10.3928C62.4075 18.9483 62.4075 18.5608 62.9689 19.6278C63.1763 20.0133 63.4707 20.356 63.8334 20.6343C64.8439 21.4647 65.7871 21.7214 67.7968 21.7264C69.509 21.7264 69.4417 21.7868 69.408 20.3726V19.3661L68.6726 19.3057C67.3702 19.205 66.7414 18.7319 66.5955 17.7606C66.5562 17.4687 66.5281 13.815 66.5393 9.64791C66.5393 2.43605 66.5393 1.74153 66.2979 1.94787L66.253 1.93781Z" fill="#ECECEC"/>
</svg>
