<svg width="70" height="26" viewBox="0 0 70 26" fill="none" xmlns="http://www.w3.org/2000/svg">
<path fill-rule="evenodd" clip-rule="evenodd" d="M21.6218 1.73728C22.1404 2.25589 22.3997 2.94735 22.3824 3.64746C22.3824 5.1687 21.1724 6.35284 19.6252 6.35284C18.0694 6.35284 16.868 5.14277 16.868 3.63018C16.868 2.14352 18.1299 0.924805 19.6598 0.924805C20.4118 0.924805 21.1032 1.21868 21.6218 1.73728ZM17.4298 24.7286H21.7601V7.71849L17.4298 8.40996V24.7286ZM14.1712 13.2935V22.369C13.1773 23.2766 12.045 23.9594 10.7744 24.4261C9.51248 24.8929 8.19868 25.0917 6.85896 25.0398C3.0991 25.0398 0.411011 22.2826 0.411011 19.1104C0.480158 15.7655 3.04724 13.6306 7.18741 13.6306H9.77178V12.7662C9.77178 11.2623 9.11488 10.5622 7.53314 10.493C6.23664 10.4412 4.81048 10.8387 3.44483 11.4438L2.78794 11.7549L1.62973 9.20515L2.14833 8.92856C3.98072 7.96051 5.92548 7.45055 7.99124 7.40733C10.9905 7.40733 14.1972 8.8767 14.1972 13.2675L14.1712 13.2935ZM9.77178 16.5002H8.00853C5.83904 16.5002 5.02657 17.9349 4.99199 19.2055C4.95742 20.7613 5.75261 22.0665 7.48993 22.0665C8.29376 22.0924 9.04573 21.9109 9.74584 21.5133V16.5002H9.77178ZM58.4253 20.5885L59.6354 23.0691C59.6354 23.0691 58.2524 24.0545 56.3768 24.6249C55.4088 24.9188 54.3283 25.0744 53.3084 25.0744C51.4155 25.0744 49.7906 24.5558 48.6151 23.5877C47.6297 22.6802 46.8777 21.6084 46.3678 20.3724C45.8578 19.1364 45.6245 17.8485 45.685 16.5174C45.7195 12.1698 47.6989 7.54562 52.8071 7.54562C57.3794 7.54562 59.4625 10.3029 59.5489 16.3273V16.7422H50.1882C50.1017 18.5573 50.4475 20.26 51.2254 21.0898C51.744 21.6602 52.5564 22.0406 53.7406 22.0406C55.4433 22.0319 56.9991 21.5479 58.4166 20.5885H58.4253ZM50.3178 14.0454H55.0112C55.0112 12.7835 54.7346 10.7177 52.8071 10.7177C51.0784 10.7177 50.3956 12.4291 50.3265 14.0627L50.3178 14.0454ZM25.2607 10.7696V24.7373H29.6775V11.5821C30.2652 11.0289 31.4926 10.5449 32.6421 10.493C33.7312 10.4584 34.4399 10.6659 34.4399 10.6659L35.65 7.97779C35.1833 7.73578 34.0423 7.45919 32.7372 7.45919C30.8443 7.45919 27.9056 8.01237 25.2693 10.7523L25.2607 10.7696ZM68.7541 22.0319C66.939 21.9109 66.5673 21.1157 66.5673 19.8278V3.0165L62.2197 3.74254V19.5599C62.2197 23.3025 64.2855 24.9101 67.7342 24.9101C68.4948 24.9101 69.411 24.7373 69.411 24.7373V22.0665H68.7541V22.0319ZM41.2855 3.03379L36.8342 3.74254V19.6291C36.8342 23.1988 38.9345 24.8756 42.4869 24.8756C43.3513 24.8756 44.1464 24.72 44.1464 24.72V22.0838L43.5068 22.0665C41.6485 21.9973 41.2682 20.9947 41.2682 19.8278V10.856H44.1464V7.71849H41.2855V3.03379Z" fill="#E40000"/>
</svg>
