<svg width="107" height="26" viewBox="0 0 107 26" fill="none" xmlns="http://www.w3.org/2000/svg">
<path fill-rule="evenodd" clip-rule="evenodd" d="M37.8186 5.4099H40.3788L40.4066 7.30222L40.6432 6.98219C40.8797 6.66217 41.2067 6.21692 41.9581 5.77167C42.5077 5.4586 43.2034 5.12466 44.4904 5.12466C44.6713 5.12466 45.2627 5.15249 45.7844 5.27076C46.9602 5.59774 47.8159 6.4465 48.1498 7.60137C48.2264 7.87965 48.282 9.19454 48.3098 11.1286V16.9099H47.7811C46.0905 16.896 45.7427 16.1446 45.6314 15.5881V15.5742L45.6175 10.3981C45.5896 9.33367 45.4366 8.16489 44.5043 7.6292C44.3652 7.54571 43.9826 7.35091 43.3634 7.35091C42.9529 7.35091 41.9372 7.46223 41.2693 8.45709C40.6501 9.35455 40.6293 10.4677 40.6084 11.3651L40.5806 16.9169L37.8325 16.9238L37.8186 5.4099Z" fill="#ED1D24"/>
<path fill-rule="evenodd" clip-rule="evenodd" d="M79.2506 5.4099H81.8108L81.8386 7.30222L82.0752 6.98219C82.3117 6.66217 82.6387 6.21692 83.3901 5.77167C83.9397 5.4586 84.6354 5.12466 85.9224 5.12466C86.1033 5.12466 86.6947 5.15249 87.2164 5.27076C88.3922 5.59774 89.2479 6.4465 89.5818 7.60137C89.6584 7.87965 89.714 9.19454 89.7419 11.1286V16.9099H89.2131C87.5226 16.896 87.1747 16.1446 87.0634 15.5881L87.0564 15.5742L87.0425 10.3981C87.0147 9.33367 86.8616 8.16489 85.9294 7.6292C85.7902 7.54571 85.4146 7.35091 84.7884 7.35091C84.378 7.35091 83.3622 7.46223 82.6944 8.45709C82.0752 9.35455 82.0543 10.4677 82.0334 11.3651L82.0056 16.9169L79.2645 16.9238L79.2506 5.4099Z" fill="#ED1D24"/>
<path fill-rule="evenodd" clip-rule="evenodd" d="M101.568 17.0205C100.664 17.0205 99.9541 16.9509 98.3679 16.5683L98.2009 16.5126L98.2496 16.0743V16.0674C98.3957 15.156 98.9662 14.6551 99.8497 14.6551H99.9054L99.9193 14.6621C100.344 14.7595 100.768 14.8082 101.179 14.8082C102.646 14.8082 103.321 14.1125 103.321 13.4655C103.293 12.8532 102.813 12.5541 102.459 12.3802C102.034 12.1784 101.596 12.0323 101.179 11.8862C100.782 11.754 100.413 11.6288 100.051 11.4688C99.314 11.1418 98.0826 10.3278 98.0826 8.5816C98.0826 8.32419 98.1244 7.65631 98.514 6.98147C98.8618 6.42491 99.961 5.13785 102.667 5.13785C103.683 5.13785 104.476 5.24221 105.499 5.49266L105.624 5.52049V5.64572C105.624 5.79182 105.61 6.00749 105.589 6.2162C105.534 6.71015 105.137 7.30846 104.727 7.30846H104.678C104.567 7.29454 104.462 7.27367 104.344 7.2528C104.073 7.19714 103.732 7.13453 103.085 7.13453C102.292 7.13453 101.798 7.30845 101.533 7.45455C100.907 7.78153 100.859 8.31723 100.859 8.47724C100.859 9.10338 101.394 9.326 101.791 9.48601C102.187 9.65298 102.598 9.77821 102.994 9.90344C103.453 10.0495 103.927 10.1956 104.379 10.3974C105.527 10.947 106.153 11.9766 106.153 13.3054C106.153 14.0151 105.958 15.0308 105.012 15.8378C104.191 16.5335 103.099 17.0205 101.568 17.0205Z" fill="#ED1D24"/>
<path fill-rule="evenodd" clip-rule="evenodd" d="M96.9411 16.6635C96.3497 16.8096 95.8766 16.9209 95.2018 16.9209C94.7705 16.9209 93.2956 16.8513 92.419 15.9608C91.438 14.9521 91.4589 13.2754 91.4798 11.9257V5.01737L91.4867 4.21731C91.4867 3.04852 92.1824 2.31803 93.6156 1.97018L93.6295 1.96322H94.1791V5.12173H96.7254C96.7254 5.12173 96.9619 7.11145 96.0227 7.14623L94.1582 7.1671V12.4336V12.5171C94.1861 13.4285 94.04 14.806 96.0088 14.639C96.0227 14.632 97.0663 14.6112 96.9411 16.6635Z" fill="#ED1D24"/>
<path fill-rule="evenodd" clip-rule="evenodd" d="M6.45615 11.4448C5.67 11.4448 4.52904 11.5005 3.7429 11.9805C3.36026 12.224 3.17242 12.5371 3.08893 12.6832C3.06111 12.7249 2.87327 13.0241 2.87327 13.4693C2.87327 13.6711 2.93588 13.9216 3.03328 14.1442C3.43679 15.0208 4.39686 15.1182 4.78646 15.1182C5.023 15.1182 6.21961 15.0625 7.01271 13.9911C7.56928 13.2606 7.62494 12.5232 7.69451 11.6675L7.70842 11.4796L7.47884 11.4727C7.17273 11.4588 6.81792 11.4448 6.45615 11.4448ZM3.98639 16.9131C3.41592 16.9131 1.48185 16.7948 0.514822 15.2364C0.361767 15.0069 0 14.3738 0 13.4624C0 12.5232 0.396552 11.8831 0.563521 11.6118C1.70448 9.95603 4.09771 9.76123 5.79523 9.76123C6.38658 9.76123 6.99184 9.7821 7.51362 9.80297L7.62494 9.80993V9.69862C7.61798 9.38555 7.56928 8.76637 7.44405 8.42548C7.24925 7.9037 6.67182 7.02711 4.98125 7.02711C3.93074 7.02711 3.18633 7.30539 2.69934 7.49323C2.52541 7.5628 2.3654 7.61846 2.25409 7.63933L2.16364 7.64629C1.82275 7.64629 1.59317 7.16625 1.44707 6.13661L1.41228 5.85137L1.53751 5.80962C2.96371 5.32959 3.8403 5.11392 5.28041 5.11392C5.56565 5.11392 6.24048 5.11392 6.97793 5.28784C8.98852 5.74701 9.64944 6.90884 9.86511 7.5628C10.1016 8.23068 10.1225 8.91943 10.1503 10.2969L10.1921 16.9131H8.93982C8.25803 16.9131 7.86148 16.0087 7.69451 15.4799C7.291 16.0435 6.22657 16.9061 4.07684 16.9061L3.98639 16.9131Z" fill="#ED1D24"/>
<path fill-rule="evenodd" clip-rule="evenodd" d="M23.5629 16.918C22.6864 16.911 21.4202 16.1944 21.4202 14.9004V5.40404H24.203L24.2099 16.911H23.5629V16.918Z" fill="#ED1D24"/>
<path fill-rule="evenodd" clip-rule="evenodd" d="M76.5625 16.918C75.6859 16.911 74.4266 16.1944 74.4266 14.9004V5.40404H77.2095L77.2164 16.911H76.5625V16.918Z" fill="#ED1D24"/>
<path fill-rule="evenodd" clip-rule="evenodd" d="M22.232 4.00391C22.1555 3.98304 22.1207 3.93434 22.0998 3.8926C22.0511 3.82303 22.0233 3.72563 21.9816 3.58649L21.9259 3.41256L21.912 3.39169L21.905 3.37778L21.8981 3.36386C21.8355 3.34299 21.7729 3.30125 21.7381 3.2456C21.6615 3.23168 21.5641 3.18994 21.5154 3.16211L21.4807 3.14124L21.4737 3.13428L21.3902 3.00905L21.3067 2.9047L21.2789 2.856V2.83513L21.2511 2.81426L21.2372 2.74469C21.2232 2.67512 21.2511 2.61946 21.2859 2.57076L21.2441 2.39683L21.2302 2.38292L21.2163 2.36901L21.2024 2.35509C21.1606 2.28552 21.1398 2.15334 21.1119 1.70808C21.105 1.63851 21.105 1.58286 21.098 1.55503L21.0563 1.45067L21.1398 1.38806C21.1606 1.34632 21.1954 1.27675 21.265 1.24892L21.3137 1.16543C21.3415 1.12369 21.3972 1.08891 21.4807 1.08891L21.6407 1.11674L21.7033 1.05412L21.7172 1.04716H21.7242L21.7589 0.991508V0.91498L21.8911 0.873237H21.9329L21.9746 0.880195L22.0163 0.796711C22.0163 0.754969 22.0372 0.692354 22.1068 0.643655L22.2042 0.60887L22.2807 0.539298L22.3085 0.525384H22.3225L22.4686 0.434944C22.566 0.37233 22.6286 0.330588 22.6842 0.309717C22.726 0.274931 22.7816 0.240144 22.8582 0.240144H22.879H22.886L23.0043 0.198404L23.1156 0.240144L23.1364 0.219274L23.2408 0.261017L23.3173 0.323631L23.3312 0.330587L23.4008 0.379286H23.4982L23.5469 0.448858L23.5747 0.567127L23.5817 0.587997L23.6443 0.629741L23.6582 0.643655H23.6791L23.7278 0.720183L23.7626 0.782797L23.7834 0.803667L23.8182 0.838452C23.8878 0.901065 23.9365 0.942807 23.9574 0.998464L24.0756 1.11674C24.1591 1.20022 24.1939 1.22805 24.2078 1.26979L24.2496 1.34632L24.2635 1.37415L24.2704 1.40893L24.347 1.63156L24.3609 1.66634L24.3887 1.70808L24.4652 1.78461L24.4304 1.84723L24.4444 1.87505C24.507 1.92375 24.5418 2.02115 24.5557 2.08377L24.5626 2.12551L24.5487 2.13247V2.14638C24.4791 2.64033 24.2913 2.96731 24.0061 3.11341L23.9365 3.14124L23.853 3.22473L23.7417 3.25951L23.6791 3.2456L23.6165 3.25255H23.5886L23.533 3.35691L23.4565 3.42648L23.4008 3.40561L23.3451 3.41256H23.3382L23.3243 3.43343L23.2408 3.46822C23.2269 3.57953 23.206 3.73259 23.0599 3.75346L22.9764 3.76738L22.8929 3.81607C22.8929 3.87869 22.8721 3.94826 22.8025 3.99L22.559 4.0387L22.4686 4.05261L22.392 4.04566L22.3642 4.0387L22.2598 4.05957L22.232 4.00391Z" fill="#ED1D24"/>
<path fill-rule="evenodd" clip-rule="evenodd" d="M75.232 4.00391C75.1555 3.98304 75.1207 3.93434 75.0998 3.8926C75.0511 3.82303 75.0233 3.72563 74.9816 3.58649L74.9259 3.41256L74.912 3.39169L74.905 3.37778L74.8981 3.36386C74.8355 3.34299 74.7729 3.30125 74.7381 3.2456C74.6615 3.23168 74.5641 3.18994 74.5154 3.16211L74.4807 3.14124L74.4667 3.13428L74.3833 3.00905L74.2998 2.9047L74.2719 2.856V2.83513L74.2441 2.81426L74.2302 2.74469C74.2163 2.67512 74.2441 2.61946 74.2789 2.57076L74.2372 2.39683L74.2302 2.38292L74.2163 2.36901L74.2024 2.35509C74.1606 2.28552 74.1398 2.15334 74.1119 1.70808C74.105 1.63851 74.105 1.58286 74.098 1.55503L74.0563 1.45067L74.1398 1.38806C74.1606 1.34632 74.1954 1.27675 74.265 1.24892L74.3137 1.16543C74.3415 1.12369 74.3972 1.08891 74.4807 1.08891L74.6337 1.11674L74.7033 1.05412L74.7172 1.04716L74.752 0.991508V0.91498L74.8842 0.873237H74.9189L74.9607 0.880195L75.0024 0.796711C75.0024 0.754969 75.0233 0.692354 75.0929 0.643655L75.1903 0.60887L75.2668 0.539298L75.2946 0.525384H75.3085L75.4546 0.434944C75.552 0.37233 75.6147 0.330588 75.6703 0.309717C75.7121 0.274931 75.7677 0.240144 75.8442 0.240144H75.8651H75.8721L75.9903 0.198404L76.1016 0.240144L76.1156 0.219274L76.2199 0.261017L76.2964 0.323631L76.3034 0.330587L76.373 0.379286H76.4704L76.526 0.448858L76.5539 0.567127L76.5608 0.587997L76.6234 0.629741L76.6373 0.643655H76.6582L76.7069 0.720183L76.7417 0.782797L76.7626 0.803667L76.7974 0.838452C76.8669 0.901065 76.9156 0.942807 76.9365 0.998464L77.0548 1.11674C77.1383 1.20022 77.173 1.22805 77.187 1.26979L77.2287 1.34632L77.2426 1.37415L77.2496 1.40893L77.3261 1.63156L77.34 1.66634L77.3748 1.70808L77.4513 1.78461L77.4165 1.84723L77.4304 1.87505C77.4931 1.92375 77.5278 2.02115 77.5418 2.08377L77.5487 2.12551V2.13247V2.14638C77.4791 2.64033 77.2913 2.96731 77.0061 3.11341L76.9365 3.14124L76.853 3.22473L76.7417 3.25951L76.6791 3.2456L76.6165 3.25255H76.5886L76.533 3.35691L76.4565 3.42648L76.4008 3.40561L76.3451 3.41256H76.3382L76.3243 3.43343L76.2477 3.46822C76.2338 3.57953 76.206 3.73259 76.0669 3.75346L75.9834 3.76738L75.8999 3.81607C75.8929 3.87869 75.879 3.94826 75.8095 3.99L75.566 4.0387L75.4755 4.05261L75.392 4.04566L75.3642 4.0387L75.2598 4.05957L75.232 4.00391Z" fill="#ED1D24"/>
<path fill-rule="evenodd" clip-rule="evenodd" d="M55.9147 7.4073C55.386 7.4073 54.8572 7.56731 54.3911 7.86646C53.4867 8.47869 52.9858 9.63355 52.9858 11.1084C52.9858 12.0337 53.1806 13.6895 54.5094 14.4409C54.885 14.6426 55.2955 14.74 55.7547 14.74C56.2208 14.74 56.6104 14.6148 56.7982 14.5105C58.3705 13.7452 58.4888 11.5954 58.4888 10.9484C58.4888 10.2458 58.3636 8.53434 57.16 7.75515C56.9165 7.59514 56.4991 7.4073 55.9147 7.4073ZM52.9162 6.98291C53.4728 6.34982 54.7876 5.11843 56.7634 5.11843H56.8121C58.5584 5.13234 59.588 6.0298 60.0472 6.56549C60.6594 7.28903 61.3899 8.61783 61.3899 10.851C61.3899 12.1033 61.1673 13.0495 60.9794 13.6269C60.0472 16.528 57.7931 16.9593 56.5269 16.9593C55.532 16.9593 54.6555 16.6532 53.9111 16.0549C53.6954 15.874 53.4728 15.5958 53.3197 15.4079L53.1458 15.1853C53.1458 15.1853 53.0345 15.2062 53.0206 15.4218C53.0136 15.5471 53.0066 15.6862 52.9858 15.7975C53.0136 16.2567 52.9788 16.7228 52.9997 17.1889C52.9788 17.5576 53.0136 17.9612 52.9788 18.3368C52.9649 18.8377 52.951 19.3456 52.9232 19.8674C52.9371 19.9996 52.9232 20.1178 52.9232 20.25C52.9232 20.41 52.8953 20.5422 52.8814 20.6953C52.8466 20.7579 52.8814 20.8275 52.8188 20.8831C52.6657 20.9596 52.5892 21.1336 52.5475 21.2936C52.5196 22.2397 52.4709 23.2137 52.4292 24.1738C52.4153 24.3686 52.3944 24.5564 52.3318 24.7165L52.137 24.9739L52.0813 25.3565L52.0118 25.4261C51.984 25.2313 52.0187 25.0295 52.0048 24.8208L52.0118 24.3199L51.97 24.2642C51.8657 24.8278 51.8379 25.2382 51.7892 25.8018L51.7196 25.7948C51.65 25.6278 51.6848 25.4539 51.6709 25.273C51.5317 25.0852 51.5039 24.9739 51.5317 24.7373L51.5526 24.0695C51.5317 23.9929 51.5317 23.8955 51.5317 23.819C51.4691 23.7912 51.3926 23.7773 51.3787 23.6938L51.3578 23.6451C51.4135 23.2763 51.3787 22.9076 51.4274 22.525C51.3856 22.4276 51.4413 22.3093 51.4343 22.191C51.483 21.6762 51.49 21.1475 51.49 20.6327C51.4343 20.5909 51.4691 20.4727 51.3787 20.4796C51.2743 20.9666 51.2674 21.4953 51.17 21.9823C51.1978 22.0936 51.1491 22.1702 51.1491 22.2954C51.2465 22.3998 51.2882 22.5528 51.2743 22.685L51.1908 22.8311L51.2187 23.0328C51.1769 23.1302 51.1282 23.2068 51.0865 23.3042H51.01C50.9891 23.0815 50.9891 22.8589 51.0308 22.6572C51.0239 22.4624 51.0378 22.2328 51.0308 22.0171C51.0726 21.1684 51.0447 20.3613 51.0308 19.5056L50.9682 19.4987C50.8778 19.7978 50.9404 20.1318 50.8152 20.41C50.7526 20.1457 50.7247 18.6986 50.7804 18.3855C50.7665 17.8359 50.8013 17.2724 50.7873 16.7019C50.7943 16.361 50.6412 16.1593 50.6343 16.4097C50.6204 16.848 50.5717 17.2515 50.6134 17.6829C50.6134 18.469 50.5717 19.2969 50.5508 20.09C50.5647 20.4587 50.4882 20.8344 50.5091 21.2171C50.516 21.384 50.4604 21.5927 50.516 21.7528C50.4951 21.8154 50.516 21.8988 50.4464 21.9197C50.4047 21.8641 50.2864 21.878 50.3073 21.7736C50.2864 21.7041 50.3351 21.6484 50.3838 21.6067C50.4117 21.3979 50.4117 21.1544 50.3351 20.9596C50.3073 20.7301 50.4325 20.5283 50.4047 20.2987L50.363 20.1874C50.3282 20.1248 50.3421 20.0413 50.3421 19.9717C50.4256 19.8048 50.3769 19.5613 50.3699 19.3734C50.363 19.2343 50.2656 19.1299 50.2725 18.9838C50.2516 18.6221 50.2586 18.309 50.2795 17.9612C50.2795 17.6898 50.3003 17.3837 50.3003 17.0915C50.3073 16.7993 50.3003 16.4515 50.2795 16.1384C50.3003 15.6166 50.2795 15.1018 50.2795 14.5591L50.2308 14.4965C50.1751 14.74 50.036 14.6009 49.9873 14.4548C50.0151 14.2948 50.0012 14.1556 50.0012 14.0095C50.0151 13.9052 50.0221 13.773 50.0221 13.6547C49.9942 13.0703 50.0777 12.479 50.0429 11.9224C50.0777 11.2824 50.0221 10.6562 50.0916 10.0301L50.0847 9.66139C50.0986 9.08395 50.1125 8.48564 50.1195 7.90821C50.0986 7.74819 50.1055 7.58122 50.0986 7.41425L50.0499 7.4073C50.0081 7.53948 49.9594 7.66471 49.9594 7.81081L49.8273 7.83863C49.7646 7.69254 49.8064 7.55339 49.7646 7.4073C49.7786 7.13597 49.7716 6.85073 49.8412 6.60028L49.8829 6.59332C49.9107 6.15503 49.9107 5.67499 50.0638 5.27844C50.0986 5.17408 50.196 5.14625 50.2795 5.12538C50.4325 5.11842 50.5021 5.31322 50.5856 5.41062C50.7039 5.38975 50.843 5.43845 50.9543 5.34801C51.1282 5.29931 51.0587 5.5428 51.1421 5.61933C51.2048 5.72369 51.3091 5.70978 51.4065 5.70978C51.7265 5.68891 51.5248 5.1393 51.8726 5.23669C51.9422 5.37584 52.0883 5.43149 52.2205 5.41758C52.4501 5.50106 52.7701 5.48715 52.8536 5.7863C52.9232 5.96023 52.9301 6.1759 52.9371 6.34982C52.944 6.56549 52.9162 6.98291 52.9162 6.98291Z" fill="#ED1D24"/>
<path fill-rule="evenodd" clip-rule="evenodd" d="M31.7013 11.4448C30.9151 11.4448 29.7742 11.5005 28.988 11.9805C28.5984 12.224 28.4175 12.5371 28.3341 12.6832C28.3062 12.7249 28.1184 13.0241 28.1184 13.4693C28.1184 13.6711 28.181 13.9216 28.2784 14.1442C28.6819 15.0208 29.642 15.1182 30.0316 15.1182C30.2681 15.1182 31.4647 15.0625 32.2578 13.9911C32.8144 13.2606 32.8701 12.5232 32.9396 11.6675L32.9535 11.4796L32.724 11.4727C32.4178 11.4588 32.07 11.4448 31.7013 11.4448ZM29.2385 16.9131C28.668 16.9131 26.7339 16.7948 25.7739 15.2364C25.6208 15.0069 25.259 14.3738 25.259 13.4624C25.259 12.5232 25.6556 11.8831 25.8226 11.6118C26.9635 9.95603 29.3567 9.76123 31.0543 9.76123C31.6456 9.76123 32.2509 9.7821 32.7727 9.80297L32.884 9.80993V9.69862C32.877 9.38555 32.8283 8.76637 32.7031 8.42548C32.5083 7.9037 31.9309 7.02711 30.2403 7.02711C29.1898 7.02711 28.4454 7.30539 27.9584 7.49323C27.7844 7.5628 27.6314 7.61846 27.5131 7.63933L27.4227 7.64629C27.0818 7.64629 26.8522 7.16625 26.7061 6.13661L26.6713 5.85137L26.7965 5.80962C28.2158 5.32959 29.0993 5.11392 30.5394 5.11392C30.8247 5.11392 31.4995 5.11392 32.237 5.28784C34.2476 5.74701 34.9085 6.90884 35.1241 7.5628C35.3607 8.23068 35.3816 8.91943 35.4094 10.2969L35.4511 16.9131H34.1989C33.5171 16.9131 33.1205 16.0087 32.9535 15.4799C32.55 16.0435 31.4856 16.9061 29.3359 16.9061L29.2385 16.9131Z" fill="#ED1D24"/>
<path fill-rule="evenodd" clip-rule="evenodd" d="M68.9404 11.4448C68.1543 11.4448 67.0133 11.5005 66.2272 11.9805C65.8376 12.224 65.6567 12.5371 65.5662 12.6832C65.5384 12.7249 65.3575 13.0241 65.3575 13.4693C65.3575 13.6711 65.4201 13.9216 65.5175 14.1442C65.921 15.0208 66.8811 15.1182 67.2777 15.1182C67.5073 15.1182 68.7108 15.0625 69.5039 13.9911C70.0605 13.2606 70.1161 12.5232 70.1857 11.6675L70.1996 11.4796L69.97 11.4727C69.657 11.4588 69.3022 11.4448 68.9404 11.4448ZM66.4776 16.9131C65.9071 16.9131 63.9731 16.7948 63.006 15.2364C62.853 15.0069 62.4912 14.3738 62.4912 13.4624C62.4912 12.5232 62.8878 11.8831 63.0547 11.6118C64.1957 9.95603 66.5889 9.76123 68.2864 9.76123C68.8778 9.76123 69.4831 9.7821 70.0048 9.80297L70.1161 9.80993V9.69862C70.1092 9.38555 70.0605 8.76637 69.9353 8.42548C69.7405 7.9037 69.163 7.02711 67.4725 7.02711C66.4219 7.02711 65.6845 7.30539 65.1905 7.49323C65.0166 7.5628 64.8566 7.61846 64.7453 7.63933L64.6549 7.64629C64.314 7.64629 64.0844 7.16625 63.9383 6.13661L63.9035 5.85137L64.0287 5.80962C65.448 5.32959 66.3315 5.11392 67.7716 5.11392C68.0569 5.11392 68.7317 5.11392 69.4691 5.28784C71.4797 5.74701 72.1407 6.90884 72.3563 7.5628C72.5929 8.23068 72.6137 8.91943 72.6416 10.2969L72.6833 16.9131H71.431C70.7492 16.9131 70.3527 16.0087 70.1857 15.4799C69.7822 16.0435 68.7178 16.9061 66.568 16.9061L66.4776 16.9131Z" fill="#ED1D24"/>
<path fill-rule="evenodd" clip-rule="evenodd" d="M15.1852 17.0205C14.2808 17.0205 13.5712 16.9509 11.9849 16.5683L11.818 16.5126L11.8667 16.0743V16.0674C12.0128 15.156 12.5833 14.6551 13.4668 14.6551H13.5225L13.5364 14.6621C13.9608 14.7595 14.3851 14.8082 14.7956 14.8082C16.2705 14.8082 16.9384 14.1125 16.9384 13.4655C16.9105 12.8532 16.4305 12.5541 16.0757 12.3802C15.6513 12.1784 15.213 12.0323 14.7956 11.8862C14.399 11.754 14.0303 11.6288 13.6686 11.4688C12.9311 11.1418 11.6997 10.3278 11.6997 8.5816C11.6997 8.32419 11.7414 7.65631 12.131 6.98147C12.4789 6.42491 13.5781 5.13785 16.2844 5.13785C17.3001 5.13785 18.0932 5.24221 19.1159 5.49266L19.2412 5.52049V5.64572C19.2412 5.79182 19.2272 6.00749 19.2064 6.2162C19.1507 6.71015 18.7542 7.30846 18.3437 7.30846H18.295C18.1837 7.29454 18.0793 7.27367 17.9611 7.2528C17.6897 7.19714 17.3488 7.13453 16.7018 7.13453C15.9087 7.13453 15.4217 7.30845 15.1504 7.45455C14.5243 7.78153 14.4756 8.31723 14.4756 8.47724C14.4756 9.10338 15.0113 9.326 15.4078 9.48601C15.8044 9.65298 16.2148 9.77821 16.6114 9.90344C17.0706 10.0495 17.5436 10.1956 17.9958 10.3974C19.1438 10.947 19.7699 11.9766 19.7699 13.3054C19.7699 14.0151 19.5681 15.0308 18.6359 15.8378C17.808 16.5335 16.7157 17.0205 15.1852 17.0205Z" fill="#ED1D24"/>
</svg>
