<svg width="122" height="30" viewBox="0 0 122 30" fill="none" xmlns="http://www.w3.org/2000/svg">
<path fill-rule="evenodd" clip-rule="evenodd" d="M43.7084 6.35969H46.6227L46.6543 8.51373L46.9236 8.14945C47.1928 7.78516 47.5651 7.27833 48.4203 6.7715C49.046 6.41513 49.8379 6.03501 51.3029 6.03501C51.5088 6.03501 52.182 6.06668 52.7759 6.20131C54.1143 6.57352 55.0883 7.53966 55.4685 8.85426C55.5556 9.17103 55.6189 10.6678 55.6506 12.8693V19.4502H55.0488C53.1244 19.4344 52.7284 18.5791 52.6017 17.9456V17.9297L52.5859 12.0378C52.5542 10.8262 52.38 9.49572 51.3188 8.88594C51.1604 8.79091 50.7248 8.56917 50.02 8.56917C49.5528 8.56917 48.3966 8.69588 47.6363 9.82833C46.9315 10.8499 46.9078 12.117 46.884 13.1386L46.8523 19.4581L43.7242 19.4661L43.7084 6.35969Z" fill="#666666" fill-opacity="0.63"/>
<path fill-rule="evenodd" clip-rule="evenodd" d="M90.8707 6.35969H93.785L93.8167 8.51373L94.0859 8.14945C94.3552 7.78516 94.7274 7.27833 95.5827 6.7715C96.2083 6.41513 97.0002 6.03501 98.4653 6.03501C98.6712 6.03501 99.3443 6.06668 99.9383 6.20131C101.277 6.57352 102.251 7.53966 102.631 8.85426C102.718 9.17103 102.781 10.6678 102.813 12.8693V19.4502H102.211C100.287 19.4344 99.8908 18.5791 99.7641 17.9456L99.7561 17.9297L99.7403 12.0378C99.7086 10.8262 99.5344 9.49572 98.4732 8.88594C98.3148 8.79091 97.8872 8.56917 97.1745 8.56917C96.7072 8.56917 95.551 8.69588 94.7908 9.82833C94.0859 10.8499 94.0622 12.117 94.0384 13.1386L94.0068 19.4581L90.8866 19.4661L90.8707 6.35969Z" fill="#666666" fill-opacity="0.63"/>
<path fill-rule="evenodd" clip-rule="evenodd" d="M116.275 19.5774C115.245 19.5774 114.438 19.4982 112.632 19.0626L112.442 18.9993L112.497 18.5004V18.4925C112.664 17.455 113.313 16.8848 114.319 16.8848H114.382L114.398 16.8928C114.881 17.0036 115.364 17.0591 115.831 17.0591C117.502 17.0591 118.271 16.2671 118.271 15.5307C118.239 14.8338 117.692 14.4932 117.289 14.2952C116.806 14.0656 116.307 13.8993 115.831 13.733C115.38 13.5825 114.96 13.44 114.549 13.2578C113.709 12.8856 112.307 11.9591 112.307 9.97134C112.307 9.67832 112.355 8.91808 112.798 8.14991C113.194 7.51637 114.446 6.0513 117.526 6.0513C118.682 6.0513 119.585 6.17009 120.749 6.45518L120.892 6.48686V6.62941C120.892 6.79571 120.876 7.04121 120.852 7.27879C120.789 7.84105 120.337 8.52211 119.87 8.52211H119.815C119.688 8.50627 119.569 8.48252 119.435 8.45876C119.126 8.3954 118.738 8.32413 118.001 8.32413C117.099 8.32413 116.536 8.52211 116.235 8.68841C115.523 9.06062 115.467 9.6704 115.467 9.85255C115.467 10.5653 116.077 10.8187 116.528 11.0008C116.98 11.1909 117.447 11.3334 117.898 11.476C118.421 11.6423 118.96 11.8086 119.474 12.0383C120.781 12.6639 121.494 13.8359 121.494 15.3485C121.494 16.1563 121.272 17.3125 120.195 18.2311C119.26 19.023 118.017 19.5774 116.275 19.5774Z" fill="#666666" fill-opacity="0.63"/>
<path fill-rule="evenodd" clip-rule="evenodd" d="M111.008 19.1696C110.335 19.3359 109.796 19.4626 109.028 19.4626C108.537 19.4626 106.858 19.3835 105.86 18.3698C104.744 17.2215 104.767 15.313 104.791 13.7766V5.9128L104.799 5.00208C104.799 3.67165 105.591 2.84013 107.222 2.44416L107.238 2.43624H107.864V6.03159H110.762C110.762 6.03159 111.032 8.2965 109.962 8.33609L107.84 8.35985V14.3547V14.4498C107.872 15.4872 107.705 17.0552 109.947 16.8651C109.962 16.8572 111.15 16.8335 111.008 19.1696Z" fill="#666666" fill-opacity="0.63"/>
<path fill-rule="evenodd" clip-rule="evenodd" d="M8.00837 13.2296C7.1135 13.2296 5.81474 13.2929 4.91986 13.8394C4.4843 14.1165 4.27048 14.4729 4.17545 14.6392C4.14377 14.6867 3.92995 15.0272 3.92995 15.5341C3.92995 15.7637 4.00123 16.0488 4.1121 16.3022C4.57141 17.3001 5.66427 17.4109 6.10775 17.4109C6.377 17.4109 7.73912 17.3476 8.64191 16.128C9.27545 15.2965 9.33881 14.4571 9.418 13.483L9.43384 13.2692L9.1725 13.2612C8.82405 13.2454 8.42017 13.2296 8.00837 13.2296ZM5.19704 19.4541C4.54766 19.4541 2.3461 19.3195 1.24533 17.5456C1.0711 17.2842 0.659302 16.5636 0.659302 15.5262C0.659302 14.4571 1.1107 13.7285 1.30076 13.4196C2.59952 11.5348 5.32374 11.3131 7.25604 11.3131C7.92918 11.3131 8.61815 11.3369 9.2121 11.3606L9.33881 11.3685V11.2418C9.33089 10.8855 9.27545 10.1807 9.13291 9.79261C8.91117 9.19867 8.25387 8.20084 6.32949 8.20084C5.13368 8.20084 4.28632 8.51761 3.73197 8.73143C3.53399 8.81062 3.35185 8.87398 3.22514 8.89773L3.12219 8.90565C2.73415 8.90565 2.47281 8.35923 2.30651 7.18718L2.26691 6.86249L2.40946 6.81497C4.0329 6.26854 5.03073 6.02304 6.67002 6.02304C6.99471 6.02304 7.76287 6.02304 8.60232 6.22103C10.891 6.7437 11.6433 8.06621 11.8888 8.81062C12.1581 9.57087 12.1818 10.3549 12.2135 11.9229L12.261 19.4541H10.8355C10.0595 19.4541 9.60806 18.4246 9.418 17.8227C8.95868 18.4642 7.74704 19.4462 5.29999 19.4462L5.19704 19.4541Z" fill="#666666" fill-opacity="0.63"/>
<path fill-rule="evenodd" clip-rule="evenodd" d="M27.4811 19.4604C26.4833 19.4525 25.042 18.6368 25.042 17.1639V6.35408H28.2097L28.2176 19.4525H27.4811V19.4604Z" fill="#666666" fill-opacity="0.63"/>
<path fill-rule="evenodd" clip-rule="evenodd" d="M87.8107 19.4604C86.8129 19.4525 85.3795 18.6368 85.3795 17.1639V6.35408H88.5472L88.5551 19.4525H87.8107V19.4604Z" fill="#666666" fill-opacity="0.63"/>
<path fill-rule="evenodd" clip-rule="evenodd" d="M25.9663 4.75891C25.8792 4.73515 25.8396 4.67972 25.8158 4.63221C25.7604 4.55301 25.7287 4.44214 25.6812 4.28376L25.6178 4.08577L25.602 4.06202L25.5941 4.04618L25.5862 4.03034C25.5149 4.00658 25.4436 3.95907 25.404 3.89571C25.3169 3.87988 25.206 3.83236 25.1506 3.80068L25.111 3.77692L25.1031 3.769L25.0081 3.62646L24.913 3.50767L24.8813 3.45223V3.42847L24.8497 3.40472L24.8338 3.32553C24.818 3.24633 24.8497 3.18298 24.8893 3.12755L24.8417 2.92956L24.8259 2.91372L24.8101 2.89789L24.7942 2.88205C24.7467 2.80286 24.723 2.65239 24.6913 2.14556C24.6834 2.06636 24.6834 2.00301 24.6754 1.97133L24.6279 1.85254L24.723 1.78127C24.7467 1.73376 24.7863 1.65456 24.8655 1.62289L24.9209 1.52785C24.9526 1.48034 25.016 1.44074 25.111 1.44074L25.2931 1.47242L25.3644 1.40115L25.3803 1.39323H25.3882L25.4278 1.32987V1.24276L25.5782 1.19524H25.6258L25.6733 1.20317L25.7208 1.10814C25.7208 1.06062 25.7445 0.989346 25.8237 0.933911L25.9346 0.894315L26.0217 0.815121L26.0534 0.799282H26.0692L26.2355 0.696333C26.3464 0.62506 26.4177 0.577545 26.481 0.553787C26.5286 0.514191 26.5919 0.474592 26.679 0.474592H26.7028H26.7107L26.8453 0.427079L26.972 0.474592L26.9958 0.450836L27.1146 0.498352L27.2017 0.569626L27.2175 0.577544L27.2967 0.632978H27.4076L27.463 0.712173L27.4947 0.846798L27.5026 0.870555L27.5739 0.918072L27.5897 0.933911H27.6135L27.6689 1.02102L27.7085 1.0923L27.7323 1.11605L27.7719 1.15565C27.8511 1.22692 27.9065 1.27444 27.9303 1.33779L28.0649 1.47242C28.1599 1.56745 28.1995 1.59913 28.2154 1.64665L28.2629 1.73375L28.2787 1.76543L28.2866 1.80503L28.3737 2.05844L28.3896 2.09804L28.4213 2.14556L28.5084 2.23267L28.4688 2.30394L28.4846 2.33562C28.5559 2.39105 28.5955 2.50192 28.6113 2.5732L28.6192 2.62071L28.6034 2.62863V2.64447C28.5242 3.20674 28.3104 3.57894 27.9857 3.74525L27.9065 3.77692L27.8115 3.87196L27.6848 3.91155L27.6135 3.89571L27.5422 3.90363H27.5105L27.4472 4.02242L27.3601 4.10161L27.2967 4.07785L27.2334 4.08577H27.2254L27.2096 4.10953L27.1146 4.14913C27.0987 4.27584 27.075 4.45006 26.9087 4.47382L26.8136 4.48966L26.7186 4.54509C26.7186 4.61637 26.6949 4.69556 26.6157 4.74307L26.3385 4.79851L26.2355 4.81434L26.1484 4.80643L26.1168 4.79851L25.998 4.82227L25.9663 4.75891Z" fill="#666666" fill-opacity="0.63"/>
<path fill-rule="evenodd" clip-rule="evenodd" d="M86.2966 4.75891C86.2095 4.73515 86.1699 4.67972 86.1461 4.63221C86.0907 4.55301 86.059 4.44214 86.0115 4.28376L85.9482 4.08577L85.9323 4.06202L85.9244 4.04618L85.9165 4.03034C85.8452 4.00658 85.7739 3.95907 85.7343 3.89571C85.6472 3.87988 85.5364 3.83236 85.4809 3.80068L85.4413 3.77692L85.4255 3.769L85.3305 3.62646L85.2354 3.50767L85.2037 3.45223V3.42847L85.1721 3.40472L85.1562 3.32553C85.1404 3.24633 85.1721 3.18298 85.2117 3.12755L85.1642 2.92956L85.1562 2.91372L85.1404 2.89789L85.1246 2.88205C85.077 2.80286 85.0533 2.65239 85.0216 2.14556C85.0137 2.06636 85.0137 2.00301 85.0058 1.97133L84.9583 1.85254L85.0533 1.78127C85.077 1.73376 85.1166 1.65456 85.1958 1.62289L85.2513 1.52785C85.2829 1.48034 85.3463 1.44074 85.4413 1.44074L85.6156 1.47242L85.6947 1.40115L85.7106 1.39323L85.7502 1.32987V1.24276L85.9006 1.19524H85.9402L85.9878 1.20317L86.0353 1.10814C86.0353 1.06062 86.059 0.989346 86.1382 0.933911L86.2491 0.894315L86.3362 0.815121L86.3679 0.799282H86.3837L86.55 0.696333C86.6609 0.62506 86.7322 0.577545 86.7955 0.553787C86.843 0.514191 86.9064 0.474592 86.9935 0.474592H87.0173H87.0252L87.1598 0.427079L87.2865 0.474592L87.3024 0.450836L87.4211 0.498352L87.5083 0.569626L87.5162 0.577544L87.5954 0.632978H87.7062L87.7696 0.712173L87.8013 0.846798L87.8092 0.870555L87.8805 0.918072L87.8963 0.933911H87.9201L87.9755 1.02102L88.0151 1.0923L88.0388 1.11605L88.0784 1.15565C88.1576 1.22692 88.2131 1.27444 88.2368 1.33779L88.3715 1.47242C88.4665 1.56745 88.5061 1.59913 88.5219 1.64665L88.5694 1.73375L88.5853 1.76543L88.5932 1.80503L88.6803 2.05844L88.6961 2.09804L88.7357 2.14556L88.8228 2.23267L88.7833 2.30394L88.7991 2.33562C88.8704 2.39105 88.91 2.50192 88.9258 2.5732L88.9337 2.62071V2.62863V2.64447C88.8545 3.20674 88.6407 3.57894 88.316 3.74525L88.2368 3.77692L88.1418 3.87196L88.0151 3.91155L87.9438 3.89571L87.8725 3.90363H87.8409L87.7775 4.02242L87.6904 4.10161L87.627 4.07785L87.5637 4.08577H87.5558L87.5399 4.10953L87.4528 4.14913C87.437 4.27584 87.4053 4.45006 87.2469 4.47382L87.1519 4.48966L87.0569 4.54509C87.0489 4.61637 87.0331 4.69556 86.9539 4.74307L86.6767 4.79851L86.5738 4.81434L86.4787 4.80643L86.4471 4.79851L86.3283 4.82227L86.2966 4.75891Z" fill="#666666" fill-opacity="0.63"/>
<path fill-rule="evenodd" clip-rule="evenodd" d="M64.3073 8.63424C63.7054 8.63424 63.1035 8.81638 62.5729 9.15691C61.5434 9.8538 60.9733 11.1684 60.9733 12.8473C60.9733 13.9005 61.195 15.7853 62.7076 16.6406C63.1352 16.8703 63.6024 16.9811 64.1251 16.9811C64.6557 16.9811 65.0992 16.8386 65.313 16.7198C67.1028 15.8487 67.2374 13.4016 67.2374 12.6651C67.2374 11.8653 67.0948 9.91716 65.7248 9.0302C65.4476 8.84805 64.9725 8.63424 64.3073 8.63424ZM60.8941 8.15116C61.5276 7.43051 63.0243 6.0288 65.2734 6.0288H65.3288C67.3166 6.04464 68.4886 7.06622 69.0113 7.67601C69.7082 8.49961 70.5397 10.0122 70.5397 12.5543C70.5397 13.9797 70.2863 15.0568 70.0725 15.7141C69.0113 19.0164 66.4455 19.5074 65.0042 19.5074C63.8717 19.5074 62.8739 19.1589 62.0265 18.4779C61.781 18.272 61.5276 17.9552 61.3534 17.7414L61.1554 17.488C61.1554 17.488 61.0287 17.5117 61.0129 17.7572C61.0049 17.8998 60.997 18.0582 60.9733 18.1849C61.0049 18.7075 60.9653 19.2381 60.9891 19.7687C60.9653 20.1884 61.0049 20.6477 60.9653 21.0754C60.9495 21.6456 60.9337 22.2237 60.902 22.8176C60.9178 22.9681 60.902 23.1027 60.902 23.2532C60.902 23.4353 60.8703 23.5858 60.8545 23.76C60.8149 23.8313 60.8545 23.9105 60.7832 23.9738C60.609 24.061 60.5219 24.2589 60.4743 24.4411C60.4427 25.5181 60.3872 26.6268 60.3397 27.7196C60.3239 27.9414 60.3001 28.1552 60.2288 28.3374L60.0071 28.6304L59.9438 29.0659L59.8646 29.1451C59.8329 28.9234 59.8725 28.6937 59.8566 28.4561L59.8646 27.886L59.817 27.8226C59.6983 28.4641 59.6666 28.9313 59.6111 29.5728L59.532 29.5648C59.4528 29.3748 59.4924 29.1768 59.4765 28.9709C59.3181 28.7571 59.2865 28.6304 59.3181 28.3611L59.3419 27.6009C59.3181 27.5137 59.3181 27.4029 59.3181 27.3158C59.2469 27.2841 59.1597 27.2683 59.1439 27.1732L59.1202 27.1178C59.1835 26.6981 59.1439 26.2783 59.1993 25.8428C59.1518 25.7319 59.2152 25.5973 59.2073 25.4627C59.2627 24.8766 59.2706 24.2748 59.2706 23.6887C59.2073 23.6412 59.2469 23.5066 59.1439 23.5145C59.0251 24.0689 59.0172 24.6707 58.9063 25.2251C58.938 25.3518 58.8826 25.4389 58.8826 25.5814C58.9934 25.7002 59.041 25.8745 59.0251 26.0249L58.9301 26.1912L58.9618 26.4209C58.9142 26.5318 58.8588 26.6189 58.8113 26.7297H58.7242C58.7004 26.4763 58.7004 26.2229 58.7479 25.9932C58.74 25.7715 58.7559 25.5102 58.7479 25.2647C58.7955 24.2985 58.7638 23.3799 58.7479 22.4058L58.6767 22.3979C58.5737 22.7384 58.645 23.1186 58.5024 23.4353C58.4312 23.1344 58.3995 21.4872 58.4629 21.1308C58.447 20.5052 58.4866 19.8637 58.4708 19.2144C58.4787 18.8263 58.3045 18.5967 58.2965 18.8818C58.2807 19.3807 58.2253 19.84 58.2728 20.331C58.2728 21.2259 58.2253 22.1682 58.2015 23.071C58.2174 23.4908 58.1302 23.9184 58.154 24.354C58.1619 24.544 58.0986 24.7816 58.1619 24.9637C58.1382 25.035 58.1619 25.13 58.0827 25.1538C58.0352 25.0905 57.9006 25.1063 57.9243 24.9875C57.9006 24.9083 57.956 24.845 58.0115 24.7974C58.0431 24.5599 58.0431 24.2827 57.956 24.061C57.9243 23.7996 58.0669 23.57 58.0352 23.3086L57.9877 23.1819C57.9481 23.1106 57.9639 23.0156 57.9639 22.9364C58.059 22.7464 58.0035 22.4692 57.9956 22.2554C57.9877 22.097 57.8768 21.9782 57.8847 21.8119C57.861 21.4001 57.8689 21.0437 57.8927 20.6477C57.8927 20.3389 57.9164 19.9904 57.9164 19.6578C57.9243 19.3252 57.9164 18.9293 57.8927 18.5729C57.9164 17.979 57.8927 17.3929 57.8927 16.7752L57.8372 16.704C57.7739 16.9811 57.6155 16.8228 57.5601 16.6564C57.5917 16.4743 57.5759 16.3159 57.5759 16.1496C57.5917 16.0308 57.5997 15.8804 57.5997 15.7457C57.568 15.0805 57.663 14.4074 57.6234 13.7738C57.663 13.0453 57.5997 12.3325 57.6788 11.6198L57.6709 11.2001C57.6868 10.5428 57.7026 9.86172 57.7105 9.20442C57.6868 9.02228 57.6947 8.83222 57.6868 8.64216L57.6313 8.63424C57.5838 8.7847 57.5284 8.92725 57.5284 9.09355L57.3779 9.12523C57.3066 8.95893 57.3542 8.80054 57.3066 8.63424C57.3225 8.32538 57.3146 8.0007 57.3938 7.7156L57.4413 7.70768C57.4729 7.20877 57.4729 6.66234 57.6472 6.21095C57.6868 6.09216 57.7976 6.06048 57.8927 6.03672C58.0669 6.0288 58.1461 6.25054 58.2411 6.36141C58.3757 6.33765 58.5341 6.39309 58.6608 6.29014C58.8588 6.2347 58.7796 6.51188 58.8747 6.59899C58.9459 6.71778 59.0647 6.70194 59.1756 6.70194C59.5399 6.67818 59.3102 6.05256 59.7062 6.16343C59.7854 6.32181 59.9517 6.38517 60.1021 6.36933C60.3635 6.46436 60.7278 6.44852 60.8228 6.78905C60.902 6.98703 60.9099 7.23253 60.9178 7.43051C60.9257 7.67601 60.8941 8.15116 60.8941 8.15116Z" fill="#666666" fill-opacity="0.63"/>
<path fill-rule="evenodd" clip-rule="evenodd" d="M36.7451 13.2296C35.8502 13.2296 34.5515 13.2929 33.6566 13.8394C33.2131 14.1165 33.0072 14.4729 32.9122 14.6392C32.8805 14.6867 32.6667 15.0272 32.6667 15.5341C32.6667 15.7637 32.738 16.0488 32.8488 16.3022C33.3081 17.3001 34.401 17.4109 34.8445 17.4109C35.1137 17.4109 36.4758 17.3476 37.3786 16.128C38.0122 15.2965 38.0755 14.4571 38.1547 13.483L38.1706 13.2692L37.9092 13.2612C37.5608 13.2454 37.1648 13.2296 36.7451 13.2296ZM33.9417 19.4541C33.2923 19.4541 31.0907 19.3195 29.9979 17.5456C29.8237 17.2842 29.4119 16.5636 29.4119 15.5262C29.4119 14.4571 29.8633 13.7285 30.0533 13.4196C31.3521 11.5348 34.0763 11.3131 36.0086 11.3131C36.6817 11.3131 37.3707 11.3369 37.9647 11.3606L38.0914 11.3685V11.2418C38.0835 10.8855 38.028 10.1807 37.8855 9.79261C37.6637 9.19867 37.0064 8.20084 35.0821 8.20084C33.8862 8.20084 33.0389 8.51761 32.4845 8.73143C32.2866 8.81062 32.1123 8.87398 31.9777 8.89773L31.8748 8.90565C31.4867 8.90565 31.2254 8.35923 31.0591 7.18718L31.0195 6.86249L31.162 6.81497C32.7775 6.26854 33.7833 6.02304 35.4226 6.02304C35.7473 6.02304 36.5154 6.02304 37.3549 6.22103C39.6435 6.7437 40.3959 8.06621 40.6414 8.81062C40.9106 9.57087 40.9344 10.3549 40.9661 11.9229L41.0136 19.4541H39.5881C38.812 19.4541 38.3606 18.4246 38.1706 17.8227C37.7112 18.4642 36.4996 19.4462 34.0526 19.4462L33.9417 19.4541Z" fill="#666666" fill-opacity="0.63"/>
<path fill-rule="evenodd" clip-rule="evenodd" d="M79.1345 13.2296C78.2396 13.2296 76.9409 13.2929 76.046 13.8394C75.6025 14.1165 75.3966 14.4729 75.2936 14.6392C75.262 14.6867 75.0561 15.0272 75.0561 15.5341C75.0561 15.7637 75.1273 16.0488 75.2382 16.3022C75.6975 17.3001 76.7904 17.4109 77.2418 17.4109C77.5031 17.4109 78.8732 17.3476 79.7759 16.128C80.4095 15.2965 80.4728 14.4571 80.552 13.483L80.5679 13.2692L80.3065 13.2612C79.9502 13.2454 79.5463 13.2296 79.1345 13.2296ZM76.3311 19.4541C75.6817 19.4541 73.4801 19.3195 72.3794 17.5456C72.2051 17.2842 71.7933 16.5636 71.7933 15.5262C71.7933 14.4571 72.2447 13.7285 72.4348 13.4196C73.7336 11.5348 76.4578 11.3131 78.3901 11.3131C79.0632 11.3131 79.7522 11.3369 80.3461 11.3606L80.4728 11.3685V11.2418C80.4649 10.8855 80.4095 10.1807 80.2669 9.79261C80.0452 9.19867 79.3879 8.20084 77.4635 8.20084C76.2677 8.20084 75.4283 8.51761 74.866 8.73143C74.668 8.81062 74.4859 8.87398 74.3592 8.89773L74.2562 8.90565C73.8682 8.90565 73.6068 8.35923 73.4405 7.18718L73.4009 6.86249L73.5435 6.81497C75.159 6.26854 76.1648 6.02304 77.8041 6.02304C78.1287 6.02304 78.8969 6.02304 79.7364 6.22103C82.025 6.7437 82.7773 8.06621 83.0228 8.81062C83.2921 9.57087 83.3159 10.3549 83.3475 11.9229L83.395 19.4541H81.9696C81.1935 19.4541 80.7421 18.4246 80.552 17.8227C80.0927 18.4642 78.8811 19.4462 76.434 19.4462L76.3311 19.4541Z" fill="#666666" fill-opacity="0.63"/>
<path fill-rule="evenodd" clip-rule="evenodd" d="M17.9446 19.5774C16.9151 19.5774 16.1073 19.4982 14.3017 19.0626L14.1117 18.9993L14.1671 18.5004V18.4925C14.3334 17.455 14.9828 16.8848 15.9885 16.8848H16.0519L16.0677 16.8928C16.5508 17.0036 17.0339 17.0591 17.5011 17.0591C19.18 17.0591 19.9403 16.2671 19.9403 15.5307C19.9086 14.8338 19.3621 14.4932 18.9583 14.2952C18.4752 14.0656 17.9763 13.8993 17.5011 13.733C17.0497 13.5825 16.63 13.44 16.2182 13.2578C15.3788 12.8856 13.9771 11.9591 13.9771 9.97134C13.9771 9.67832 14.0246 8.91808 14.468 8.14991C14.864 7.51637 16.1152 6.0513 19.1958 6.0513C20.3521 6.0513 21.2548 6.17009 22.419 6.45518L22.5615 6.48686V6.62941C22.5615 6.79571 22.5457 7.04121 22.5219 7.27879C22.4586 7.84105 22.0072 8.52211 21.5399 8.52211H21.4845C21.3578 8.50627 21.239 8.48252 21.1044 8.45876C20.7955 8.3954 20.4075 8.32413 19.671 8.32413C18.7682 8.32413 18.2139 8.52211 17.905 8.68841C17.1923 9.06062 17.1368 9.6704 17.1368 9.85255C17.1368 10.5653 17.7466 10.8187 18.198 11.0008C18.6494 11.1909 19.1166 11.3334 19.568 11.476C20.0907 11.6423 20.6292 11.8086 21.144 12.0383C22.4507 12.6639 23.1634 13.8359 23.1634 15.3485C23.1634 16.1563 22.9337 17.3125 21.8725 18.2311C20.9302 19.023 19.6868 19.5774 17.9446 19.5774Z" fill="#666666" fill-opacity="0.63"/>
</svg>
