<svg width="94" height="26" viewBox="0 0 94 26" fill="none" xmlns="http://www.w3.org/2000/svg">
<path d="M26.3753 0.586866C27.1532 0.46948 28.0483 0.396107 28.7087 0.880359C29.1196 1.18845 29.2663 1.74608 29.2369 2.24514C29.2663 3.0669 28.8848 3.94743 28.1512 4.37307C27.5053 4.72529 26.7276 4.75448 26.0085 4.68116C25.5242 4.62255 25.04 4.35847 24.7905 3.91818C24.2327 2.64142 24.9225 0.836346 26.3753 0.586866ZM3.10041 1.51141C3.14437 1.07112 3.54065 0.674892 3.99554 0.689653C7.38563 0.689653 10.7609 0.704252 14.1362 0.689653C14.5031 0.660293 14.8994 0.821639 15.0754 1.14449C15.3248 1.58478 15.1047 2.06904 15.0754 2.52404C14.9727 3.14027 15.002 3.96219 14.283 4.19691C11.8175 4.27029 9.35205 4.19691 6.88657 4.22627C6.65179 5.78176 6.43168 7.32265 6.1968 8.86354C6.1968 8.92226 6.21155 9.05446 6.21155 9.11297C8.01657 9.09837 9.8216 9.11297 11.6266 9.09837C12.1256 9.06901 12.6538 9.49476 12.6098 10.0229C12.5659 10.5659 12.4484 11.0942 12.3751 11.6372C12.3163 12.004 12.0228 12.3416 11.6413 12.415C9.63073 12.459 7.59083 12.371 5.5805 12.459C5.25754 14.6749 4.87597 16.8908 4.53841 19.1069C4.4945 19.5472 4.14218 19.9287 3.70194 19.9432C2.86554 19.958 2.02895 19.958 1.19255 19.9432C0.649578 19.958 0.209282 19.3561 0.355975 18.8426C1.25143 13.0608 2.17592 7.29351 3.10041 1.51141ZM18.0104 0.718852C18.7736 0.660239 19.5512 0.704252 20.3144 0.689653C20.7841 0.660293 21.2537 1.02711 21.2976 1.51141C21.2976 1.89288 21.1949 2.2745 21.1509 2.65602C20.5345 6.58903 19.9035 10.522 19.2871 14.455C19.199 15.086 19.0376 15.761 19.2284 16.4068C19.4486 17.0524 20.4317 16.7736 20.6665 17.4486C20.8133 17.9916 20.6518 18.5639 20.6078 19.1216C20.5638 19.8554 19.7273 20.0167 19.1551 20.1784C17.9077 20.4131 16.396 20.237 15.5009 19.2096C14.8551 18.4613 14.8111 17.4046 14.9433 16.4655C15.721 11.4759 16.4988 6.4864 17.2913 1.48205C17.3354 1.11513 17.6288 0.777626 18.0104 0.718852ZM47.1407 1.51141C47.1846 1.07112 47.5809 0.689653 48.0212 0.689653H50.2518C50.8095 0.674892 51.2645 1.27664 51.1324 1.80485C50.6188 5.06279 50.0905 8.32073 49.5769 11.5785C50.3546 11.4611 51.2352 11.3144 51.7782 10.6834C52.6879 9.65599 53.4365 8.46753 53.9941 7.22014C54.1848 6.73578 54.2876 6.0314 54.9186 5.94332C55.7551 5.91396 56.6062 5.92862 57.4427 5.94332C58.0151 5.92862 58.4406 6.57432 58.2499 7.10259C58.0298 7.88055 57.6629 8.59952 57.2814 9.28929C56.4302 10.6688 55.4911 12.0335 54.2582 13.1195C54.8012 14.7484 55.491 16.3333 56.0926 17.933C56.2687 18.4613 56.6944 19.0776 56.2981 19.5913C55.8431 20.2076 54.9919 19.8993 54.3609 19.9727C53.7005 19.8993 52.7467 20.2369 52.3798 19.4885C51.69 17.8888 51.1178 16.2454 50.4132 14.6457C50.0023 14.6602 49.5768 14.6751 49.1658 14.631C49.1366 14.6898 49.0779 14.807 49.0484 14.8659C48.8283 16.3333 48.5936 17.8009 48.3587 19.2683C48.2706 19.6205 47.9918 19.9288 47.6103 19.9581C46.8325 19.9875 46.04 19.9727 45.2476 19.9727C44.91 19.9727 44.6019 19.7526 44.4551 19.4591C44.3083 19.1655 44.3963 18.8281 44.4405 18.5053C45.3503 12.8406 46.2454 7.17596 47.1407 1.51141ZM87.9231 3.11102C88.0259 2.69998 88.422 2.42125 88.833 2.43585C89.4201 2.45061 90.0217 2.42125 90.6233 2.45061C91.1077 2.46521 91.4892 2.94951 91.4304 3.41911C91.3424 4.25563 91.1368 5.09215 91.0782 5.92851C91.6505 5.92851 92.2375 5.91391 92.8099 5.92851C93.3236 5.92851 93.7492 6.45688 93.6611 6.95573C93.5876 7.41084 93.4849 7.85113 93.4115 8.30586C93.3382 8.68754 93.0154 8.99569 92.6485 9.05436C91.9441 9.09837 91.2544 9.025 90.5646 9.09837C90.2711 11.0647 89.9483 13.0312 89.6401 14.9979C89.596 15.4527 89.5667 15.9663 89.8308 16.3626C90.2271 16.8469 90.9167 16.6707 91.4745 16.7295C91.9147 16.8615 92.1935 17.3459 92.1201 17.7862C92.0467 18.285 92.0321 18.7841 91.9148 19.2683C91.7386 19.8112 91.1076 19.914 90.6232 20.046C89.2878 20.3983 87.7469 20.3983 86.5584 19.6205C85.4578 18.872 85.2815 17.4192 85.3989 16.1864C85.707 13.809 86.1915 11.4464 86.4556 9.0543C86.0447 9.0689 85.5457 9.12768 85.2376 8.76076C84.8854 8.39394 85.0615 7.85092 85.1201 7.39586C85.2083 6.91161 85.1935 6.28062 85.7219 6.01643C86.1474 5.85492 86.6318 5.97247 87.0867 5.9137C87.3655 4.97466 87.6296 4.03551 87.9231 3.11102ZM79.6316 7.86568C80.5561 6.94113 81.6714 6.17804 82.9481 5.79658C83.5058 5.54704 84.2249 6.0167 84.2103 6.63304C84.1076 7.4402 83.9168 8.23255 83.7847 9.025C83.7258 9.42128 83.3884 9.75883 82.9921 9.80285C81.5539 10.0522 80.3066 10.9179 79.3087 11.9453C79.0593 12.2536 78.6923 12.5471 78.6483 12.9726C78.3402 15.0271 78.0173 17.0817 77.6945 19.1362C77.6505 19.5764 77.2688 20.0021 76.8139 19.9727H74.5832C74.0697 20.0021 73.6148 19.4885 73.6734 18.9748C74.3191 14.9097 74.965 10.8595 75.5959 6.79433C75.6253 6.38351 75.9188 5.98728 76.3443 5.94322C76.8873 5.91386 77.4302 5.92851 77.988 5.92851C78.4282 5.92851 78.839 6.32473 78.839 6.77973C78.839 7.41073 78.7804 8.05638 78.7657 8.70209C79.118 8.48213 79.3381 8.12986 79.6316 7.86568ZM24.7757 6.00194C25.5681 5.84059 26.3899 5.97268 27.1824 5.92856C27.6374 5.86995 28.1216 6.16339 28.195 6.61839C28.2538 7.02921 28.1362 7.42549 28.0922 7.82177C27.4906 11.5934 26.8888 15.3648 26.3018 19.1363C26.2578 19.5621 25.9057 19.9876 25.4507 19.9728C24.6583 19.9728 23.8658 19.9876 23.0587 19.9582C22.5597 19.8994 22.1928 19.3272 22.3249 18.8428C22.956 14.9247 23.5577 11.021 24.1887 7.10264C24.2181 6.67706 24.3355 6.17804 24.7757 6.00194ZM72.2646 6.19286C70.0779 5.78182 67.8474 5.48832 65.6314 5.70844C63.6502 5.95798 61.6544 6.85321 60.4365 8.48213C58.7488 10.6247 58.1764 13.5011 58.5579 16.172C58.7634 17.4487 59.321 18.7402 60.3631 19.5326C61.3316 20.281 62.6377 20.3837 63.8117 20.1929C65.4552 19.87 66.8494 18.8136 67.9941 17.6395C68.0527 18.1384 67.9354 18.6374 67.9648 19.1217C67.9941 19.5765 68.405 20.0021 68.8599 19.9727H70.3569C70.7971 19.9727 71.164 19.562 71.1934 19.1363C71.8244 15.1593 72.4554 11.1969 73.0718 7.23474C73.1597 6.73572 72.7637 6.25147 72.2646 6.19286ZM68.141 13.1048C67.5539 14.2055 66.732 15.2034 65.8075 16.0544C65.2793 16.4947 64.6041 16.9497 63.8852 16.803C63.1807 16.6562 62.8431 15.9225 62.6818 15.2914C62.3149 13.6478 62.6524 11.8574 63.5769 10.434C63.9878 9.77344 64.6482 9.27458 65.4113 9.06906C66.4825 8.80488 67.6127 8.93697 68.6546 9.23046L68.7133 9.28929C68.5812 10.5659 68.3317 11.828 68.141 13.1048ZM43.4573 10.9036C43.4425 9.43598 43.0463 7.89515 42.0191 6.79444C41.3147 6.0167 40.2581 5.62047 39.2308 5.63502C37.5284 5.57646 35.9289 6.41298 34.6815 7.52817C34.4026 7.7484 34.2119 8.07125 33.9038 8.24731C33.9038 7.76289 33.9477 7.27869 33.933 6.77979C33.9477 6.32474 33.5221 5.92856 33.0819 5.92856H31.5849C31.1154 5.92856 30.7338 6.33955 30.7045 6.79439C29.7799 12.6645 28.8408 18.5346 27.9162 24.4047C27.7842 24.9476 28.2539 25.5054 28.8115 25.4906C29.6333 25.476 30.4698 25.5494 31.2769 25.4318C31.9227 25.2557 31.9079 24.5073 32.0107 23.9644C32.2454 22.6729 32.407 21.3815 32.5537 20.0754C35.4447 20.633 38.8053 20.2516 40.9625 18.0649C42.7235 16.1426 43.5452 13.4863 43.4573 10.9036ZM39.3482 12.3857C39.2602 13.7358 38.7759 15.1006 37.8367 16.0837C36.6188 17.2432 34.7695 17.0817 33.2727 16.6856C33.2435 16.6415 33.1993 16.5534 33.1847 16.5095C33.4194 15.2327 33.5369 13.9413 33.8304 12.6792C34.6522 11.3292 35.65 9.96425 37.0735 9.21592C37.6019 8.96649 38.3209 9.02516 38.7025 9.50946C39.3482 10.3166 39.4069 11.4025 39.3482 12.3857Z" fill="#666666" fill-opacity="0.63" stroke="#666666" stroke-opacity="0.63" stroke-width="0.00542114"/>
</svg>
