<svg width="94" height="26" viewBox="0 0 94 26" fill="none" xmlns="http://www.w3.org/2000/svg">
<path d="M26.2306 0.499585C27.014 0.381375 27.9154 0.307487 28.5804 0.795136C28.9941 1.10539 29.1419 1.66693 29.1123 2.16949C29.1419 2.99702 28.7577 3.88372 28.0189 4.31235C27.3686 4.66703 26.5854 4.69644 25.8612 4.6226C25.3736 4.56358 24.8859 4.29765 24.6347 3.85427C24.073 2.56855 24.7676 0.750814 26.2306 0.499585ZM2.79247 1.43062C2.83674 0.987234 3.2358 0.588228 3.69388 0.603092C7.10775 0.603092 10.5067 0.617794 13.9057 0.603092C14.2751 0.573526 14.6742 0.736005 14.8514 1.06112C15.1026 1.5045 14.881 1.99215 14.8514 2.45034C14.7481 3.0709 14.7775 3.89859 14.0535 4.13495C11.5707 4.20884 9.08797 4.13495 6.60518 4.16452C6.36876 5.73092 6.1471 7.28262 5.91057 8.83432C5.91057 8.89345 5.92543 9.02658 5.92543 9.08549C7.74312 9.07079 9.56081 9.08549 11.3785 9.07079C11.881 9.04123 12.4129 9.46996 12.3686 10.0018C12.3243 10.5487 12.2061 11.0806 12.1322 11.6275C12.073 11.9969 11.7775 12.3368 11.3932 12.4107C9.3686 12.455 7.31439 12.3663 5.28996 12.455C4.96473 14.6865 4.58048 16.9179 4.24055 19.1495C4.19634 19.5929 3.84155 19.9771 3.39822 19.9917C2.55595 20.0066 1.71349 20.0066 0.871226 19.9917C0.324445 20.0066 -0.118939 19.4005 0.0287823 18.8833C0.930517 13.061 1.86149 7.25327 2.79247 1.43062ZM17.807 0.632496C18.5756 0.573473 19.3587 0.617794 20.1273 0.603092C20.6002 0.573526 21.0731 0.942912 21.1173 1.43062C21.1173 1.81476 21.0139 2.19906 20.9696 2.58325C20.3489 6.54385 19.7134 10.5044 19.0927 14.465C19.004 15.1004 18.8415 15.7802 19.0336 16.4304C19.2553 17.0806 20.2453 16.7998 20.4818 17.4796C20.6296 18.0264 20.467 18.6027 20.4226 19.1644C20.3784 19.9032 19.536 20.0657 18.9598 20.2285C17.7037 20.4649 16.1814 20.2875 15.2799 19.2529C14.6297 18.4994 14.5853 17.4353 14.7184 16.4896C15.5016 11.465 16.2848 6.4405 17.0829 1.40105C17.1273 1.03156 17.4228 0.691682 17.807 0.632496ZM47.1417 1.43062C47.1859 0.987234 47.585 0.603092 48.0283 0.603092H50.2746C50.8362 0.588228 51.2944 1.19419 51.1613 1.72611C50.6441 5.00691 50.1122 8.2877 49.5949 11.5683C50.3781 11.4501 51.2649 11.3023 51.8117 10.6669C52.7278 9.63233 53.4816 8.43553 54.0431 7.17938C54.2352 6.69163 54.3387 5.98231 54.9742 5.89362C55.8165 5.86405 56.6736 5.87881 57.516 5.89362C58.0924 5.87881 58.5209 6.52904 58.3288 7.06101C58.1071 7.84443 57.7377 8.56844 57.3535 9.26305C56.4963 10.6522 55.5506 12.0265 54.3091 13.1201C54.8559 14.7604 55.5506 16.3565 56.1564 17.9674C56.3337 18.4994 56.7624 19.12 56.3633 19.6374C55.9051 20.258 55.048 19.9475 54.4126 20.0214C53.7475 19.9475 52.787 20.2874 52.4175 19.5338C51.7229 17.9229 51.1466 16.2679 50.4372 14.657C50.0234 14.6717 49.5949 14.6866 49.181 14.6423C49.1516 14.7014 49.0924 14.8195 49.0628 14.8787C48.8411 16.3565 48.6047 17.8344 48.3682 19.3121C48.2795 19.6668 47.9987 19.9772 47.6146 20.0067C46.8314 20.0363 46.0333 20.0214 45.2353 20.0214C44.8953 20.0214 44.5851 19.7998 44.4372 19.5042C44.2894 19.2085 44.378 18.8688 44.4226 18.5437C45.3387 12.8393 46.2402 7.1349 47.1417 1.43062ZM88.2101 3.04145C88.3136 2.62752 88.7125 2.34684 89.1265 2.36154C89.7176 2.3764 90.3235 2.34683 90.9293 2.3764C91.417 2.3911 91.8012 2.87881 91.7421 3.3517C91.6534 4.19409 91.4464 5.03647 91.3874 5.8787C91.9637 5.8787 92.5548 5.864 93.1312 5.8787C93.6485 5.8787 94.0771 6.41078 93.9884 6.91313C93.9144 7.37143 93.811 7.81481 93.7371 8.27273C93.6632 8.65709 93.3382 8.96739 92.9687 9.02647C92.2593 9.07079 91.5648 8.9969 90.8702 9.07079C90.5747 11.051 90.2495 13.0312 89.9392 15.0117C89.8947 15.4697 89.8653 15.9869 90.1313 16.386C90.5303 16.8737 91.2248 16.6962 91.7865 16.7555C92.2298 16.8884 92.5105 17.3762 92.4366 17.8196C92.3627 18.3219 92.348 18.8244 92.2298 19.312C92.0525 19.8587 91.417 19.9623 90.9292 20.0952C89.5844 20.45 88.0327 20.45 86.8358 19.6667C85.7275 18.913 85.5501 17.45 85.6683 16.2086C85.9785 13.8145 86.4664 11.4353 86.7323 9.02642C86.3186 9.04112 85.816 9.1003 85.5058 8.73081C85.1511 8.36143 85.3284 7.81459 85.3875 7.35635C85.4763 6.8687 85.4614 6.23327 85.9935 5.96723C86.422 5.80459 86.9098 5.92297 87.3678 5.86378C87.6486 4.91816 87.9146 3.97242 88.2101 3.04145ZM79.8605 7.82945C80.7915 6.89842 81.9146 6.12998 83.2003 5.74584C83.7618 5.49456 84.486 5.9675 84.4713 6.58817C84.3679 7.40099 84.1757 8.19889 84.0427 8.99691C83.9834 9.39596 83.6436 9.73589 83.2446 9.78021C81.7963 10.0313 80.5402 10.9031 79.5353 11.9377C79.2841 12.2482 78.9146 12.5437 78.8703 12.9722C78.5601 15.0411 78.2349 17.1101 77.9098 19.179C77.8655 19.6223 77.4811 20.051 77.0231 20.0214H74.7767C74.2595 20.051 73.8015 19.5338 73.8605 19.0165C74.5108 14.9229 75.1611 10.8443 75.7965 6.75059C75.826 6.33689 76.1217 5.93788 76.5501 5.89351C77.097 5.86394 77.6437 5.8787 78.2053 5.8787C78.6487 5.8787 79.0624 6.2777 79.0624 6.73589C79.0624 7.37132 79.0033 8.0215 78.9885 8.67173C79.3433 8.45023 79.5649 8.09549 79.8605 7.82945ZM24.6198 5.95264C25.4178 5.79016 26.2453 5.92318 27.0434 5.87875C27.5016 5.81973 27.9892 6.11522 28.063 6.57342C28.1223 6.98712 28.0039 7.38618 27.9595 7.78524C27.3537 11.5833 26.7477 15.3812 26.1566 19.1792C26.1123 19.6079 25.7578 20.0364 25.2995 20.0215C24.5016 20.0215 23.7035 20.0364 22.8908 20.0068C22.3883 19.9476 22.0188 19.3714 22.1518 18.8836C22.7873 14.938 23.3933 11.0069 24.0287 7.06107C24.0583 6.63249 24.1765 6.12998 24.6198 5.95264ZM72.4418 6.1449C70.2398 5.73098 67.9937 5.43542 65.7621 5.65709C63.767 5.90837 61.7572 6.80989 60.5307 8.45023C58.8312 10.6078 58.2548 13.5044 58.6389 16.1941C58.846 17.4797 59.4074 18.7802 60.4568 19.5782C61.4321 20.3319 62.7474 20.4353 63.9297 20.2432C65.5847 19.918 66.9886 18.8542 68.1414 17.6718C68.2004 18.1742 68.0822 18.6768 68.1118 19.1645C68.1414 19.6224 68.5551 20.051 69.0132 20.0214H70.5207C70.964 20.0214 71.3335 19.6078 71.3631 19.1791C71.9985 15.1742 72.634 11.1841 73.2547 7.19409C73.3432 6.69157 72.9444 6.20392 72.4418 6.1449ZM68.2893 13.1053C67.6981 14.2137 66.8704 15.2186 65.9394 16.0756C65.4075 16.519 64.7276 16.9772 64.0036 16.8295C63.2942 16.6817 62.9543 15.9428 62.7918 15.3073C62.4223 13.6522 62.7622 11.8491 63.6931 10.4157C64.107 9.75059 64.7719 9.24824 65.5404 9.04128C66.6192 8.77524 67.7572 8.90826 68.8065 9.20381L68.8656 9.26305C68.7326 10.5487 68.4813 11.8196 68.2893 13.1053ZM43.4324 10.8886C43.4175 9.41077 43.0186 7.85913 41.9842 6.7507C41.2749 5.9675 40.2108 5.5685 39.1763 5.58315C37.462 5.52418 35.8512 6.36656 34.5951 7.48958C34.3142 7.71135 34.1222 8.03647 33.8119 8.21376C33.8119 7.72595 33.8562 7.23835 33.8413 6.73595C33.8562 6.2777 33.4276 5.87875 32.9842 5.87875H31.4768C31.004 5.87875 30.6197 6.29262 30.5901 6.75065C29.6591 12.6619 28.7134 18.5732 27.7823 24.4845C27.6494 25.0312 28.1224 25.5929 28.6839 25.5781C29.5114 25.5633 30.3538 25.6372 31.1666 25.5188C31.8169 25.3415 31.802 24.5878 31.9055 24.0411C32.1419 22.7405 32.3046 21.4401 32.4523 20.1248C35.3636 20.6863 38.7478 20.3022 40.9202 18.1002C42.6935 16.1644 43.521 13.4895 43.4324 10.8886ZM39.2945 12.3812C39.2059 13.7408 38.7182 15.1152 37.7724 16.1052C36.5459 17.2728 34.6837 17.1101 33.1764 16.7112C33.147 16.6668 33.1025 16.5781 33.0877 16.5339C33.3242 15.2482 33.4424 13.9477 33.738 12.6768C34.5656 11.3173 35.5704 9.94274 37.0039 9.18916C37.5359 8.93799 38.26 8.99707 38.6443 9.48477C39.2945 10.2975 39.3537 11.3911 39.2945 12.3812Z" fill="#107BD4" stroke="#107BD4" stroke-width="0.00545916"/>
</svg>
