<svg width="111" height="16" viewBox="0 0 111 16" fill="none" xmlns="http://www.w3.org/2000/svg">
<path d="M12.7072 0.795898C11.6514 0.795898 10.7616 0.971867 10.0147 1.3288C9.26783 1.68574 8.52397 2.30863 7.7901 3.15347V1.10084H2.71702C1.36227 1.09984 0.541419 2.06567 0.0255127 3.49541C1.14031 3.63938 2.58805 3.14047 2.71702 5.2061V14.9753H8.18003V7.90461C8.18003 6.8508 8.363 6.08594 8.76592 5.62502C9.16785 5.16211 9.70075 4.94015 10.3266 4.94015C10.6839 4.94084 11.0316 5.05541 11.3193 5.26721C11.6069 5.47901 11.8196 5.77702 11.9263 6.11793C11.9983 6.33589 12.0433 6.72482 12.0433 7.33471V14.9753H17.5063V7.82862C17.5063 6.8268 17.6983 6.11493 18.0922 5.66202C18.4852 5.2091 19.0091 4.97814 19.6519 4.97814C20.1978 4.97814 20.6518 5.22109 21.0187 5.70001C21.2687 6.00495 21.4086 6.44187 21.4086 7.06876V14.9753H26.8716V6.27091C26.8716 4.38925 26.4417 3.0115 25.5839 2.12666C24.725 1.24282 23.5232 0.796898 21.9945 0.796898C20.9567 0.796898 20.0859 0.963867 19.379 1.29081C18.6731 1.61775 17.8963 2.24764 17.0384 3.15347C16.6185 2.37761 16.0606 1.79672 15.3987 1.40479C14.7378 1.01286 13.843 0.795898 12.7072 0.795898ZM58.7128 0.948871C57.58 0.869885 56.5632 1.42779 56.4493 2.20264C56.3343 2.9785 57.1501 3.68237 58.2829 3.76236C59.4157 3.84034 60.4325 3.24445 60.5465 2.46959C60.6615 1.69374 59.8456 1.02686 58.7128 0.948871ZM43.0257 1.06285C41.8889 1.3188 42.0039 1.8777 41.621 2.31662C42.2438 2.48959 43.0007 2.30662 43.0257 3.83735V14.9753H47.006V10.1482C47.006 9.22837 47.1359 8.60148 47.4359 8.24754C47.7348 7.89261 48.1258 7.71464 48.6057 7.71464C49.0416 7.71464 49.3805 7.83262 49.6205 8.09457C49.8605 8.35752 50.0104 8.79245 50.0104 9.42533V14.9753H53.9907V8.58949C53.9907 7.26473 53.6758 6.2639 53.0549 5.62402C52.433 4.98414 51.5981 4.6742 50.5183 4.6742C49.7895 4.6742 49.1386 4.78118 48.6057 5.01613C48.0728 5.25009 47.5459 5.65002 47.006 6.19392V1.06285H43.0257ZM83.2954 1.06285C82.3515 1.08284 82.2426 1.65874 81.9296 2.08866C82.6515 2.08866 83.0554 2.56458 83.2954 3.26745V5.88997C82.9095 5.49309 82.4441 5.18234 81.9296 4.97814C81.3952 4.76957 80.8255 4.66636 80.2519 4.6742C78.9842 4.6742 77.9524 5.11711 77.1305 6.00395C76.3076 6.89179 75.8817 8.17156 75.8817 9.84326C75.8817 11.339 76.2687 12.5998 77.0135 13.6446C77.7584 14.6904 78.8412 15.2043 80.2529 15.2043C80.9548 15.2043 81.5927 15.0773 82.1646 14.7854C82.5935 14.5634 83.0484 14.1265 83.5693 13.4926V14.9753H87.3146V1.06285H83.2954ZM34.8712 4.6742C34.1293 4.6742 33.4404 4.71819 32.8026 4.82617C32.1657 4.93415 31.6448 5.08612 31.2808 5.28208C30.7739 5.55403 30.381 5.89997 30.111 6.27091C29.8411 6.64084 29.6681 7.14474 29.5252 7.79063L33.3095 8.17056C33.4664 7.73364 33.6804 7.4167 33.9343 7.25873C34.2593 7.05576 34.7272 6.95478 35.3781 6.95478C35.885 6.95478 36.2299 7.06876 36.4319 7.25873C36.6329 7.44869 36.7438 7.77163 36.7438 8.24754C36.2499 8.43751 35.781 8.58648 35.3391 8.70346C34.8972 8.82044 33.9403 9.0204 32.4516 9.31135C31.2088 9.55131 30.338 9.91924 29.8761 10.4142C29.4142 10.9081 29.2132 11.5479 29.2132 12.3138C29.2132 13.1317 29.5082 13.8095 30.149 14.3674C30.7889 14.9243 31.7227 15.2033 32.9585 15.2033C33.8884 15.2033 34.7142 15.0633 35.4171 14.7854C35.9962 14.5422 36.5253 14.1941 36.9778 13.7585C37.0238 14.0505 37.0498 14.2685 37.0948 14.4054C37.1408 14.5414 37.2577 14.7154 37.4067 14.9753H41.114C40.9447 14.6497 40.8138 14.3054 40.7241 13.9495C40.6621 13.6796 40.6461 13.3216 40.6461 12.8467V8.39952C40.6461 7.9236 40.5292 7.4017 40.3342 6.87879C40.1382 6.35589 39.8913 5.94696 39.5533 5.66202C39.0724 5.25009 38.4415 4.99414 37.7197 4.86416C36.9978 4.73418 36.062 4.6742 34.8712 4.6742ZM70.4967 4.6742C69.6839 4.6742 68.995 4.80417 68.4291 5.09212C67.8632 5.38007 67.3033 5.86498 66.7504 6.53686V4.90215H63.0441C62.2692 4.92215 62.1442 5.49204 61.9513 5.85198C62.5012 5.91497 62.9721 6.11493 63.0441 6.99177V14.9753H67.0233V10.1482C67.0233 9.22837 67.1533 8.60148 67.4533 8.24754C67.7532 7.89261 68.1431 7.71464 68.623 7.71464C69.06 7.71464 69.3979 7.83262 69.6389 8.09457C69.8788 8.35752 70.0288 8.79245 70.0288 9.42533V14.9753H74.0081V8.58949C74.0081 7.25973 73.6931 6.2609 73.0722 5.62402C72.4513 4.98714 71.5955 4.6742 70.4967 4.6742ZM96.0171 4.6742C95.4572 4.6742 94.9922 4.82317 94.6123 5.09212C94.2314 5.36207 93.8375 5.82099 93.4805 6.53686V4.90215H89.7732C88.8734 4.90415 88.9733 5.44206 88.8754 5.88997C89.2573 6.06294 89.7332 6.00695 89.7732 6.95478V14.9753H93.7525V11.5919C93.7525 9.97623 93.9684 8.87443 94.3774 8.28554C94.6643 7.86662 95.0672 7.67665 95.5871 7.67665C95.8601 7.67665 96.251 7.75263 96.7189 7.9426L97.9287 5.2061C97.2328 4.85116 96.602 4.6742 96.0171 4.6742ZM103.782 4.6742C103.041 4.6742 102.352 4.71819 101.714 4.82617C101.076 4.93415 100.556 5.08612 100.192 5.28208C99.6844 5.55403 99.2915 5.89997 99.0215 6.27091C98.7516 6.64084 98.5786 7.14474 98.4356 7.79063L102.221 8.17056C102.377 7.73364 102.591 7.4167 102.845 7.25873C103.171 7.05576 103.639 6.95478 104.289 6.95478C104.796 6.95478 105.141 7.06876 105.342 7.25873C105.544 7.44869 105.654 7.77163 105.654 8.24754C105.16 8.43751 104.692 8.58648 104.25 8.70346C103.808 8.82044 102.852 9.0204 101.362 9.31135C100.12 9.55131 99.2485 9.91924 98.7876 10.4142C98.3256 10.9081 98.1237 11.5479 98.1237 12.3138C98.1237 13.1317 98.4196 13.8095 99.0605 14.3674C99.7004 14.9243 100.634 15.2033 101.87 15.2033C102.8 15.2033 103.626 15.0633 104.328 14.7854C104.907 14.5423 105.436 14.1942 105.889 13.7585C105.934 14.0505 105.96 14.2685 106.006 14.4054C106.051 14.5414 106.168 14.7154 106.318 14.9753H110.026C109.817 14.5574 109.697 14.2185 109.636 13.9495C109.575 13.6806 109.557 13.3216 109.557 12.8467V8.39952C109.557 7.9236 109.44 7.4017 109.245 6.87879C109.05 6.35589 108.803 5.94696 108.465 5.66202C107.983 5.25009 107.352 4.99414 106.63 4.86416C105.908 4.73418 104.971 4.6742 103.782 4.6742ZM56.5272 4.90215V14.9753H60.5075V4.90215H56.5272ZM81.5007 7.56267C82.0276 7.56267 82.4435 7.74264 82.7885 8.13257C83.1334 8.5225 83.3344 9.12739 83.3344 9.91924C83.3344 10.7941 83.1654 11.434 82.8275 11.8199C82.4895 12.2068 82.0476 12.3898 81.5397 12.3898C81.0648 12.3898 80.6519 12.2038 80.3299 11.8199C80.008 11.437 79.862 10.8201 79.862 9.99523C79.862 9.11539 80.018 8.5065 80.3299 8.13357C80.6419 7.75963 81.0398 7.56267 81.5007 7.56267ZM36.7438 10.1862V10.8321C36.7438 11.314 36.6689 11.7099 36.5099 12.0109C36.3499 12.3108 36.07 12.5608 35.69 12.7707C35.3101 12.9807 34.9232 13.0747 34.4802 13.0747C34.0583 13.0747 33.7234 12.9647 33.5054 12.7707C33.2875 12.5778 33.1925 12.3528 33.1925 12.0489C33.1925 11.7819 33.2835 11.5349 33.5054 11.326C33.7194 11.123 34.2203 10.9271 35.0271 10.7181C35.619 10.5721 36.1969 10.3762 36.7438 10.1862ZM105.654 10.1862V10.8321C105.654 11.314 105.58 11.7099 105.42 12.0109C105.26 12.3108 104.981 12.5608 104.601 12.7707C104.221 12.9807 103.834 13.0747 103.391 13.0747C102.969 13.0747 102.634 12.9647 102.416 12.7707C102.198 12.5778 102.104 12.3528 102.104 12.0489C102.104 11.7819 102.194 11.5349 102.416 11.326C102.631 11.123 103.132 10.9271 103.938 10.7181C104.53 10.5721 105.108 10.3762 105.654 10.1862Z" fill="#666666"/>
</svg>
