<svg width="102" height="16" viewBox="0 0 102 16" fill="none" xmlns="http://www.w3.org/2000/svg">
<path fill-rule="evenodd" clip-rule="evenodd" d="M4.79086 4.50493H7.81747C8.99836 4.50493 9.44742 4.91241 9.44742 5.91046C9.44742 6.87148 8.99814 7.27851 7.81747 7.27851H4.79086V4.50493ZM0.102051 14.5996H4.79109V10.4948H9.81356C13.1389 10.4948 14.3361 8.53595 14.3361 6.00336C14.3361 3.06351 13.105 1.39995 9.77972 1.39995H0.102051V14.5996ZM15.8825 1.39995H28.5025V4.616H20.5715V6.39086H27.938V9.60826H20.5715V11.3829H28.5025V14.5996H15.8825V1.39995ZM35.1542 4.50493H38.1806C39.3613 4.50493 39.8105 4.91241 39.8105 5.91046C39.8105 6.87148 39.3613 7.27851 38.1806 7.27851H35.1542V4.50493ZM30.4652 14.5996H35.1542V10.4948H40.1758C43.502 10.4948 44.6995 8.53595 44.6995 6.00336C44.6995 3.06351 43.4684 1.39995 40.1424 1.39995H30.4652V14.5996ZM49.2381 8.99794C46.9438 8.60908 45.9966 7.13019 45.9966 5.28197C45.9966 1.86127 49.0064 0.937728 52.8632 0.937728C58.1503 0.937728 60.329 2.47159 60.4955 5.26357H55.0413C55.0413 4.7273 54.7585 4.39386 54.3269 4.2092C53.911 4.00636 53.3793 3.93254 52.8632 3.93254C51.4666 3.93254 50.9848 4.32027 50.9848 4.87539C50.9848 5.24449 51.1338 5.48571 51.5994 5.55931L57.2029 6.4833C59.5645 6.87148 61.0279 8.09167 61.0279 10.3281C61.0279 13.5459 58.6666 15.0618 53.3952 15.0618C49.7871 15.0618 45.846 14.5074 45.8297 10.6249H51.4832C51.4991 11.0681 51.6494 11.3638 51.9824 11.5673C52.3306 11.7524 52.8464 11.8451 53.5778 11.8451C55.0408 11.8451 55.4406 11.4011 55.4406 10.7723C55.4406 10.3842 55.2239 9.99622 54.5934 9.88583L49.2381 8.99794ZM62.557 1.39995H67.2458V14.5996H62.557V1.39995ZM84.6235 9.46017C84.3241 11.198 83.7913 12.6031 82.6272 13.5641C81.4806 14.5256 79.6842 15.0618 76.8247 15.0618C73.9814 15.0618 68.7102 14.8395 68.7102 8.00013C68.7102 1.15941 73.9814 0.9375 76.8247 0.9375C79.6508 0.9375 84.0077 1.34385 84.6235 6.57643H79.3357C79.2026 5.63267 78.6364 4.26484 76.8247 4.26484C74.9115 4.26484 73.6979 5.31854 73.6979 7.9999C73.6979 10.6806 74.8788 11.7336 76.5914 11.7336C78.0717 11.7336 78.953 11.0497 79.3355 9.45994H84.6235V9.46017ZM90.7587 8.00036C90.7587 5.31876 91.973 4.2653 93.8855 4.2653C95.7973 4.2653 97.0118 5.31899 97.0118 8.00036C97.0118 10.681 95.7973 11.734 93.8855 11.734C91.973 11.7338 90.7587 10.6808 90.7587 8.00036ZM85.7698 8.00036C85.7698 14.8395 91.041 15.0621 93.8853 15.0621C96.7288 15.0621 102 14.8397 102 8.00036C102 1.15964 96.7288 0.937728 93.8853 0.937728C91.041 0.937728 85.7698 1.15941 85.7698 8.00036Z" fill="#28458E"/>
</svg>
