<svg width="109" height="30" viewBox="0 0 109 30" fill="none" xmlns="http://www.w3.org/2000/svg">
<path fill-rule="evenodd" clip-rule="evenodd" d="M7.81885 11.1301H10.9376C12.1544 11.1301 12.6172 11.55 12.6172 12.5785C12.6172 13.5687 12.1542 13.9881 10.9376 13.9881H7.81885V11.1301ZM2.9873 21.5321H7.81909V17.3023H12.9945C16.421 17.3023 17.6547 15.2839 17.6547 12.6742C17.6547 9.64483 16.3861 7.93063 12.9596 7.93063H2.9873V21.5321ZM19.2481 7.93063H32.2523V11.2446H24.0799V13.0735H31.6707V16.3888H24.0799V18.2175H32.2523V21.5321H19.2481V7.93063ZM39.1065 11.1301H42.2251C43.4417 11.1301 43.9046 11.55 43.9046 12.5785C43.9046 13.5687 43.4417 13.9881 42.2251 13.9881H39.1065V11.1301ZM34.2748 21.5321H39.1065V17.3023H44.281C47.7084 17.3023 48.9424 15.2839 48.9424 12.6742C48.9424 9.64483 47.6738 7.93063 44.2466 7.93063H34.2748V21.5321ZM53.6192 15.7599C51.255 15.3592 50.279 13.8353 50.279 11.9308C50.279 8.406 53.3805 7.45434 57.3547 7.45434C62.8027 7.45434 65.0478 9.0349 65.2193 11.9119H59.599C59.599 11.3593 59.3076 11.0157 58.8629 10.8254C58.4344 10.6164 57.8865 10.5403 57.3547 10.5403C55.9155 10.5403 55.4191 10.9399 55.4191 11.5119C55.4191 11.8922 55.5726 12.1408 56.0524 12.2166L61.8265 13.1687C64.2599 13.5687 65.7679 14.8261 65.7679 17.1305C65.7679 20.4464 63.3347 22.0084 57.9028 22.0084C54.1849 22.0084 50.1239 21.4371 50.107 17.4364H55.9326C55.949 17.8931 56.1039 18.1978 56.447 18.4075C56.8058 18.5983 57.3374 18.6938 58.091 18.6938C59.5985 18.6938 60.0105 18.2362 60.0105 17.5883C60.0105 17.1884 59.7872 16.7886 59.1375 16.6748L53.6192 15.7599ZM67.3436 7.93063H72.1751V21.5321H67.3436V7.93063ZM90.0818 16.2362C89.7733 18.027 89.2242 19.4748 88.0247 20.4651C86.8432 21.4558 84.9921 22.0084 82.0456 22.0084C79.1157 22.0084 73.6841 21.7793 73.6841 14.7317C73.6841 7.68277 79.1157 7.4541 82.0456 7.4541C84.9577 7.4541 89.4473 7.87282 90.0818 13.2647H84.6331C84.4959 12.2922 83.9124 10.8827 82.0456 10.8827C80.0742 10.8827 78.8236 11.9685 78.8236 14.7315C78.8236 17.4938 80.0405 18.5789 81.8052 18.5789C83.3305 18.5789 84.2387 17.8741 84.6328 16.236L90.0818 16.2362ZM96.4038 14.732C96.4038 11.9687 97.655 10.8832 99.6258 10.8832C101.596 10.8832 102.847 11.969 102.847 14.732C102.847 17.4943 101.596 18.5793 99.6258 18.5793C97.655 18.5791 96.4038 17.494 96.4038 14.732ZM91.2631 14.732C91.2631 21.7793 96.6947 22.0087 99.6255 22.0087C102.556 22.0087 107.987 21.7795 107.987 14.732C107.987 7.68301 102.556 7.45434 99.6255 7.45434C96.6947 7.45434 91.2631 7.68277 91.2631 14.732Z" fill="#666666" fill-opacity="0.63"/>
</svg>
