<svg width="85" height="30" viewBox="0 0 85 30" fill="none" xmlns="http://www.w3.org/2000/svg">
<path d="M32.6837 14.7258C31.2322 13.5239 29.3562 12.7465 27.7011 12.0638C25.4178 11.1172 23.4442 10.3054 23.4442 8.7937C23.4442 8.13395 23.754 7.5287 24.3162 7.08982C24.9072 6.63086 25.7333 6.37269 26.6397 6.37269C29.4968 6.37269 31.7743 8.39498 31.7944 8.40932L32.3509 8.91992L34.8809 4.17543L34.5912 3.8685C34.4793 3.75376 31.8174 1 26.6742 1C24.2101 1 21.9411 1.78884 20.2889 3.22022C19.4692 3.91441 18.8112 4.77933 18.3608 5.75444C17.9104 6.72956 17.6785 7.79131 17.6814 8.86542C17.6814 10.9967 18.5104 12.7207 20.2086 14.1348C21.6371 15.3224 23.4184 16.0883 25.1424 16.8312C27.4888 17.8438 29.5197 18.7187 29.5197 20.2734C29.5197 21.461 28.7165 22.7289 26.4648 22.7289C23.2348 22.7289 20.6417 20.2706 20.6188 20.2447L20.1311 19.7743L16.9872 24.1344L17.3028 24.4844C17.3372 24.5188 18.149 25.4166 19.6779 26.3116C21.718 27.4934 24.0354 28.1121 26.393 28.1044C29.0292 28.1044 31.2752 27.2955 32.8902 25.7666C34.4105 24.3295 35.2452 22.3416 35.2452 20.173C35.2452 17.9356 34.4076 16.1571 32.6837 14.7258ZM59.2689 27.7114H65.1636V1.39298H59.2717L59.2689 27.7114ZM47.7519 22.7834H43.2627V6.31819H47.2183C48.9911 6.31819 50.0065 7.31069 50.0065 9.04039C50.0065 10.7873 49.0943 11.6708 47.2872 11.6708H45.9246V16.5186H47.749C48.7444 16.5186 49.5762 16.8284 50.1499 17.4193C50.4339 17.6912 50.6564 18.0209 50.8024 18.3861C50.9483 18.7512 51.0144 19.1434 50.9961 19.5362C50.9961 21.5442 49.7541 22.7862 47.749 22.7862M55.5742 15.8875C55.0008 14.9801 54.1945 14.2431 53.2393 13.7533C54.7739 12.5227 55.6431 10.6353 55.6431 8.4753C55.6431 6.29524 54.8112 4.47662 53.2393 3.21161C51.7592 2.02118 49.7024 1.39298 47.2872 1.39298H37.6978V27.7114H47.3933C49.9663 27.7114 52.1923 27.0632 53.8302 25.8326C55.6861 24.4356 56.67 22.356 56.67 19.8173C56.67 18.3716 56.2914 17.0119 55.5742 15.8875Z" fill="#666666" fill-opacity="0.63"/>
</svg>
