<svg width="46" height="27" viewBox="0 0 46 27" fill="none" xmlns="http://www.w3.org/2000/svg">
<path d="M14.9539 13.4505C13.5711 12.3055 11.7839 11.5649 10.207 10.9145C8.03173 10.0126 6.15156 9.23926 6.15156 7.79907C6.15156 7.17053 6.4467 6.5939 6.98233 6.17578C7.54529 5.73853 8.33234 5.49258 9.19591 5.49258C11.9178 5.49258 14.0876 7.41921 14.1068 7.43287L14.6369 7.91931L17.0473 3.39925L16.7713 3.10683C16.6647 2.99752 14.1286 0.374023 9.2287 0.374023C6.88122 0.374023 4.71956 1.12555 3.14546 2.48922C2.3646 3.15058 1.73769 3.97458 1.3086 4.90357C0.879508 5.83256 0.658602 6.8441 0.661339 7.86739C0.661339 9.89787 1.45112 11.5403 3.06894 12.8876C4.42988 14.0189 6.12696 14.7486 7.76938 15.4564C10.0048 16.4211 11.9396 17.2546 11.9396 18.7358C11.9396 19.8672 11.1745 21.0751 9.02921 21.0751C5.95206 21.0751 3.4816 18.733 3.45974 18.7085L2.99516 18.2603L0 22.4141L0.300608 22.7475C0.333402 22.7803 1.10679 23.6357 2.56338 24.4883C4.50696 25.6143 6.71474 26.2037 8.96089 26.1964C11.4723 26.1964 13.6121 25.4257 15.1507 23.9691C16.5991 22.6 17.3943 20.7061 17.3943 18.6401C17.3943 16.5085 16.5964 14.8142 14.9539 13.4505ZM40.2816 25.822H45.8976V0.748419H40.2844L40.2816 25.822ZM29.3094 21.127H25.0325V5.44066H28.8011C30.49 5.44066 31.4574 6.38621 31.4574 8.03409C31.4574 9.69838 30.5884 10.5401 28.8667 10.5401H27.5686V15.1585H29.3067C30.2549 15.1585 31.0475 15.4537 31.594 16.0166C31.8646 16.2758 32.0766 16.5898 32.2156 16.9377C32.3547 17.2856 32.4176 17.6592 32.4002 18.0335C32.4002 19.9464 31.2169 21.1297 29.3067 21.1297M36.7618 14.5573C36.2155 13.6928 35.4473 12.9907 34.5373 12.5241C35.9993 11.3517 36.8274 9.55354 36.8274 7.49573C36.8274 5.41879 36.0348 3.68619 34.5373 2.48102C33.1271 1.3469 31.1677 0.748419 28.8667 0.748419H19.7309V25.822H28.9678C31.4191 25.822 33.5398 25.2043 35.1002 24.032C36.8684 22.7011 37.8057 20.7198 37.8057 18.3013C37.8057 16.9239 37.445 15.6286 36.7618 14.5573Z" fill="#292075"/>
</svg>
