<svg width="108" height="12" viewBox="0 0 108 12" fill="none" xmlns="http://www.w3.org/2000/svg">
<path d="M66.0442 0.421113C67.3349 0.310932 68.7043 0.641473 69.6959 1.50718C70.9236 2.5775 71.4903 4.27743 71.443 5.88292C71.4745 7.25231 71.144 8.66892 70.3098 9.77073C69.57 10.7781 68.358 11.392 67.1303 11.5336C65.7609 11.7225 64.2498 11.392 63.211 10.4318C61.999 9.36149 61.4638 7.6773 61.4953 6.10329C61.4638 4.52928 61.9675 2.87657 63.1165 1.75902C63.9035 0.972016 64.9424 0.515553 66.0442 0.421113ZM65.9812 2.38862C65.3989 2.53029 64.8952 2.90805 64.5961 3.42747C64.1239 4.183 63.9665 5.11166 63.935 5.9931C63.9508 6.90603 64.1082 7.85044 64.6276 8.6217C65.0211 9.21983 65.6979 9.66055 66.4377 9.64481C67.1932 9.67629 67.8858 9.29852 68.295 8.65318C68.9404 7.66155 69.0506 6.41809 68.9404 5.26906C68.8459 4.38761 68.5311 3.45895 67.8543 2.84509C67.3349 2.40436 66.6423 2.23122 65.9812 2.38862Z" fill="#666666" fill-opacity="0.63"/>
<path d="M84.649 0.421027C85.9397 0.310847 87.309 0.625648 88.3007 1.50709C89.5441 2.57742 90.1108 4.27735 90.0636 5.89858C90.095 7.26797 89.7645 8.68458 88.9303 9.78638C88.1905 10.7937 86.9785 11.4076 85.7508 11.5493C84.3814 11.7382 82.8703 11.4076 81.8315 10.4475C80.6195 9.37714 80.0843 7.69295 80.1158 6.11894C80.0843 4.54493 80.588 2.89222 81.7371 1.77468C82.5083 0.987672 83.5472 0.515468 84.649 0.421027ZM84.586 2.38854C84.0036 2.54594 83.4999 2.90796 83.2009 3.42739C82.7287 4.18291 82.5713 5.09583 82.5555 5.97728C82.5713 6.8902 82.7287 7.83461 83.2481 8.60588C83.6416 9.204 84.3184 9.64472 85.0425 9.62898C85.8137 9.66046 86.5535 9.25122 86.9313 8.57439C87.5609 7.56703 87.6396 6.30782 87.5294 5.14306C87.4192 4.26161 87.0887 3.36442 86.3961 2.78204C85.8924 2.38854 85.2156 2.24688 84.586 2.38854Z" fill="#666666" fill-opacity="0.63"/>
<path d="M103.238 0.515458C104.513 0.279357 105.819 0.421015 107.016 0.940438C106.842 1.58578 106.654 2.24686 106.496 2.89221C105.678 2.51445 104.749 2.29409 103.852 2.42001C103.38 2.49871 102.86 2.81351 102.829 3.33293C102.782 3.69496 102.955 4.04124 103.254 4.24586C104.072 4.8125 105.08 5.00138 105.914 5.55229C106.48 5.89857 106.937 6.40225 107.205 7.01612C107.645 8.18088 107.425 9.61323 106.512 10.4789C105.756 11.2187 104.67 11.502 103.647 11.565C102.498 11.628 101.349 11.4076 100.31 10.9197C100.468 10.2428 100.625 9.58175 100.783 8.90493C101.601 9.34565 102.514 9.58175 103.443 9.59749C103.931 9.56601 104.466 9.47157 104.796 9.09381C105.143 8.66883 105.111 8.05496 104.733 7.66146C104.119 7.06334 103.222 6.93741 102.498 6.54391C101.648 6.11893 100.846 5.45785 100.562 4.52918C100.279 3.60052 100.452 2.60889 101.019 1.82188C101.57 1.12932 102.357 0.657119 103.238 0.515458Z" fill="#666666" fill-opacity="0.63"/>
<path d="M0.423737 0.484131C3.96526 0.484131 7.50678 0.484131 11.064 0.484131C11.064 1.55446 11.064 2.62478 11.064 3.69511C10.0409 3.69511 9.03357 3.69511 8.01046 3.69511C8.01046 6.27648 8.01046 8.8736 8.01046 11.455H3.5875C3.60324 9.45599 3.57176 7.45699 3.60324 5.47374C3.54028 4.87562 3.6662 4.27749 3.57176 3.67937C2.51717 3.71085 1.46258 3.67937 0.423737 3.69511C0.423737 2.64052 0.423737 1.55446 0.423737 0.484131Z" fill="#666666" fill-opacity="0.63"/>
<path d="M14.1176 0.515528C15.5972 0.452567 17.0768 0.499786 18.5563 0.484046C18.6665 0.452565 18.7767 0.531266 18.8082 0.641447C20.2248 4.24593 21.6099 7.86615 23.0423 11.4706C21.6099 11.4549 20.1776 11.4549 18.7452 11.4706C17.974 9.2985 17.2499 7.11062 16.4629 4.95423C15.6916 7.11062 14.9676 9.28276 14.2278 11.4549C12.8112 11.4706 11.3789 11.4549 9.96225 11.4706C11.3474 7.81893 12.7482 4.18297 14.1176 0.515528Z" fill="#666666" fill-opacity="0.63"/>
<path d="M22.0192 0.484159H31.054C31.5891 0.484159 32.1086 0.46842 32.6437 0.4999C32.628 1.57023 32.6437 2.62481 32.6437 3.69514C31.6206 3.69514 30.6133 3.69514 29.5901 3.69514C29.5901 6.29225 29.5901 8.87363 29.5901 11.4707C28.1106 11.4707 26.6468 11.4707 25.1672 11.4707C25.1829 8.87363 25.1672 6.29225 25.1672 3.69514C24.1126 3.69514 23.058 3.69514 22.0192 3.69514C22.0192 2.64055 22.0192 1.57023 22.0192 0.484159Z" fill="#666666" fill-opacity="0.63"/>
<path d="M35.6973 0.531288C36.4213 0.436848 37.1454 0.531291 37.8537 0.499811C38.6879 0.515551 39.5221 0.452588 40.3564 0.531288C41.7572 4.18299 43.1738 7.83469 44.6219 11.4707C43.1896 11.4707 41.7415 11.4707 40.3091 11.4707C39.6166 9.42444 38.8925 7.39397 38.2 5.34776C38.1527 5.23758 38.1213 5.08018 37.9796 5.0487C37.287 7.18935 36.5158 9.31426 35.8075 11.4549C34.3909 11.4707 32.9585 11.4549 31.5419 11.4707C32.9428 7.83469 34.3279 4.18299 35.6973 0.531288Z" fill="#666666" fill-opacity="0.63"/>
<path d="M91.6691 0.735942C92.8023 0.562801 93.9671 0.484101 95.1161 0.515581C96.1392 0.547062 97.2411 0.672979 98.0753 1.31832C99.3502 2.27847 99.4761 4.3719 98.3743 5.50519C98.0753 5.83573 97.6818 6.10331 97.2725 6.26072C97.8234 6.54404 98.2484 7.03198 98.453 7.6301C98.8938 8.85783 99.0512 10.1643 99.5076 11.392C98.6891 11.3605 97.8864 11.4077 97.0679 11.3762C96.7846 10.5105 96.5485 9.62909 96.3596 8.73191C96.2337 8.24396 96.092 7.69306 95.667 7.37826C95.1791 7.03198 94.5495 7.12642 93.9829 7.11068C93.9829 8.52729 93.9829 9.95964 93.9829 11.3762C93.2116 11.3762 92.4246 11.3762 91.6533 11.3762C91.6533 7.83472 91.6533 4.27746 91.6691 0.735942ZM93.9671 2.38865C93.9829 3.38028 93.9514 4.35616 93.9829 5.34779C94.6912 5.31631 95.4467 5.44223 96.0763 5.04873C96.942 4.56078 97.0049 3.12843 96.155 2.59327C95.5096 2.21551 94.6912 2.34143 93.9671 2.38865Z" fill="#666666" fill-opacity="0.63"/>
<path d="M49.3597 0.609975C50.4143 0.625715 51.4531 0.609975 52.5077 0.609975C53.1845 3.08117 53.9558 5.53663 54.3965 8.05504C54.4909 7.92912 54.5382 7.78746 54.5539 7.63006C55.0733 5.2533 55.8288 2.92377 56.5371 0.594238C57.5603 0.594238 58.5991 0.594238 59.6222 0.594238C59.7796 4.18298 60 7.77172 60.1574 11.3605H57.8908C57.8278 9.12537 57.6862 6.89027 57.6547 4.65518C57.6704 4.04132 57.639 3.42746 57.6232 2.79785C56.8834 5.61533 55.9862 8.40132 55.1678 11.2031H53.3262C52.7123 8.79483 51.9883 6.40233 51.5003 3.96262C51.4374 3.56911 51.3429 3.17561 51.2485 2.79785C51.1855 5.66255 51.0124 8.51151 50.8865 11.3762C50.1624 11.3762 49.4384 11.3762 48.6986 11.3762C48.9347 7.78746 49.1708 4.19872 49.3597 0.609975Z" fill="#666666" fill-opacity="0.63"/>
<path d="M71.7578 0.610107H79.7066C79.7066 1.28693 79.6909 1.96376 79.7066 2.64058C78.7622 2.65632 77.8335 2.64058 76.8891 2.65632C76.8891 5.56824 76.8891 8.48016 76.8891 11.3763C76.1021 11.3763 75.3151 11.3763 74.5438 11.3763C74.5438 8.46442 74.5438 5.56824 74.5438 2.65632C73.6152 2.65632 72.6865 2.65632 71.7578 2.65632C71.7578 1.9795 71.7736 1.28693 71.7578 0.610107Z" fill="#666666" fill-opacity="0.63"/>
</svg>
