<svg width="107" height="12" viewBox="0 0 107 12" fill="none" xmlns="http://www.w3.org/2000/svg">
<path d="M65.9482 0.465628C67.2287 0.35632 68.5872 0.684243 69.571 1.54309C70.789 2.60494 71.3511 4.29141 71.3043 5.88418C71.3355 7.24272 71.0076 8.64811 70.18 9.74119C69.446 10.7406 68.2437 11.3496 67.0257 11.4901C65.6671 11.6775 64.168 11.3496 63.1374 10.397C61.935 9.33519 61.4041 7.66434 61.4353 6.1028C61.4041 4.54126 61.9038 2.90163 63.0437 1.79294C63.8245 1.01217 64.8551 0.559321 65.9482 0.465628ZM65.8857 2.41756C65.308 2.5581 64.8083 2.93287 64.5116 3.44818C64.0431 4.19772 63.887 5.11902 63.8557 5.99349C63.8713 6.89918 64.0275 7.83611 64.5428 8.60127C64.9332 9.19465 65.6047 9.63189 66.3386 9.61627C67.0881 9.6475 67.7752 9.27273 68.1812 8.63249C68.8214 7.64872 68.9307 6.4151 68.8214 5.27518C68.7277 4.40071 68.4154 3.4794 67.744 2.8704C67.2287 2.43317 66.5416 2.2614 65.8857 2.41756Z" fill="#1467B3"/>
<path d="M84.4056 0.465294C85.6861 0.355986 87.0446 0.668293 88.0284 1.54276C89.262 2.60461 89.8241 4.29107 89.7773 5.89946C89.8085 7.258 89.4806 8.66339 88.653 9.75647C87.9191 10.7559 86.7167 11.3649 85.4987 11.5054C84.1401 11.6928 82.6411 11.3649 81.6104 10.4123C80.408 9.35047 79.8771 7.67962 79.9084 6.11808C79.8771 4.55653 80.3768 2.91692 81.5167 1.80822C82.2819 1.02745 83.3125 0.558986 84.4056 0.465294ZM84.3431 2.41722C83.7654 2.57338 83.2657 2.93253 82.969 3.44784C82.5005 4.19738 82.3444 5.10307 82.3287 5.97754C82.3444 6.88323 82.5005 7.82016 83.0158 8.58532C83.4062 9.1787 84.0777 9.61593 84.796 9.60032C85.5611 9.63155 86.2951 9.22555 86.6698 8.55408C87.2945 7.5547 87.3725 6.30546 87.2632 5.14992C87.1539 4.27546 86.826 3.38538 86.1389 2.80761C85.6392 2.41722 84.9678 2.27668 84.3431 2.41722Z" fill="#1467B3"/>
<path d="M102.847 0.559992C104.112 0.325761 105.408 0.466297 106.595 0.981606C106.423 1.62184 106.236 2.27768 106.08 2.91792C105.268 2.54315 104.347 2.32453 103.456 2.44945C102.988 2.52753 102.473 2.83984 102.441 3.35515C102.395 3.71431 102.566 4.05784 102.863 4.26084C103.675 4.823 104.674 5.01039 105.502 5.55693C106.064 5.90047 106.517 6.40016 106.783 7.00916C107.22 8.1647 107.001 9.58571 106.095 10.4446C105.346 11.1785 104.268 11.4596 103.253 11.522C102.114 11.5845 100.974 11.3659 99.943 10.8818C100.099 10.2103 100.255 9.55448 100.411 8.88301C101.223 9.32024 102.129 9.55447 103.05 9.57009C103.535 9.53886 104.065 9.44517 104.393 9.0704C104.737 8.64878 104.706 8.03978 104.331 7.64939C103.722 7.05601 102.832 6.93108 102.114 6.5407C101.27 6.11908 100.474 5.46324 100.193 4.54193C99.9118 3.62062 100.084 2.63684 100.646 1.85607C101.192 1.16899 101.973 0.700531 102.847 0.559992Z" fill="#1467B3"/>
<path d="M0.847473 0.527344C4.36094 0.527344 7.87442 0.527344 11.4035 0.527344C11.4035 1.58919 11.4035 2.65104 11.4035 3.71289C10.3885 3.71289 9.38911 3.71289 8.37411 3.71289C8.37411 6.27382 8.37411 8.85037 8.37411 11.4113H3.98617C4.00179 9.42814 3.97056 7.44498 4.00179 5.47744C3.93933 4.88405 4.06425 4.29066 3.97056 3.69727C2.92432 3.7285 1.87809 3.69727 0.847473 3.71289C0.847473 2.66666 0.847473 1.58919 0.847473 0.527344Z" fill="#1467B3"/>
<path d="M14.4329 0.559657C15.9007 0.497195 17.3686 0.544039 18.8364 0.528424C18.9458 0.497193 19.0551 0.57527 19.0863 0.684578C20.4917 4.26051 21.8658 7.85206 23.2868 11.428C21.8658 11.4124 20.4448 11.4124 19.0238 11.428C18.2587 9.27306 17.5404 7.10252 16.7596 4.9632C15.9944 7.10252 15.2761 9.25745 14.5422 11.4124C13.1368 11.428 11.7158 11.4124 10.3104 11.428C11.6846 7.80521 13.0744 4.19805 14.4329 0.559657Z" fill="#1467B3"/>
<path d="M22.2719 0.527341H31.2351C31.766 0.527341 32.2813 0.511726 32.8123 0.542957C32.7966 1.60481 32.8123 2.65104 32.8123 3.71289C31.7973 3.71289 30.7979 3.71289 29.7829 3.71289C29.7829 6.28943 29.7829 8.85036 29.7829 11.4269C28.315 11.4269 26.8628 11.4269 25.3949 11.4269C25.4106 8.85036 25.3949 6.28943 25.3949 3.71289C24.3487 3.71289 23.3025 3.71289 22.2719 3.71289C22.2719 2.66665 22.2719 1.60481 22.2719 0.527341Z" fill="#1467B3"/>
<path d="M35.8416 0.575135C36.5599 0.481442 37.2782 0.575138 37.9809 0.543907C38.8086 0.559522 39.6362 0.497058 40.4638 0.575135C41.8536 4.19791 43.2589 7.82069 44.6956 11.4279C43.2746 11.4279 41.8379 11.4279 40.4169 11.4279C39.7299 9.39785 39.0116 7.38346 38.3245 5.35346C38.2776 5.24415 38.2464 5.088 38.1059 5.05676C37.4188 7.18046 36.6536 9.28855 35.9509 11.4122C34.5455 11.4279 33.1245 11.4122 31.7191 11.4279C33.1089 7.82069 34.4831 4.19791 35.8416 0.575135Z" fill="#1467B3"/>
<path d="M91.3701 0.778088C92.4944 0.606318 93.65 0.528242 94.7899 0.559473C95.8049 0.590704 96.898 0.715623 97.7256 1.35586C98.9904 2.3084 99.1154 4.38525 98.0223 5.50956C97.7256 5.83748 97.3352 6.10295 96.9292 6.2591C97.4757 6.54018 97.8974 7.02426 98.1004 7.61764C98.5376 8.83565 98.6937 10.1317 99.1466 11.3497C98.3346 11.3185 97.5382 11.3653 96.7262 11.3341C96.4451 10.4753 96.2109 9.6008 96.0235 8.71072C95.8986 8.22664 95.758 7.6801 95.3364 7.36779C94.8523 7.02426 94.2277 7.11795 93.6656 7.10234C93.6656 8.50772 93.6656 9.92873 93.6656 11.3341C92.9004 11.3341 92.1196 11.3341 91.3545 11.3341C91.3545 7.82065 91.3545 4.29156 91.3701 0.778088ZM93.65 2.41771C93.6656 3.40148 93.6343 4.36963 93.6656 5.35341C94.3683 5.32218 95.1178 5.4471 95.7424 5.05671C96.6013 4.57264 96.6637 3.15163 95.8205 2.62071C95.1803 2.24594 94.3683 2.37086 93.65 2.41771Z" fill="#1467B3"/>
<path d="M49.3958 0.65233C50.4421 0.667946 51.4727 0.65233 52.5189 0.65233C53.1904 3.10395 53.9555 5.53996 54.3928 8.03843C54.4865 7.91351 54.5333 7.77297 54.5489 7.61681C55.0642 5.25888 55.8138 2.9478 56.5165 0.636719C57.5315 0.636719 58.5621 0.636719 59.5771 0.636719C59.7333 4.19704 59.9519 7.75735 60.108 11.3177H57.8594C57.7969 9.10028 57.6564 6.88289 57.6252 4.6655C57.6408 4.0565 57.6096 3.4475 57.5939 2.82288C56.86 5.61804 55.9699 8.38197 55.1579 11.1615H53.3309C52.7219 8.77236 52.0036 6.39881 51.5195 3.97842C51.4571 3.58803 51.3634 3.19765 51.2697 2.82288C51.2072 5.66489 51.0355 8.49128 50.9105 11.3333C50.1922 11.3333 49.4739 11.3333 48.74 11.3333C48.9742 7.77297 49.2085 4.21265 49.3958 0.65233Z" fill="#1467B3"/>
<path d="M71.6166 0.65332H79.5024C79.5024 1.32478 79.4868 1.99625 79.5024 2.66771C78.5654 2.68333 77.6441 2.66771 76.7072 2.68333C76.7072 5.57218 76.7072 8.46104 76.7072 11.3343C75.9264 11.3343 75.1457 11.3343 74.3805 11.3343C74.3805 8.44542 74.3805 5.57218 74.3805 2.68333C73.4592 2.68333 72.5379 2.68333 71.6166 2.68333C71.6166 2.01186 71.6322 1.32478 71.6166 0.65332Z" fill="#1467B3"/>
</svg>
