<svg width="96" height="18" viewBox="0 0 96 18" fill="none" xmlns="http://www.w3.org/2000/svg">
<path fill-rule="evenodd" clip-rule="evenodd" d="M6.75501 11.9164L9.16652 6.71797H13.1993L7.90094 16.8577H5.60842L0.291016 6.71797H4.32312L6.75501 11.9164ZM31.8188 9.50488C33.2816 9.50488 34.1317 10.5522 34.1317 11.798C34.1317 13.082 33.2822 14.0708 31.8188 14.0708C30.356 14.0708 29.5059 13.082 29.5059 11.798C29.5059 10.5528 30.356 9.50488 31.8188 9.50488ZM34.0127 16.8577H37.6102V0.451869H34.0127V7.70612C33.2619 6.81659 32.0364 6.38202 30.8701 6.38202C27.8656 6.38202 25.79 8.87242 25.79 11.7783C25.79 14.6842 27.905 17.1944 30.9095 17.1944C32.0956 17.1944 33.3408 16.7401 33.9739 15.7315H34.0133L34.0127 16.8577ZM44.7665 9.50488C46.2293 9.50488 47.0794 10.5522 47.0794 11.798C47.0794 13.082 46.2293 14.0708 44.7665 14.0708C43.3037 14.0708 42.4536 13.082 42.4536 11.798C42.4536 10.5528 43.3037 9.50488 44.7665 9.50488ZM50.5573 6.71797H46.9591V7.70612C46.2076 6.81659 44.9828 6.38202 43.8171 6.38202C40.8126 6.38202 38.7357 8.87242 38.7357 11.7783C38.7357 14.6842 40.8521 17.1944 43.8566 17.1944C45.042 17.1944 46.2872 16.7401 46.9203 15.7315H46.9591V16.8577H50.5573V6.71797ZM56.5078 16.8577H52.9096V9.68239H51.6447V6.71732H52.9096V5.43333C52.9096 4.02969 52.9497 3.0021 53.9365 1.87524C54.8267 0.827928 56.112 0.254639 57.4755 0.254639C58.0291 0.254639 58.5235 0.353256 59.0179 0.610316V3.71345C58.6017 3.53528 58.227 3.3775 57.7517 3.3775C56.8234 3.3775 56.5071 3.93107 56.5071 5.07765V6.71797H59.0173V9.68305H56.5071L56.5078 16.8577ZM76.1154 8.02234H76.1555C76.9852 6.79687 77.9944 6.38202 79.398 6.38202C82.1251 6.38202 83.2132 8.10124 83.2132 10.5923V16.8577H79.615V11.9164C79.615 10.948 79.7728 9.24782 77.9944 9.24782C76.5316 9.24782 76.1161 10.3352 76.1161 11.6002V16.8577H72.5179V6.71797H76.1161L76.1154 8.02234ZM88.0947 10.3149C88.3117 9.26754 89.1821 8.71398 90.2301 8.71398C91.1985 8.71398 92.0867 9.34644 92.2655 10.3149H88.0947ZM95.6067 12.0157C95.6067 8.55619 93.5699 6.38202 90.0519 6.38202C86.7509 6.38202 84.438 8.41813 84.438 11.7987C84.438 15.2963 86.9481 17.1944 90.309 17.1944C92.6219 17.1944 94.8947 16.1083 95.4686 13.7158H92.0091C91.6133 14.3871 91.0604 14.6441 90.2899 14.6441C88.8067 14.6441 88.0362 13.8545 88.0362 12.3904H95.6073L95.6067 12.0157ZM24.456 12.0452C24.456 12.7939 24.3084 13.5352 24.0219 14.2268C23.7353 14.9184 23.3153 15.5468 22.7859 16.0761C22.2565 16.6054 21.628 17.0252 20.9363 17.3116C20.2446 17.598 19.5033 17.7454 18.7547 17.7453C18.0061 17.7452 17.2648 17.5977 16.5732 17.3111C15.8816 17.0245 15.2532 16.6046 14.7239 16.0751C14.1946 15.5457 13.7747 14.9172 13.4883 14.2255C13.2019 13.5339 13.0546 12.7926 13.0546 12.0439C13.0548 10.532 13.6556 9.08208 14.7248 8.01312C15.794 6.94415 17.2441 6.34371 18.756 6.34389C20.2679 6.34406 21.7178 6.94484 22.7868 8.01405C23.8558 9.08326 24.4562 10.5333 24.456 12.0452ZM15.5733 12.0209C15.5734 12.65 15.76 13.2649 16.1095 13.788C16.459 14.311 16.9556 14.7188 17.5367 14.9597C18.1178 15.2006 18.7573 15.2639 19.3744 15.1415C19.9914 15.0191 20.5583 14.7166 21.0035 14.2722C21.4487 13.8277 21.7522 13.2613 21.8756 12.6444C21.999 12.0276 21.9367 11.388 21.6968 10.8065C21.4568 10.225 21.0499 9.72766 20.5274 9.37733C20.0049 9.027 19.3903 8.83941 18.7613 8.83823C19.2484 7.23144 20.3957 6.5786 20.3957 6.5786C18.0216 6.5786 15.9717 8.55027 15.5727 11.0446C15.5372 11.2787 15.5733 12.0209 15.5733 12.0209ZM59.8903 11.6061C59.8903 8.45757 62.4419 5.90603 65.5904 5.90603C66.7178 5.90603 67.8198 6.24033 68.7572 6.86666C69.6945 7.49299 70.4251 8.38322 70.8565 9.42476C71.288 10.4663 71.4008 11.6124 71.1809 12.7181C70.961 13.8238 70.4181 14.8394 69.6209 15.6366C68.8238 16.4338 67.8081 16.9767 66.7024 17.1966C65.5967 17.4165 64.4506 17.3037 63.4091 16.8722C62.3675 16.4408 61.4773 15.7102 60.851 14.7729C60.2246 13.8355 59.8903 12.7334 59.8903 11.6061ZM68.7731 11.6304C68.7729 11.0012 68.5863 10.3862 68.2368 9.86299C67.8872 9.33981 67.3905 8.93198 66.8092 8.69102C66.228 8.45006 65.5884 8.38678 64.9712 8.50918C64.3541 8.63158 63.787 8.93416 63.3417 9.3787C62.8965 9.82325 62.5929 10.3898 62.4695 11.0068C62.3461 11.6237 62.4083 12.2635 62.6483 12.8451C62.8883 13.4267 63.2953 13.9241 63.8179 14.2745C64.3405 14.6249 64.9553 14.8126 65.5845 14.8137C65.0966 16.4199 63.9487 17.0727 63.9487 17.0727C66.3241 17.0727 68.3727 15.1017 68.7731 12.6067C68.8092 12.3727 68.7731 11.6304 68.7731 11.6304Z" fill="#636363"/>
</svg>
