<svg width="97" height="18" viewBox="0 0 97 18" fill="none" xmlns="http://www.w3.org/2000/svg">
<path fill-rule="evenodd" clip-rule="evenodd" d="M7.4156 11.9405L9.84697 6.6992H13.913L8.57097 16.9225H6.25957L0.898346 6.6992H4.96368L7.4156 11.9405ZM32.6859 9.50908C34.1607 9.50908 35.0178 10.565 35.0178 11.8211C35.0178 13.1157 34.1614 14.1127 32.6859 14.1127C31.211 14.1127 30.3539 13.1157 30.3539 11.8211C30.3539 10.5657 31.211 9.50908 32.6859 9.50908ZM34.8978 16.9225H38.525V0.381473H34.8978V7.69549C34.1408 6.79864 32.9053 6.36049 31.7294 6.36049C28.7001 6.36049 26.6074 8.87141 26.6074 11.8013C26.6074 14.7311 28.7398 17.2619 31.7691 17.2619C32.9649 17.2619 34.2204 16.8039 34.8587 15.787H34.8985L34.8978 16.9225ZM45.7403 9.50908C47.2151 9.50908 48.0722 10.565 48.0722 11.8211C48.0722 13.1157 47.2151 14.1127 45.7403 14.1127C44.2654 14.1127 43.4083 13.1157 43.4083 11.8211C43.4083 10.5657 44.2654 9.50908 45.7403 9.50908ZM51.5787 6.6992H47.9509V7.69549C47.1932 6.79864 45.9583 6.36049 44.7831 6.36049C41.7538 6.36049 39.6598 8.87141 39.6598 11.8013C39.6598 14.7311 41.7936 17.2619 44.8229 17.2619C46.018 17.2619 47.2735 16.8039 47.9118 15.787H47.9509V16.9225H51.5787V6.6992ZM57.5783 16.9225H53.9505V9.68805H52.6751V6.69854H53.9505V5.40398C53.9505 3.98877 53.9909 2.95271 54.9859 1.81657C55.8834 0.76063 57.1793 0.182617 58.554 0.182617C59.1122 0.182617 59.6106 0.282047 60.1091 0.541225V3.66993C59.6895 3.49029 59.3117 3.33121 58.8324 3.33121C57.8965 3.33121 57.5776 3.88934 57.5776 5.04537V6.6992H60.1084V9.68871H57.5776L57.5783 16.9225ZM77.3475 8.01432H77.3879C78.2244 6.77875 79.2419 6.36049 80.6571 6.36049C83.4067 6.36049 84.5037 8.09387 84.5037 10.6055V16.9225H80.8759V11.9405C80.8759 10.9641 81.035 9.2499 79.2419 9.2499C77.7671 9.2499 77.3481 10.3463 77.3481 11.6216V16.9225H73.7203V6.6992H77.3481L77.3475 8.01432ZM89.4255 10.3257C89.6442 9.26978 90.5219 8.71165 91.5785 8.71165C92.5548 8.71165 93.4504 9.34933 93.6307 10.3257H89.4255ZM96.9993 12.0405C96.9993 8.55257 94.9458 6.36049 91.3988 6.36049C88.0706 6.36049 85.7386 8.41337 85.7386 11.8218C85.7386 15.3482 88.2694 17.2619 91.658 17.2619C93.9899 17.2619 96.2814 16.1669 96.8601 13.7547H93.3722C92.9731 14.4315 92.4156 14.6907 91.6388 14.6907C90.1433 14.6907 89.3665 13.8946 89.3665 12.4184H97L96.9993 12.0405ZM25.2625 12.0704C25.2624 12.8252 25.1136 13.5726 24.8247 14.2699C24.5358 14.9672 24.1123 15.6007 23.5786 16.1344C23.0448 16.6681 22.4111 17.0914 21.7137 17.3801C21.0164 17.6689 20.2689 17.8175 19.5141 17.8174C18.7593 17.8173 18.012 17.6685 17.3147 17.3796C16.6174 17.0907 15.9838 16.6672 15.4501 16.1335C14.9165 15.5997 14.4932 14.966 14.2044 14.2686C13.9156 13.5713 13.7671 12.8238 13.7671 12.069C13.7673 10.5447 14.373 9.0828 15.4511 8.00502C16.5291 6.92725 17.9911 6.32186 19.5155 6.32204C21.0399 6.32221 22.5017 6.92794 23.5795 8.00596C24.6573 9.08398 25.2627 10.546 25.2625 12.0704ZM16.3066 12.0458C16.3067 12.6801 16.4948 13.3001 16.8472 13.8275C17.1995 14.3548 17.7003 14.7659 18.2861 15.0088C18.872 15.2517 19.5168 15.3155 20.1389 15.1921C20.7611 15.0688 21.3327 14.7637 21.7815 14.3156C22.2304 13.8675 22.5363 13.2964 22.6607 12.6745C22.7851 12.0526 22.7224 11.4077 22.4805 10.8214C22.2386 10.2351 21.8283 9.73369 21.3015 9.38047C20.7747 9.02726 20.155 8.83812 19.5208 8.83694C20.012 7.2169 21.1686 6.55868 21.1686 6.55868C18.7751 6.55868 16.7083 8.5466 16.3059 11.0615C16.2701 11.2975 16.3066 12.0458 16.3066 12.0458ZM60.9887 11.6276C60.9887 8.45314 63.5613 5.88057 66.7357 5.88057C67.8724 5.88057 68.9835 6.21763 69.9286 6.84912C70.8737 7.48061 71.6103 8.37817 72.0453 9.4283C72.4802 10.4784 72.5941 11.634 72.3723 12.7488C72.1506 13.8636 71.6032 14.8876 70.7995 15.6913C69.9957 16.4951 68.9717 17.0424 67.8569 17.2642C66.7421 17.4859 65.5866 17.3721 64.5364 16.9371C63.4863 16.5021 62.5888 15.7655 61.9573 14.8204C61.3258 13.8754 60.9887 12.7642 60.9887 11.6276ZM69.9446 11.6521C69.9445 11.0177 69.7563 10.3976 69.4039 9.87013C69.0515 9.34265 68.5507 8.93145 67.9646 8.68851C67.3786 8.44556 66.7337 8.38176 66.1115 8.50517C65.4892 8.62858 64.9175 8.93365 64.4685 9.38186C64.0196 9.83006 63.7136 10.4013 63.5891 11.0233C63.4647 11.6454 63.5275 12.2904 63.7694 12.8768C64.0114 13.4632 64.4218 13.9647 64.9487 14.318C65.4756 14.6713 66.0954 14.8605 66.7298 14.8617C66.2379 16.4811 65.0806 17.1393 65.0806 17.1393C67.4755 17.1393 69.5409 15.152 69.9446 12.6365C69.9811 12.4005 69.9446 11.6521 69.9446 11.6521Z" fill="#B4282E"/>
</svg>
