<svg width="64" height="46" viewBox="0 0 64 46" fill="none" xmlns="http://www.w3.org/2000/svg">
<path d="M50.04 0.806641C46.437 0.806641 42.9816 2.23791 40.4339 4.78559C37.8863 7.33328 36.455 10.7887 36.455 14.3916C36.455 17.9946 37.8863 21.45 40.4339 23.9977C42.9816 26.5454 46.437 27.9766 50.04 27.9766C51.0695 27.9758 52.095 27.8465 53.0925 27.5916C53.2255 27.5649 53.3633 27.5766 53.4899 27.6253C53.6165 27.674 53.7267 27.7577 53.8075 27.8666C53.8924 27.9458 53.9549 28.046 53.9886 28.157C54.0224 28.2681 54.0264 28.3861 54 28.4991C52.3965 31.3942 50.0565 33.8141 47.2169 35.514C44.3774 37.2138 41.1391 38.1333 37.83 38.1791C36.9183 38.1791 36.044 38.5413 35.3993 39.186C34.7547 39.8306 34.3925 40.705 34.3925 41.6166C34.3925 42.5283 34.7547 43.4027 35.3993 44.0473C36.044 44.692 36.9183 45.0541 37.83 45.0541C44.8885 44.8526 51.5797 41.8633 56.4397 36.7405C61.2997 31.6177 63.9326 24.7784 63.7625 17.7191V14.3916C63.7191 10.7783 62.2551 7.32734 59.6871 4.78506C57.1191 2.24279 53.6535 0.813608 50.04 0.806641Z" fill="#FE8F7E"/>
<path d="M16.1599 0.806641C12.557 0.806641 9.10158 2.23791 6.5539 4.78559C4.00622 7.33328 2.57495 10.7887 2.57495 14.3916C2.57495 17.9946 4.00622 21.45 6.5539 23.9977C9.10158 26.5454 12.557 27.9766 16.1599 27.9766C17.1894 27.9741 18.2146 27.8448 19.2124 27.5916C19.3454 27.5649 19.4833 27.5766 19.6099 27.6253C19.7365 27.674 19.8466 27.7577 19.9274 27.8666C20.0019 27.9761 20.0418 28.1055 20.0418 28.2379C20.0418 28.3703 20.0019 28.4997 19.9274 28.6091C18.3217 31.5023 15.9812 33.9207 13.1422 35.6203C10.3031 37.3199 7.06598 38.2405 3.75745 38.2891C2.84576 38.2891 1.97142 38.6513 1.32677 39.296C0.68211 39.9406 0.319946 40.815 0.319946 41.7266C0.319946 42.6383 0.68211 43.5127 1.32677 44.1573C1.97142 44.802 2.84576 45.1641 3.75745 45.1641C10.8159 44.9626 17.5072 41.9734 22.3671 36.8505C27.2271 31.7277 29.8601 24.8884 29.6899 17.8291V14.3916C29.6474 10.8114 28.21 7.38887 25.6833 4.85192C23.1567 2.31497 19.74 0.863677 16.1599 0.806641Z" fill="#FE8F7E"/>
</svg>
