<svg width="64" height="46" viewBox="0 0 64 46" fill="none" xmlns="http://www.w3.org/2000/svg">
<path d="M50.04 0.807495C46.437 0.807495 42.9816 2.23877 40.4339 4.78645C37.8863 7.33413 36.455 10.7895 36.455 14.3925C36.455 17.9955 37.8863 21.4509 40.4339 23.9985C42.9816 26.5462 46.437 27.9775 50.04 27.9775C51.0695 27.9766 52.095 27.8473 53.0925 27.5925C53.2255 27.5658 53.3633 27.5775 53.4899 27.6262C53.6165 27.6749 53.7267 27.7586 53.8075 27.8675C53.8924 27.9467 53.9549 28.0469 53.9886 28.1579C54.0224 28.269 54.0264 28.3869 54 28.5C52.3965 31.395 50.0565 33.815 47.2169 35.5148C44.3774 37.2147 41.1391 38.1341 37.83 38.18C36.9183 38.18 36.044 38.5422 35.3993 39.1868C34.7547 39.8315 34.3925 40.7058 34.3925 41.6175C34.3925 42.5292 34.7547 43.4035 35.3993 44.0482C36.044 44.6928 36.9183 45.055 37.83 45.055C44.8885 44.8534 51.5797 41.8642 56.4397 36.7414C61.2997 31.6186 63.9326 24.7793 63.7625 17.72V14.3925C63.7191 10.7792 62.2551 7.32819 59.6871 4.78592C57.1191 2.24364 53.6535 0.814462 50.04 0.807495Z" fill="#A0A0A0"/>
<path d="M16.1599 0.807495C12.557 0.807495 9.10158 2.23877 6.5539 4.78645C4.00622 7.33413 2.57495 10.7895 2.57495 14.3925C2.57495 17.9955 4.00622 21.4509 6.5539 23.9985C9.10158 26.5462 12.557 27.9775 16.1599 27.9775C17.1894 27.9749 18.2146 27.8456 19.2124 27.5925C19.3454 27.5658 19.4833 27.5775 19.6099 27.6262C19.7365 27.6749 19.8466 27.7586 19.9274 27.8675C20.0019 27.977 20.0418 28.1063 20.0418 28.2387C20.0418 28.3712 20.0019 28.5005 19.9274 28.61C18.3217 31.5032 15.9812 33.9216 13.1422 35.6212C10.3031 37.3207 7.06598 38.2413 3.75745 38.29C2.84576 38.29 1.97142 38.6522 1.32677 39.2968C0.68211 39.9415 0.319946 40.8158 0.319946 41.7275C0.319946 42.6392 0.68211 43.5135 1.32677 44.1582C1.97142 44.8028 2.84576 45.165 3.75745 45.165C10.8159 44.9634 17.5072 41.9742 22.3671 36.8514C27.2271 31.7286 29.8601 24.8893 29.6899 17.83V14.3925C29.6474 10.8122 28.21 7.38972 25.6833 4.85277C23.1567 2.31582 19.74 0.864531 16.1599 0.807495Z" fill="#A0A0A0"/>
</svg>
