<svg width="37" height="44" viewBox="0 0 37 44" fill="none" xmlns="http://www.w3.org/2000/svg">
<path fill-rule="evenodd" clip-rule="evenodd" d="M4.08429 37.9149C3.3383 38.6874 1.97687 39.0736 0 39.0736V40.0392L14.9017 40.185C15.749 40.2697 16.6093 40.3187 17.4723 40.3311C17.4932 40.4768 17.5595 40.6132 17.663 40.7203L18.3576 41.4389C18.5127 41.5993 18.5994 41.8138 18.5994 42.0369V43.2147C18.5994 43.3863 18.6823 43.5474 18.8219 43.6471L18.8915 43.6968C19.0507 43.8105 19.2568 43.8354 19.4384 43.7627C19.6167 43.6914 19.7336 43.5187 19.7336 43.3266V42.4321V40.3324C19.7336 40.3133 19.7363 40.2954 19.7412 40.2788C19.8431 40.2726 19.9449 40.2659 20.0465 40.2586V42.1192L20.1003 42.7371C20.1165 42.9237 20.163 43.1063 20.2381 43.2778L20.3018 43.4235C20.3636 43.5648 20.4801 43.6752 20.6246 43.7294L20.6889 43.7535C20.9059 43.8349 21.1443 43.8393 21.3642 43.766C21.5817 43.6935 21.7284 43.49 21.7284 43.2608V41.288C21.7284 41.1383 21.7173 40.9889 21.6954 40.8409L21.6409 40.4727C21.6227 40.35 21.596 40.2289 21.561 40.1104C25.6578 39.5981 29.4343 38.1978 31.7199 35.82C35.226 32.1293 36.3743 26.135 36.3743 20.2127C36.3743 13.7756 33.8679 8.50389 30.2126 5.02779C26.5945 1.5088 20.8877 0 14.2111 0H0V0.965574C2.01417 0.965574 3.39425 1.3518 4.14024 2.12427C4.88623 2.89672 5.25923 4.39873 5.25923 6.63028V33.4732C5.25923 35.619 4.86758 37.0995 4.08429 37.9149ZM20.8804 38.4721C20.9337 38.7428 21.0278 39.0049 21.1605 39.2493L21.3474 39.5936C21.4367 39.7582 21.5083 39.9314 21.561 40.1104C21.0603 40.173 20.5547 40.2224 20.0465 40.2586V40.2027C19.9445 40.1007 19.7785 40.1527 19.7412 40.2788C18.9875 40.3247 18.2288 40.3419 17.4723 40.3311C17.4675 40.2981 17.4651 40.2647 17.4651 40.231V40.1562C17.4651 39.9816 17.5101 39.8099 17.5957 39.6577L17.792 39.3087C17.8251 39.25 17.8553 39.1899 17.8826 39.1288C18.8909 39.1126 19.9012 38.8693 20.8804 38.4721ZM27.6505 9.57483C29.3585 12.4977 30.2126 16.0437 30.2126 20.2127C30.2126 26.092 29.2601 31.7279 26.1269 34.8178C24.6799 36.2619 22.8425 37.6761 20.8804 38.4721C20.8462 38.2985 20.8288 38.1213 20.8288 37.9431V37.504V35.8484C20.8288 35.6493 20.8025 35.451 20.7508 35.2587L20.4562 34.1646C20.3412 33.7373 20.3285 33.2888 20.4191 32.8556L20.5565 32.1991C20.6075 31.9557 20.6872 31.7193 20.7941 31.4948L21.4155 30.19L22.0412 30.6203L23.4102 30.8158L24.0751 30.6203H25.9525L26.0698 30.19H26.6174L26.8911 29.6034L26.3045 29.134L26.0698 28.3127L22.4715 24.6752L22.4341 24.5557C22.3313 24.2266 22.3346 23.8734 22.4436 23.5463L22.4715 23.4628L23.4085 20.9329C23.5632 20.515 23.6037 20.0634 23.5255 19.6246L23.1364 17.4395L25.0529 13.9194L26.1089 10.282L27.4778 9.53886L27.6505 9.57483ZM26.6853 8.1111C26.8596 8.0233 27.0496 7.9665 27.2469 7.94505L28.1604 7.84576C28.3144 7.82903 28.4625 7.90983 28.5317 8.04834C28.5765 8.13787 28.542 8.24677 28.4539 8.29423L28.1036 8.48283H28.4495C28.5473 8.48283 28.6348 8.54351 28.6692 8.6351L28.7895 8.9559C28.8254 9.0516 28.8123 9.1588 28.7543 9.24303L28.7113 9.30566C28.5327 9.56539 28.2157 9.69258 27.9071 9.6283L27.6505 9.57483C27.3544 9.0682 27.0327 8.58029 26.6853 8.1111ZM11.0687 18.3V4.28069V1.395H12.7897C18.9441 1.395 22.5662 3.43316 25.6247 6.8234C26.0015 7.23571 26.355 7.66494 26.6853 8.1111C26.5017 8.2036 26.3356 8.33051 26.1966 8.48679L25.3658 9.42152L23.4102 13.2936L21.4546 16.579L21.0634 16.8137V16.1366C21.0634 15.8895 21.1366 15.648 21.2736 15.4424L21.4652 15.1551C21.5585 15.0152 21.5915 14.8436 21.5569 14.679L21.4546 14.1932H21.2199V13.9194H20.8679V13.5283C20.8679 13.3987 20.7628 13.2936 20.6332 13.2936H20.0074L19.2714 12.9665C19.064 12.8743 18.8318 12.8542 18.6117 12.9092L18.2383 13.0025C17.8937 13.0887 17.5979 13.3091 17.4168 13.6147L17.074 14.1932L16.6047 14.3888C16.0536 14.9194 16.0938 15.8251 16.7002 16.2915L17.074 16.579L17.2647 16.5459C17.7243 16.4659 18.1975 16.5404 18.6103 16.7577L18.7167 16.8137V17.4395H17.6998L15.5486 18.3H11.0687ZM11.0687 18.3V19.3032L10.8161 19.2387H10.6596L10.1903 20.06L9.83827 20.8031L9.82736 20.8072C9.66643 20.8676 9.48883 20.7743 9.44715 20.6076V20.2247C9.44715 20.1337 9.37343 20.06 9.28248 20.06C9.24093 20.06 9.2043 20.0873 9.19236 20.1271L9.13914 20.3045C9.11055 20.3998 9.11299 20.5017 9.1461 20.5955L9.23137 20.8371C9.29152 21.0076 9.24846 21.1974 9.12066 21.3252L9.09514 21.3507H8.86047V21.116L8.72824 21.2483C8.67043 21.3061 8.57786 21.3096 8.5158 21.2564L8.43396 21.1863C8.38194 21.1417 8.35201 21.0766 8.35201 21.0081V20.6076H8.14156C8.08003 20.6076 8.04259 20.5398 8.07534 20.4877L8.66056 19.5567C8.79252 19.3468 8.96477 19.165 9.16736 19.022L10.1903 18.3H11.0687ZM11.0687 19.3032L12.1591 19.5816C12.488 19.6655 12.826 19.708 13.1654 19.708H14.6491L17.6998 19.4342L18.4224 20.3063C18.6897 20.629 18.8464 21.029 18.8692 21.4475L18.9052 22.1079C18.932 22.5982 18.6046 23.0375 18.1271 23.1521L17.9736 23.189L15.9398 22.9543L14.4144 23.189L13.5539 23.4628L13.2019 24.0494H12.6543L11.9894 24.6752L11.8916 25.1841C11.8294 25.5076 11.9066 25.8425 12.1043 26.1061C12.2731 26.3311 12.5561 26.4393 12.832 26.3841L13.5539 26.2397L14.1797 26.8264V27.374H14.6491V27.7651L14.9228 27.8824H15.3531L15.7442 28.3127L16.4482 28.7038L17.3478 28.8211L18.2865 32.0283L18.1691 32.8888L17.9002 33.4887C17.7423 33.8409 17.6607 34.2226 17.6607 34.6086V35.3758C17.6607 35.4907 17.6701 35.6054 17.6887 35.7187L18.0442 37.8792C18.1142 38.304 18.0571 38.7385 17.8826 39.1288C16.6759 39.1482 15.472 38.8424 14.3275 38.086C14.1618 37.9765 13.9863 37.8785 13.8107 37.7855C13.072 37.3945 12.7453 36.8978 12.5665 36.626C12.5316 36.5729 12.5023 36.5284 12.4767 36.495C12.214 36.1517 11.4598 34.92 11.3425 33.84L11.0687 20.1483V19.3032Z" fill="url(#paint0_linear_573_130)"/>
<defs>
<linearGradient id="paint0_linear_573_130" x1="36.3743" y1="16.679" x2="0" y2="16.679" gradientUnits="userSpaceOnUse">
<stop stop-color="#FFC04F"/>
<stop offset="1" stop-color="#FF59B4"/>
</linearGradient>
</defs>
</svg>
