<svg width="37" height="42" viewBox="0 0 37 42" fill="none" xmlns="http://www.w3.org/2000/svg">
<path fill-rule="evenodd" clip-rule="evenodd" d="M4.08429 39.4408C3.3383 40.2443 1.97687 40.6461 0 40.6461V41.6505L14.9017 41.8022C16.2817 41.9458 17.6963 41.9906 19.1008 41.9331C19.1992 41.955 19.3027 41.9508 19.4007 41.9193C19.7844 41.8996 20.1672 41.8722 20.548 41.837C20.5725 41.8506 20.598 41.8624 20.6246 41.8724L20.6889 41.8965C20.9059 41.9779 21.1443 41.9823 21.3642 41.909C21.4726 41.8729 21.5635 41.8041 21.6273 41.7159C25.6985 41.1759 29.4467 39.7217 31.7199 37.2615C35.226 33.4224 36.3743 27.1868 36.3743 21.0262C36.3743 14.3299 33.8679 8.84612 30.2126 5.23013C26.5945 1.56952 20.8877 0 14.2111 0H0V1.00443C2.01417 1.00443 3.39425 1.4062 4.14024 2.20976C4.88623 3.0133 5.25923 4.57576 5.25923 6.89711V34.8203C5.25923 37.0524 4.86758 38.5926 4.08429 39.4408ZM21.7284 39.6198V41.4038C21.7284 41.5187 21.6915 41.6272 21.6273 41.7159C21.2698 41.7633 20.9098 41.8037 20.548 41.837C20.4392 41.7767 20.3523 41.6819 20.3018 41.5665L20.2381 41.4209C20.163 41.2493 20.1165 41.0667 20.1003 40.8802L20.0522 40.3278C20.6201 40.1463 21.1809 39.9056 21.7284 39.6198ZM26.5161 8.20398C28.9804 11.5428 30.2126 15.8169 30.2126 21.0262C30.2126 27.142 29.2601 33.0047 26.1269 36.219C24.8905 37.5026 23.3691 38.7634 21.7284 39.6198V39.431C21.7284 39.2813 21.7173 39.1319 21.6954 38.9839L21.6409 38.6157C21.5952 38.3078 21.4959 38.0102 21.3474 37.7366L21.1605 37.3923C20.9428 36.9913 20.8288 36.5423 20.8288 36.0861V35.647V33.9915C20.8288 33.7923 20.8025 33.594 20.7508 33.4017L20.4562 32.3077C20.3412 31.8803 20.3285 31.4318 20.4191 30.9986L20.5565 30.3421C20.6075 30.0987 20.6872 29.8623 20.7941 29.6379L21.4155 28.3331L22.0412 28.7633L23.4102 28.9589L24.0751 28.7633H25.9525L26.0698 28.3331H26.6174L26.8911 27.7464L26.3045 27.277L26.0698 26.4557L22.4715 22.8183L22.4341 22.6987C22.3313 22.3696 22.3346 22.0164 22.4436 21.6893L22.4715 21.6058L23.4085 19.0759C23.5632 18.658 23.6037 18.2064 23.5255 17.7677L23.1364 15.5825L25.0529 12.0624L26.1089 8.425L26.5161 8.20398ZM25.7019 7.18643L26.1966 6.6298C26.4674 6.32519 26.8417 6.13211 27.2469 6.08807L28.1604 5.98878C28.3144 5.97204 28.4625 6.05285 28.5317 6.19136C28.5765 6.28089 28.542 6.38978 28.4539 6.43724L28.1036 6.62584H28.4495C28.5473 6.62584 28.6348 6.68652 28.6692 6.77812L28.7895 7.09891C28.8254 7.19462 28.8123 7.30182 28.7543 7.38604L28.7113 7.44867C28.5327 7.70841 28.2157 7.8356 27.9071 7.77131L27.4778 7.68187L26.5161 8.20398C26.2582 7.85455 25.9868 7.51537 25.7019 7.18643ZM11.0687 16.443V4.45296V1.45114H12.7897C18.9441 1.45114 22.5662 3.57132 25.6247 7.098C25.6506 7.1274 25.6763 7.15687 25.7019 7.18643L25.3658 7.56453L23.4102 11.4366L21.4546 14.722L21.0634 14.9567V14.2796C21.0634 14.0326 21.1366 13.791 21.2736 13.5854L21.4652 13.2981C21.5585 13.1582 21.5915 12.9866 21.5569 12.8221L21.4546 12.3362H21.2199V12.0624H20.8679V11.6713C20.8679 11.5417 20.7628 11.4366 20.6332 11.4366H20.0074L19.2714 11.1095C19.064 11.0173 18.8318 10.9972 18.6117 11.0522L18.2383 11.1456C17.8937 11.2317 17.5979 11.4521 17.4168 11.7577L17.074 12.3362L16.6047 12.5318C16.0536 13.0624 16.0938 13.9681 16.7002 14.4345L17.074 14.722L17.2647 14.6889C17.7243 14.6089 18.1975 14.6834 18.6103 14.9007L18.7167 14.9567V15.5825H17.6998L15.5486 16.443H11.0687ZM11.0687 17.4462L10.8161 17.3817H10.6596L10.1903 18.203L9.83827 18.9462L9.82736 18.9502C9.66643 19.0106 9.48883 18.9173 9.44715 18.7506V18.3677C9.44715 18.2767 9.37343 18.203 9.28248 18.203C9.24093 18.203 9.2043 18.2303 9.19236 18.2701L9.13914 18.4475C9.11055 18.5428 9.11299 18.6447 9.1461 18.7385L9.23137 18.9801C9.29152 19.1506 9.24846 19.3404 9.12066 19.4682L9.09514 19.4937H8.86047V19.2591L8.72824 19.3913C8.67043 19.4491 8.57786 19.4526 8.5158 19.3994L8.43396 19.3293C8.38194 19.2847 8.35201 19.2196 8.35201 19.1511V18.7506H8.14156C8.08003 18.7506 8.04259 18.6828 8.07534 18.6307L8.66056 17.6997C8.79252 17.4898 8.96477 17.308 9.16736 17.165L10.1903 16.443H11.0687V17.4462ZM18.5994 40.6527V41.3577C18.5994 41.5293 18.6823 41.6904 18.8219 41.7901L18.8915 41.8399C18.9553 41.8854 19.0266 41.9167 19.1008 41.9331C19.2008 41.929 19.3008 41.9244 19.4007 41.9193C19.4134 41.9152 19.4259 41.9107 19.4384 41.9057C19.6167 41.8344 19.7336 41.6617 19.7336 41.4696V40.5751V40.4231C19.8401 40.3935 19.9463 40.3617 20.0522 40.3278L20.0465 40.2623V38.3458C19.9311 38.2303 19.7336 38.3121 19.7336 38.4754V40.4231C19.3576 40.5279 18.9789 40.6058 18.5994 40.6527ZM18.5994 40.6527V40.1799C18.5994 39.9568 18.5127 39.7423 18.3576 39.5819L17.663 38.8633C17.5361 38.732 17.4651 38.5566 17.4651 38.374V38.2992C17.4651 38.1246 17.5101 37.9529 17.5957 37.8007L17.792 37.4517C18.0361 37.0177 18.1251 36.5136 18.0442 36.0223L17.6887 33.8617C17.6701 33.7484 17.6607 33.6337 17.6607 33.5188V32.7516C17.6607 32.3656 17.7423 31.9839 17.9002 31.6317L18.1691 31.0318L18.2865 30.1713L17.3478 26.9641L16.4482 26.8468L15.7442 26.4557L15.3531 26.0254H14.9228L14.6491 25.9081V25.517H14.1797V24.9694L13.5539 24.3827L12.832 24.5271C12.5561 24.5823 12.2731 24.4742 12.1043 24.2491C11.9066 23.9855 11.8294 23.6507 11.8916 23.3271L11.9894 22.8183L12.6543 22.1925H13.2019L13.5539 21.6058L14.4144 21.332L15.9398 21.0973L17.9736 21.332L18.1271 21.2951C18.6046 21.1806 18.932 20.7412 18.9052 20.2509L18.8692 19.5905C18.8464 19.172 18.6897 18.772 18.4224 18.4493L17.6998 17.5772L14.6491 17.851H13.1654C12.826 17.851 12.488 17.8085 12.1591 17.7246L11.0687 17.4462V20.9592L11.3425 35.2018C11.4598 36.3253 12.214 37.6066 12.4767 37.9637C12.5023 37.9985 12.5316 38.0448 12.5665 38.1C12.745 38.3823 13.0711 38.8979 13.8076 39.3045C13.9849 39.4023 14.1623 39.5052 14.3292 39.6199C15.6998 40.5616 17.1556 40.8312 18.5994 40.6527Z" fill="url(#paint0_linear_255_619)"/>
<defs>
<linearGradient id="paint0_linear_255_619" x1="36.3743" y1="15.9721" x2="0" y2="15.9721" gradientUnits="userSpaceOnUse">
<stop stop-color="#CACACA"/>
<stop offset="1" stop-color="#F2F2F2"/>
</linearGradient>
</defs>
</svg>
