<svg width="34" height="34" viewBox="0 0 34 34" fill="none" xmlns="http://www.w3.org/2000/svg">
<g clip-path="url(#clip0_362_473)">
<path d="M26.2083 0.708374H7.79159C3.87957 0.708374 0.708252 3.8797 0.708252 7.79171V26.2084C0.708252 30.1204 3.87957 33.2917 7.79159 33.2917H26.2083C30.1202 33.2917 33.2916 30.1204 33.2916 26.2084V7.79171C33.2916 3.8797 30.1202 0.708374 26.2083 0.708374Z" stroke="#ECECEC" stroke-linecap="round" stroke-linejoin="round"/>
<path d="M16.9999 22.6667C20.1295 22.6667 22.6666 20.1296 22.6666 17C22.6666 13.8704 20.1295 11.3334 16.9999 11.3334C13.8703 11.3334 11.3333 13.8704 11.3333 17C11.3333 20.1296 13.8703 22.6667 16.9999 22.6667Z" stroke="#ECECEC" stroke-linecap="round" stroke-linejoin="round"/>
<path d="M22.6668 5.66663H11.3334C8.2038 5.66663 5.66675 8.20368 5.66675 11.3333V22.6666C5.66675 25.7962 8.2038 28.3333 11.3334 28.3333H22.6668C25.7963 28.3333 28.3334 25.7962 28.3334 22.6666V11.3333C28.3334 8.20368 25.7963 5.66663 22.6668 5.66663Z" stroke="#ECECEC" stroke-linecap="round" stroke-linejoin="round"/>
<path d="M24.0833 11.3333C23.6922 11.3333 23.375 11.0162 23.375 10.625C23.375 10.2338 23.6922 9.91663 24.0833 9.91663" stroke="#ECECEC"/>
<path d="M24.0833 11.3333C24.4744 11.3333 24.7916 11.0162 24.7916 10.625C24.7916 10.2338 24.4744 9.91663 24.0833 9.91663" stroke="#ECECEC"/>
</g>
<defs>
<clipPath id="clip0_362_473">
<rect width="34" height="34" fill="white"/>
</clipPath>
</defs>
</svg>
