<svg width="107" height="39" viewBox="0 0 107 39" fill="none" xmlns="http://www.w3.org/2000/svg">
<path d="M2.49195 22.1426V6.87401H12.8462V8.72543H4.64052V13.3654H10.6977V15.2169H4.64052V20.2911H12.8462V22.1426H2.49195ZM17.7464 22.1426V6.87401H27.6664V8.72543H19.895V13.3654H27.6664V15.2169H19.895V22.1426H17.7464ZM32.5545 22.1426V6.87401H42.4745V8.72543H34.703V13.3654H42.4745V15.2169H34.703V22.1426H32.5545ZM47.3625 22.1426V6.87401H57.7168V8.72543H49.5111V13.3654H55.5682V15.2169H49.5111V20.2911H57.7168V22.1426H47.3625ZM68.5243 22.4169C67.0767 22.4169 65.8348 22.0816 64.7986 21.4111C63.7624 20.7254 62.97 19.7883 62.4214 18.5997C61.8728 17.4111 61.5986 16.0397 61.5986 14.4854C61.5986 12.9007 61.8881 11.5216 62.4671 10.3483C63.0614 9.15972 63.8919 8.23782 64.9586 7.58258C66.0252 6.92734 67.2748 6.59972 68.7071 6.59972C69.9871 6.59972 71.1376 6.89686 72.1586 7.49115C73.1948 8.08543 73.9719 8.93877 74.49 10.0511L72.6157 10.7369C72.2805 10.0511 71.77 9.49496 71.0843 9.06829C70.4138 8.62639 69.5833 8.40543 68.5928 8.40543C67.6938 8.40543 66.8786 8.63401 66.1471 9.09115C65.4309 9.54829 64.8595 10.234 64.4328 11.1483C64.0062 12.0473 63.7928 13.1597 63.7928 14.4854C63.7928 15.7654 63.9986 16.8626 64.41 17.7769C64.8214 18.6911 65.3928 19.3921 66.1243 19.8797C66.8709 20.3673 67.7167 20.6111 68.6614 20.6111C69.6519 20.6111 70.4824 20.3978 71.1528 19.9711C71.8386 19.5445 72.3567 18.9807 72.7071 18.2797L74.5814 18.9654C74.0328 20.0931 73.2252 20.954 72.1586 21.5483C71.0919 22.1273 69.8805 22.4169 68.5243 22.4169ZM83.0443 22.1426V8.72543H77.97V6.87401H90.2671V8.72543H85.1929V22.1426H83.0443ZM99.5384 22.4169C98.7003 22.4169 97.8851 22.2873 97.0927 22.0283C96.3003 21.7692 95.5993 21.3731 94.9898 20.8397C94.3955 20.3064 93.9612 19.6283 93.687 18.8054L95.6755 18.2111C95.8584 18.7597 96.1555 19.2169 96.567 19.5826C96.9784 19.9331 97.4508 20.1921 97.9841 20.3597C98.5327 20.5273 99.0812 20.6111 99.6298 20.6111C100.239 20.6111 100.818 20.5121 101.367 20.314C101.916 20.1159 102.357 19.8188 102.693 19.4226C103.043 19.0111 103.218 18.5007 103.218 17.8911C103.218 17.2664 102.99 16.7711 102.533 16.4054C102.076 16.0397 101.283 15.7121 100.156 15.4226L98.2127 14.9883C97.5117 14.8054 96.8184 14.5616 96.1327 14.2569C95.4622 13.9521 94.906 13.5178 94.4641 12.954C94.0374 12.3902 93.8241 11.6359 93.8241 10.6911C93.8241 9.82258 94.0908 9.08353 94.6241 8.47401C95.1727 7.86448 95.8736 7.39972 96.727 7.07972C97.5955 6.75972 98.4946 6.59972 99.4241 6.59972C100.14 6.59972 100.841 6.70639 101.527 6.91972C102.228 7.11781 102.853 7.4302 103.401 7.85686C103.965 8.26829 104.407 8.80162 104.727 9.45686L102.761 10.0283C102.472 9.49496 101.999 9.09115 101.344 8.81686C100.704 8.54258 100.034 8.40543 99.3327 8.40543C98.7841 8.40543 98.2584 8.49686 97.7555 8.67972C97.2527 8.84734 96.8412 9.10639 96.5212 9.45686C96.2012 9.80734 96.0412 10.2492 96.0412 10.7826C96.0412 11.2854 96.186 11.6892 96.4755 11.994C96.7803 12.2988 97.1765 12.5426 97.6641 12.7254C98.167 12.8931 98.7155 13.0454 99.3098 13.1826L100.978 13.5483C101.756 13.7311 102.487 13.9826 103.173 14.3026C103.858 14.6226 104.415 15.0721 104.841 15.6511C105.268 16.2302 105.481 17.0073 105.481 17.9826C105.481 18.6835 105.314 19.3159 104.978 19.8797C104.643 20.4283 104.194 20.8931 103.63 21.274C103.066 21.6397 102.426 21.9216 101.71 22.1197C101.009 22.3178 100.285 22.4169 99.5384 22.4169Z" fill="#ECECEC"/>
<path d="M2.3977 35.9995V29.3195H6.9277V30.1295H3.3377V32.1595H5.9877V32.9695H3.3377V35.1895H6.9277V35.9995H2.3977ZM9.57152 35.9995V29.3195H10.9615L14.0015 34.9995V29.3195H14.9415V35.9995H13.5615L10.5115 30.2895V35.9995H9.57152ZM19.5261 35.9995V30.1295H17.3061V29.3195H22.6861V30.1295H20.4661V35.9995H19.5261ZM25.0422 35.9995V29.3195H29.5722V30.1295H25.9822V32.1595H28.6322V32.9695H25.9822V35.1895H29.5722V35.9995H25.0422ZM32.2161 35.9995V29.3195H34.3361C34.8827 29.3195 35.3627 29.3695 35.7761 29.4695C36.1961 29.5628 36.5227 29.7495 36.7561 30.0295C36.9961 30.3028 37.1161 30.7062 37.1161 31.2395C37.1161 31.5395 37.0694 31.8195 36.9761 32.0795C36.8827 32.3395 36.7027 32.5595 36.4361 32.7395C36.1761 32.9195 35.7861 33.0462 35.2661 33.1195L37.3361 35.9995H36.1861L34.1561 33.1895H33.1561V35.9995H32.2161ZM33.1561 32.3995H34.4061C34.7327 32.3995 35.0261 32.3762 35.2861 32.3295C35.5527 32.2828 35.7627 32.1795 35.9161 32.0195C36.0761 31.8528 36.1561 31.5995 36.1561 31.2595C36.1561 30.9128 36.0761 30.6595 35.9161 30.4995C35.7627 30.3395 35.5527 30.2362 35.2861 30.1895C35.0261 30.1362 34.7327 30.1095 34.4061 30.1095H33.1561V32.3995ZM41.4577 35.9995V30.1295H39.2377V29.3195H44.6177V30.1295H42.3977V35.9995H41.4577ZM45.6498 35.9995L48.1598 29.3095H49.2098L51.7098 35.9995H50.7098L50.1998 34.5395H47.1598L46.6498 35.9995H45.6498ZM47.4498 33.7295H49.9098L48.6798 30.2595L47.4498 33.7295ZM53.9696 35.9995V35.2595H54.9096V30.0595H53.9696V29.3195H56.7896V30.0595H55.8496V35.2595H56.7896V35.9995H53.9696ZM59.7102 35.9995V29.3195H61.1002L64.1402 34.9995V29.3195H65.0802V35.9995H63.7002L60.6502 30.2895V35.9995H59.7102ZM68.1047 35.9995V29.3195H69.6647L71.4447 34.7795L73.2247 29.3195H74.7847V35.9995H73.8447V30.2995L71.9147 35.9995H70.9847L69.0447 30.2995V35.9995H68.1047ZM77.8079 35.9995V29.3195H82.3379V30.1295H78.7479V32.1595H81.3979V32.9695H78.7479V35.1895H82.3379V35.9995H77.8079ZM84.9817 35.9995V29.3195H86.3717L89.4117 34.9995V29.3195H90.3517V35.9995H88.9717L85.9217 30.2895V35.9995H84.9817ZM94.9362 35.9995V30.1295H92.7162V29.3195H98.0962V30.1295H95.8762V35.9995H94.9362ZM102.652 36.1195C102.286 36.1195 101.929 36.0628 101.582 35.9495C101.236 35.8362 100.929 35.6628 100.662 35.4295C100.402 35.1962 100.212 34.8995 100.092 34.5395L100.962 34.2795C101.042 34.5195 101.172 34.7195 101.352 34.8795C101.532 35.0328 101.739 35.1462 101.972 35.2195C102.212 35.2928 102.452 35.3295 102.692 35.3295C102.959 35.3295 103.212 35.2862 103.452 35.1995C103.692 35.1128 103.886 34.9828 104.032 34.8095C104.186 34.6295 104.262 34.4062 104.262 34.1395C104.262 33.8662 104.162 33.6495 103.962 33.4895C103.762 33.3295 103.416 33.1862 102.922 33.0595L102.072 32.8695C101.766 32.7895 101.462 32.6828 101.162 32.5495C100.869 32.4162 100.626 32.2262 100.432 31.9795C100.246 31.7328 100.152 31.4028 100.152 30.9895C100.152 30.6095 100.269 30.2862 100.502 30.0195C100.742 29.7528 101.049 29.5495 101.422 29.4095C101.802 29.2695 102.196 29.1995 102.602 29.1995C102.916 29.1995 103.222 29.2462 103.522 29.3395C103.829 29.4262 104.102 29.5628 104.342 29.7495C104.589 29.9295 104.782 30.1628 104.922 30.4495L104.062 30.6995C103.936 30.4662 103.729 30.2895 103.442 30.1695C103.162 30.0495 102.869 29.9895 102.562 29.9895C102.322 29.9895 102.092 30.0295 101.872 30.1095C101.652 30.1828 101.472 30.2962 101.332 30.4495C101.192 30.6028 101.122 30.7962 101.122 31.0295C101.122 31.2495 101.186 31.4262 101.312 31.5595C101.446 31.6928 101.619 31.7995 101.832 31.8795C102.052 31.9528 102.292 32.0195 102.552 32.0795L103.282 32.2395C103.622 32.3195 103.942 32.4295 104.242 32.5695C104.542 32.7095 104.786 32.9062 104.972 33.1595C105.159 33.4128 105.252 33.7528 105.252 34.1795C105.252 34.4862 105.179 34.7628 105.032 35.0095C104.886 35.2495 104.689 35.4528 104.442 35.6195C104.196 35.7795 103.916 35.9028 103.602 35.9895C103.296 36.0762 102.979 36.1195 102.652 36.1195Z" fill="#ECECEC"/>
</svg>
