<svg width="60" height="34" viewBox="0 0 60 34" fill="none" xmlns="http://www.w3.org/2000/svg">
<path opacity="0.36" d="M0.939941 2.56091C0.939941 1.17108 1.87252 0.682827 3.00661 1.47591L27.9332 18.7997C28.5553 19.1897 29.2747 19.3965 30.0089 19.3965C30.7431 19.3965 31.4625 19.1897 32.0846 18.7997L56.9957 1.46816C58.1375 0.675077 59.0624 1.16333 59.0624 2.55316V11.0782C59.0202 11.8489 58.814 12.6018 58.4576 13.2865C58.1012 13.9713 57.6028 14.572 56.9957 15.0487L32.0665 32.3984C31.444 32.7872 30.7248 32.9933 29.9908 32.9933C29.2569 32.9933 28.5377 32.7872 27.9151 32.3984L3.01436 15.0668C2.40722 14.5901 1.90881 13.9893 1.55242 13.3046C1.19602 12.6199 0.989856 11.867 0.947691 11.0962L0.939941 2.56091Z" stroke="#ECECEC" stroke-width="1.5" stroke-linecap="round" stroke-linejoin="round"/>
</svg>
