<svg width="62" height="62" viewBox="0 0 62 62" fill="none" xmlns="http://www.w3.org/2000/svg">
<path d="M1.94006 34.8982L31.0026 55.1154L60.0651 34.8982" stroke="#ECECEC" stroke-width="1.5" stroke-linecap="round" stroke-linejoin="round"/>
<path d="M1.94006 8.56115C1.94006 7.17132 2.87265 6.68307 4.00673 7.47615L28.9333 24.8C29.5554 25.1899 30.2748 25.3967 31.009 25.3967C31.7432 25.3967 32.4626 25.1899 33.0847 24.8L57.9958 7.4684C59.1376 6.67532 60.0625 7.16357 60.0625 8.5534V17.0784C60.0203 17.8492 59.8141 18.6021 59.4578 19.2868C59.1014 19.9715 58.603 20.5723 57.9958 21.049L33.0666 38.3987C32.4441 38.7874 31.7249 38.9935 30.9909 38.9935C30.257 38.9935 29.5378 38.7874 28.9152 38.3987L4.01448 21.0671C3.40734 20.5904 2.90893 19.9896 2.55254 19.3049C2.19614 18.6201 1.98998 17.8673 1.94781 17.0965L1.94006 8.56115Z" stroke="#ECECEC" stroke-width="1.5" stroke-linecap="round" stroke-linejoin="round"/>
</svg>
