<svg width="62" height="62" viewBox="0 0 62 62" fill="none" xmlns="http://www.w3.org/2000/svg">
<path d="M1.93994 34.8984L31.0024 55.1156L60.0649 34.8984" stroke="#ECECEC" stroke-width="1.5" stroke-linecap="round" stroke-linejoin="round"/>
<path d="M1.93994 8.56091C1.93994 7.17108 2.87252 6.68283 4.00661 7.47591L28.9332 24.7997C29.5553 25.1897 30.2747 25.3965 31.0089 25.3965C31.7431 25.3965 32.4625 25.1897 33.0846 24.7997L57.9957 7.46816C59.1375 6.67508 60.0624 7.16333 60.0624 8.55316V17.0782C60.0202 17.8489 59.814 18.6018 59.4576 19.2865C59.1012 19.9713 58.6028 20.572 57.9957 21.0487L33.0665 38.3984C32.444 38.7872 31.7248 38.9933 30.9908 38.9933C30.2569 38.9933 29.5377 38.7872 28.9151 38.3984L4.01436 21.0668C3.40722 20.5901 2.90881 19.9893 2.55242 19.3046C2.19602 18.6199 1.98986 17.867 1.94769 17.0962L1.93994 8.56091Z" stroke="#ECECEC" stroke-width="1.5" stroke-linecap="round" stroke-linejoin="round"/>
</svg>
