<svg width="31" height="30" viewBox="0 0 31 30" fill="none" xmlns="http://www.w3.org/2000/svg">
<path d="M19.5104 28.1346C20.8622 29.0049 22.4712 29.3865 24.07 29.2157C25.6687 29.045 27.161 28.3322 28.2985 27.1956L29.2893 26.2048C29.7289 25.7605 29.9754 25.1607 29.9754 24.5358C29.9754 23.9109 29.7289 23.3111 29.2893 22.8668L25.1169 18.7205C24.6771 18.2826 24.0818 18.0367 23.4611 18.0367C22.8404 18.0367 22.2449 18.2826 21.8051 18.7205C21.3608 19.1601 20.7612 19.4066 20.1361 19.4066C19.5112 19.4066 18.9115 19.1601 18.4673 18.7205L11.8174 12.0707C11.3779 11.6264 11.1314 11.0267 11.1314 10.4017C11.1314 9.77677 11.3779 9.17716 11.8174 8.73288C12.2554 8.29296 12.5012 7.69755 12.5012 7.07689C12.5012 6.4562 12.2554 5.86081 11.8174 5.42096L7.80149 1.24856C7.35722 0.809025 6.75749 0.5625 6.13253 0.5625C5.50758 0.5625 4.90786 0.809025 4.46357 1.24856L3.47263 2.2395C2.31585 3.36093 1.57865 4.84516 1.38407 6.4445C1.18949 8.04384 1.5493 9.6615 2.40345 11.0276C6.95067 17.7785 12.7594 23.5872 19.5104 28.1346Z" fill="#ECECEC" stroke="#ECECEC" stroke-linecap="round" stroke-linejoin="round"/>
</svg>
