<svg width="23" height="23" viewBox="0 0 23 23" fill="none" xmlns="http://www.w3.org/2000/svg">
<path d="M14.5867 21.6781C15.5828 22.3194 16.7684 22.6006 17.9465 22.4747C19.1245 22.3489 20.224 21.8237 21.0622 20.9863L21.7923 20.2562C22.1161 19.9288 22.2978 19.4869 22.2978 19.0264C22.2978 18.5659 22.1161 18.124 21.7923 17.7966L18.7179 14.7415C18.3938 14.4188 17.9551 14.2376 17.4978 14.2376C17.0404 14.2376 16.6017 14.4188 16.2776 14.7415C15.9502 15.0653 15.5084 15.247 15.0478 15.247C14.5873 15.247 14.1455 15.0653 13.8181 14.7415L8.91824 9.84158C8.59437 9.51421 8.41272 9.07228 8.41272 8.61179C8.41272 8.15131 8.59437 7.70949 8.91824 7.38213C9.24092 7.05798 9.42208 6.61925 9.42208 6.16192C9.42208 5.70458 9.24092 5.26586 8.91824 4.94176L5.95912 1.86736C5.63176 1.5435 5.18985 1.36185 4.72936 1.36185C4.26886 1.36185 3.82696 1.5435 3.4996 1.86736L2.76943 2.59753C1.91706 3.42385 1.37386 4.51749 1.23049 5.69595C1.08711 6.87442 1.35224 8.06638 1.98161 9.07298C5.3322 14.0473 9.61231 18.3274 14.5867 21.6781Z" stroke="#ECECEC" stroke-linecap="round" stroke-linejoin="round"/>
</svg>
