<svg width="382" height="441" viewBox="0 0 382 441" fill="none" xmlns="http://www.w3.org/2000/svg">
<path opacity="0.1" fill-rule="evenodd" clip-rule="evenodd" d="M-14.0181 403.279C-23.1472 411.495 -39.8078 415.603 -64 415.603V425.873L118.361 427.424C132.53 428.656 146.997 429.177 161.439 428.966V433.172C161.439 435.272 162.453 437.242 164.162 438.463L165.014 439.072C166.962 440.463 169.484 440.767 171.706 439.878C173.888 439.005 175.319 436.891 175.319 434.541V428.535C176.852 428.463 178.383 428.381 179.912 428.292C180.172 430.239 180.704 432.142 181.492 433.944L182.272 435.726C183.029 437.456 184.454 438.807 186.222 439.47L187.009 439.765C189.665 440.761 192.582 440.815 195.273 439.918C197.935 439.031 199.73 436.54 199.73 433.735V426.644C249.912 421.206 296.182 406.309 324.175 380.996C367.082 341.741 381.133 277.982 381.133 214.991C381.133 146.522 350.462 90.4509 305.729 53.4776C292.828 42.5716 277.757 33.4809 260.855 26.0735L270.09 21.0602L275.343 22.1547C279.12 22.9414 282.999 21.3849 285.184 18.2064L285.711 17.44C286.42 16.4092 286.58 15.0974 286.141 13.9262L284.669 10.0004C284.249 8.87951 283.177 8.13693 281.98 8.13693H277.748L282.034 5.82889C283.113 5.24814 283.535 3.91549 282.987 2.81986C282.139 1.12484 280.327 0.135975 278.443 0.340757L267.264 1.55587C262.305 2.09481 257.725 4.45767 254.411 8.18538L244.304 19.5554C206.159 6.1017 160.29 0 109.91 0H-64V10.2702C-39.3514 10.2702 -22.4625 14.3783 -13.3334 22.5946C-4.20432 30.8107 0.360252 46.7867 0.360252 70.5224V356.035C0.360252 378.858 -4.43252 394.606 -14.0181 403.279ZM227.142 53.4846L244.243 19.6242L244.304 19.5554C249.997 21.563 255.517 23.7343 260.855 26.0735L253.337 30.1543L242.841 66.3079C237.772 61.7688 232.558 57.4887 227.142 53.4846ZM71.4545 128.275V45.5312V14.8378H92.5146C153.4 14.8378 194.033 29.0051 227.142 53.4846L220.311 67.0094L196.379 107.215L191.593 110.087V101.801C191.593 98.7772 192.488 95.821 194.165 93.305L196.509 89.7894C197.651 88.0771 198.055 85.9774 197.631 83.9637L196.379 78.0181H193.508V74.6676H189.2V69.8812C189.2 68.2952 187.914 67.0094 186.328 67.0094H178.67L169.662 63.006C167.125 61.8783 164.283 61.6316 161.59 62.305L157.02 63.4473C152.803 64.5016 149.183 67.1992 146.967 70.9388L142.772 78.0181L137.028 80.4113C130.285 86.9051 130.777 97.9881 138.197 103.696L142.772 107.215L145.106 106.809C150.73 105.831 156.52 106.742 161.572 109.401L162.875 110.087V117.745H150.43L124.105 128.275H71.4545ZM71.4545 141.107L66.1898 139.762H64.2753L58.5316 149.814L54.2239 158.908L54.0904 158.958C52.121 159.696 49.9476 158.555 49.4375 156.515V151.829C49.4375 150.716 48.5353 149.814 47.4224 149.814C46.9139 149.814 46.4656 150.147 46.3195 150.634L45.6682 152.805C45.3183 153.972 45.3482 155.219 45.7534 156.367L46.7968 159.324C47.533 161.409 47.006 163.733 45.442 165.297L45.1297 165.609H42.2579V162.737L40.6397 164.355C39.9323 165.063 38.7996 165.106 38.04 164.455L37.0385 163.597C36.402 163.051 36.0356 162.254 36.0356 161.416V156.515H33.4603C32.7073 156.515 32.2491 155.685 32.6498 155.048L39.8115 143.654C41.4264 141.085 43.5344 138.861 46.0136 137.111L58.5316 128.275H71.4545V141.107ZM161.044 415.903C161.304 416.825 161.439 417.785 161.439 418.758V428.966C166.072 428.898 170.702 428.755 175.319 428.535V423.595V413.808C176.598 413.535 177.874 413.241 179.148 412.925V419.766L179.806 427.327C179.834 427.65 179.869 427.971 179.912 428.292C186.563 427.902 193.18 427.354 199.73 426.644V409.593C199.73 408.428 199.675 407.265 199.567 406.106C220.536 397.35 240.015 383.969 255.73 370.336C294.073 337.471 305.729 277.525 305.729 214.991C305.729 155.651 287.014 108.18 249.585 72.5765C247.363 70.4358 245.117 68.3457 242.841 66.3079L240.414 74.6676L216.961 117.745L221.723 144.486C222.679 149.855 222.184 155.382 220.29 160.496L208.824 191.455L208.483 192.477C207.149 196.48 207.108 200.802 208.367 204.83L208.824 206.293L252.859 250.806L255.73 260.858L262.91 266.601L259.56 273.781H252.859L251.423 279.046H228.448L220.311 281.439L203.559 279.046L195.901 273.781L188.297 289.749C186.989 292.496 186.013 295.389 185.39 298.367L183.708 306.401C182.598 311.703 182.754 317.191 184.162 322.421L187.767 335.809C188.4 338.162 188.721 340.589 188.721 343.026V363.286V368.659C188.721 374.242 190.116 379.737 192.78 384.644L195.068 388.858C196.885 392.206 198.101 395.847 198.659 399.616L199.327 404.122C199.424 404.781 199.504 405.443 199.567 406.106C192.887 408.896 186.057 411.216 179.148 412.925V396.312C177.735 394.899 175.319 395.9 175.319 397.898V413.808C170.583 414.818 165.817 415.532 161.044 415.903ZM161.044 415.903C160.576 414.24 159.701 412.703 158.48 411.439L149.979 402.646C148.426 401.039 147.558 398.892 147.558 396.658V395.743C147.558 393.606 148.109 391.505 149.156 389.642L151.559 385.371C154.546 380.061 155.635 373.891 154.645 367.878L150.294 341.439C150.066 340.051 149.951 338.648 149.951 337.242V327.854C149.951 323.13 150.95 318.459 152.883 314.148L156.174 306.807L157.61 296.277L146.122 257.029L135.114 255.593L126.498 250.806L121.712 245.541H116.447L113.096 244.105V239.319H107.353V232.618L99.6945 225.439L90.86 227.205C87.4841 227.881 84.0205 226.557 81.9549 223.803C79.5354 220.577 78.59 216.48 79.3515 212.52L80.549 206.293L88.6858 198.635H95.3867L99.6945 191.455L110.225 188.105L128.891 185.233L153.781 188.105L155.66 187.654C161.502 186.252 165.509 180.875 165.182 174.875L164.741 166.793C164.461 161.672 162.544 156.776 159.272 152.827L150.43 142.156L113.096 145.506H94.9402C90.7869 145.506 86.65 144.986 82.6258 143.959L71.4545 141.107V214.306L74.805 359.936C76.2409 371.423 85.47 384.524 88.6844 388.175C88.9978 388.531 89.3562 389.005 89.7837 389.57C91.9856 392.478 96.0208 397.809 105.182 401.981C107.229 402.913 109.272 403.909 111.22 405.033C127.22 414.256 144.173 417.217 161.044 415.903Z" fill="url(#paint0_linear_362_170)"/>
<defs>
<linearGradient id="paint0_linear_362_170" x1="381.133" y1="220.277" x2="-64" y2="220.277" gradientUnits="userSpaceOnUse">
<stop stop-color="#CACACA"/>
<stop offset="1" stop-color="#F2F2F2"/>
</linearGradient>
</defs>
</svg>
