<svg width="24" height="24" viewBox="0 0 24 24" fill="none" xmlns="http://www.w3.org/2000/svg">
<g clip-path="url(#clip0_289_245)">
<path d="M18.5 0.5H5.5C2.73858 0.5 0.5 2.73858 0.5 5.5V18.5C0.5 21.2614 2.73858 23.5 5.5 23.5H18.5C21.2614 23.5 23.5 21.2614 23.5 18.5V5.5C23.5 2.73858 21.2614 0.5 18.5 0.5Z" stroke="#ECECEC" stroke-linecap="round" stroke-linejoin="round"/>
<path d="M12 16C14.2091 16 16 14.2091 16 12C16 9.79086 14.2091 8 12 8C9.79086 8 8 9.79086 8 12C8 14.2091 9.79086 16 12 16Z" stroke="#ECECEC" stroke-linecap="round" stroke-linejoin="round"/>
<path d="M16 4H8C5.79086 4 4 5.79086 4 8V16C4 18.2091 5.79086 20 8 20H16C18.2091 20 20 18.2091 20 16V8C20 5.79086 18.2091 4 16 4Z" stroke="#ECECEC" stroke-linecap="round" stroke-linejoin="round"/>
<path d="M17 8C16.7239 8 16.5 7.77614 16.5 7.5C16.5 7.22386 16.7239 7 17 7" stroke="#ECECEC"/>
<path d="M17 8C17.2761 8 17.5 7.77614 17.5 7.5C17.5 7.22386 17.2761 7 17 7" stroke="#ECECEC"/>
</g>
<defs>
<clipPath id="clip0_289_245">
<rect width="24" height="24" fill="white"/>
</clipPath>
</defs>
</svg>
