<svg width="72" height="72" viewBox="0 0 72 72" fill="none" xmlns="http://www.w3.org/2000/svg">
<g clip-path="url(#clip0_289_253)">
<path d="M72 36C72 16.1177 55.8823 0 36 0C16.1177 0 0 16.1177 0 36C0 55.8823 16.1177 72 36 72C55.8823 72 72 55.8823 72 36Z" fill="#0DC143"/>
<path d="M52.1261 19.8173C48.2666 15.8442 42.9315 13.6875 37.4828 13.6875C25.9044 13.6875 16.5963 23.1091 16.7099 34.5739C16.7099 38.2063 17.7315 41.7254 19.4342 44.9037L16.4828 55.6875L27.4937 52.8497C30.5585 54.5523 33.9639 55.347 37.3692 55.347C48.8342 55.347 58.1423 45.9254 58.1423 34.4604C58.1423 28.8983 55.9856 23.6768 52.1261 19.8173ZM37.4828 51.828C34.418 51.828 31.353 51.0334 28.7423 49.4442L28.0611 49.1037L21.4775 50.8064L23.1801 44.3361L22.7261 43.6551C17.7315 35.5956 20.1152 24.9254 28.2882 19.9308C36.4611 14.9361 47.018 17.3199 52.0125 25.493C57.0071 33.6658 54.6234 44.2227 46.4504 49.2173C43.8396 50.9199 40.6611 51.828 37.4828 51.828ZM47.472 39.228L46.2234 38.6604C46.2234 38.6604 44.4071 37.8658 43.272 37.2982C43.1585 37.2982 43.0449 37.1848 42.9315 37.1848C42.5909 37.1848 42.3639 37.2983 42.1368 37.4118C42.1368 37.4118 42.0234 37.5253 40.4342 39.3415C40.3206 39.5686 40.0937 39.6821 39.8666 39.6821H39.753C39.6396 39.6821 39.4125 39.5686 39.299 39.4551L38.7315 39.228C37.4828 38.6604 36.3477 37.9794 35.4396 37.0713C35.2125 36.8442 34.872 36.6172 34.6449 36.3901C33.8504 35.5956 33.0558 34.6875 32.4882 33.6658L32.3747 33.4389C32.2611 33.3254 32.2611 33.2118 32.1477 32.9849C32.1477 32.7578 32.1477 32.5308 32.2611 32.4172C32.2611 32.4172 32.7152 31.8496 33.0558 31.5091C33.2828 31.282 33.3963 30.9416 33.6234 30.7146C33.8504 30.374 33.9639 29.9199 33.8504 29.5794C33.7368 29.0118 32.3747 25.947 32.0342 25.2659C31.8071 24.9254 31.5801 24.8118 31.2396 24.6982H30.899C30.672 24.6982 30.3315 24.6982 29.9909 24.6982C29.7639 24.6982 29.5368 24.8118 29.3099 24.8118L29.1963 24.9253C28.9692 25.0389 28.7423 25.2658 28.5152 25.3794C28.2882 25.6063 28.1747 25.8335 27.9477 26.0604C27.153 27.0821 26.699 28.3308 26.699 29.5794C26.699 30.4875 26.9261 31.3956 27.2666 32.1902L27.3801 32.5308C28.4018 34.6875 29.7639 36.6173 31.5801 38.3199L32.0342 38.774C32.3747 39.1146 32.7152 39.3416 32.9423 39.6821C35.3261 41.7254 38.0504 43.201 41.1152 43.9956C41.4558 44.1091 41.9099 44.1091 42.2504 44.2227C42.5909 44.2227 43.0449 44.2227 43.3856 44.2227C43.953 44.2227 44.6342 43.9956 45.0882 43.7687C45.4287 43.5415 45.6558 43.5415 45.8828 43.3146L46.1099 43.0875C46.3368 42.8604 46.5639 42.747 46.7909 42.5199C47.018 42.2929 47.2449 42.0658 47.3585 41.8389C47.5856 41.3848 47.699 40.8172 47.8125 40.2496C47.8125 40.0227 47.8125 39.6821 47.8125 39.4551C47.8125 39.4551 47.699 39.3416 47.472 39.228Z" fill="white"/>
</g>
<defs>
<clipPath id="clip0_289_253">
<rect width="72" height="72" fill="white"/>
</clipPath>
</defs>
</svg>
